<svg width="376" height="363" viewBox="0 0 376 363" fill="none" xmlns="http://www.w3.org/2000/svg">
<path d="M44.9425 47.6176C57.1459 35.3994 61.4855 21.6033 56.7507 14.0283C54.5568 10.5112 49.2307 6.39981 43.7577 7.75896C39.0003 8.88625 35.3773 13.8996 34.9291 20.1183C30.552 15.6127 24.5703 14.1527 20.1795 16.2967C15.1146 18.7881 13.6895 25.3589 14.2819 29.4664C15.5428 38.3849 27.7511 46.1381 44.9425 47.6176Z" fill="#F45954" fill-opacity="0.2"/>
<ellipse cx="8.93088" cy="10.0472" rx="8.93088" ry="10.0472" transform="matrix(0.940755 -0.339087 -0.339087 -0.940755 35.1455 74.8823)" fill="#F45954" fill-opacity="0.2"/>
<ellipse cx="8.93088" cy="10.0472" rx="8.93088" ry="10.0472" transform="matrix(0.940755 -0.339087 -0.339087 -0.940755 63.4531 48.0659)" fill="#F45954" fill-opacity="0.2"/>
<ellipse cx="8.93088" cy="10.0472" rx="8.93088" ry="10.0472" transform="matrix(0.940755 -0.339087 -0.339087 -0.940755 15.1426 65.48)" fill="#F45954" fill-opacity="0.2"/>
<ellipse cx="8.93088" cy="10.0472" rx="8.93088" ry="10.0472" transform="matrix(0.940755 -0.339087 -0.339087 -0.940755 54.0479 68.0688)" fill="#F45954" fill-opacity="0.2"/>
<path d="M136.861 336.831C153.084 330.915 162.848 320.245 161.758 311.379C161.256 307.264 158.166 301.287 152.632 300.206C147.844 299.217 142.441 302.229 139.407 307.676C137.344 301.743 132.54 297.892 127.655 297.979C122.011 298.096 117.943 303.449 116.744 307.422C114.117 316.038 121.905 328.225 136.861 336.831Z" fill="#F45954" fill-opacity="0.2"/>
<ellipse cx="8.93088" cy="10.0472" rx="8.93088" ry="10.0472" transform="matrix(0.995918 0.0902617 0.0902617 -0.995918 116.458 357.399)" fill="#F45954" fill-opacity="0.2"/>
<ellipse cx="8.93088" cy="10.0472" rx="8.93088" ry="10.0472" transform="matrix(0.995918 0.0902617 0.0902617 -0.995918 153.444 345.06)" fill="#F45954" fill-opacity="0.2"/>
<ellipse cx="8.93088" cy="10.0472" rx="8.93088" ry="10.0472" transform="matrix(0.995918 0.0902617 0.0902617 -0.995918 102.303 340.424)" fill="#F45954" fill-opacity="0.2"/>
<ellipse cx="8.93088" cy="10.0472" rx="8.93088" ry="10.0472" transform="matrix(0.995918 0.0902617 0.0902617 -0.995918 136.469 359.214)" fill="#F45954" fill-opacity="0.2"/>
<path d="M147.575 135.802C160.998 124.938 166.767 111.676 162.856 103.644C161.045 99.9156 156.182 95.2659 150.596 96.0408C145.747 96.6606 141.616 101.264 140.515 107.401C136.637 102.459 130.842 100.377 126.25 102.047C120.951 103.99 118.841 110.375 118.997 114.522C119.312 123.523 130.635 132.52 147.575 135.802Z" fill="#F45954" fill-opacity="0.2"/>
<ellipse cx="8.93088" cy="10.0472" rx="8.93088" ry="10.0472" transform="matrix(0.971247 -0.238073 -0.238073 -0.971247 134.957 161.883)" fill="#F45954" fill-opacity="0.2"/>
<ellipse cx="8.93088" cy="10.0472" rx="8.93088" ry="10.0472" transform="matrix(0.971247 -0.238073 -0.238073 -0.971247 165.932 138.199)" fill="#F45954" fill-opacity="0.2"/>
<ellipse cx="8.93088" cy="10.0472" rx="8.93088" ry="10.0472" transform="matrix(0.971247 -0.238073 -0.238073 -0.971247 116.057 150.425)" fill="#F45954" fill-opacity="0.2"/>
<ellipse cx="8.93088" cy="10.0472" rx="8.93088" ry="10.0472" transform="matrix(0.971247 -0.238073 -0.238073 -0.971247 154.473 157.1)" fill="#F45954" fill-opacity="0.2"/>
<path d="M54.9055 230.538C71.8804 227.366 83.2633 218.445 83.644 209.52C83.8245 205.378 81.7584 198.975 76.4764 197C71.9157 195.238 66.0921 197.323 62.2046 202.197C61.144 196.006 57.0373 191.418 52.2037 190.702C46.6178 189.891 41.7256 194.503 39.8905 198.226C35.885 206.293 41.5662 219.593 54.9055 230.538Z" fill="#F45954" fill-opacity="0.2"/>
<ellipse cx="8.93088" cy="10.0472" rx="8.93088" ry="10.0472" transform="matrix(0.967579 0.252568 0.252568 -0.967579 31.4014 247.477)" fill="#F45954" fill-opacity="0.2"/>
<ellipse cx="8.93088" cy="10.0472" rx="8.93088" ry="10.0472" transform="matrix(0.967579 0.252568 0.252568 -0.967579 69.9121 241.378)" fill="#F45954" fill-opacity="0.2"/>
<ellipse cx="8.93088" cy="10.0472" rx="8.93088" ry="10.0472" transform="matrix(0.967579 0.252568 0.252568 -0.967579 20.2256 228.409)" fill="#F45954" fill-opacity="0.2"/>
<ellipse cx="8.93088" cy="10.0472" rx="8.93088" ry="10.0472" transform="matrix(0.967579 0.252568 0.252568 -0.967579 50.8438 252.552)" fill="#F45954" fill-opacity="0.2"/>
<path d="M233.943 47.6176C246.146 35.3994 250.486 21.6033 245.751 14.0283C243.557 10.5112 238.231 6.39981 232.758 7.75896C228 8.88625 224.377 13.8996 223.929 20.1183C219.552 15.6127 213.57 14.1527 209.179 16.2967C204.115 18.7881 202.69 25.3589 203.282 29.4664C204.543 38.3849 216.751 46.1381 233.943 47.6176Z" fill="#F45954" fill-opacity="0.2"/>
<ellipse cx="8.93088" cy="10.0472" rx="8.93088" ry="10.0472" transform="matrix(0.940755 -0.339087 -0.339087 -0.940755 224.146 74.8823)" fill="#F45954" fill-opacity="0.2"/>
<ellipse cx="8.93088" cy="10.0472" rx="8.93088" ry="10.0472" transform="matrix(0.940755 -0.339087 -0.339087 -0.940755 252.453 48.0659)" fill="#F45954" fill-opacity="0.2"/>
<ellipse cx="8.93088" cy="10.0472" rx="8.93088" ry="10.0472" transform="matrix(0.940755 -0.339087 -0.339087 -0.940755 204.143 65.48)" fill="#F45954" fill-opacity="0.2"/>
<ellipse cx="8.93088" cy="10.0472" rx="8.93088" ry="10.0472" transform="matrix(0.940755 -0.339087 -0.339087 -0.940755 243.048 68.0688)" fill="#F45954" fill-opacity="0.2"/>
<path d="M325.859 336.831C342.082 330.915 351.846 320.245 350.756 311.379C350.254 307.264 347.165 301.287 341.63 300.206C336.842 299.217 331.44 302.229 328.405 307.676C326.342 301.743 321.538 297.892 316.653 297.979C311.009 298.096 306.941 303.449 305.742 307.422C303.115 316.038 310.903 328.225 325.859 336.831Z" fill="#F45954" fill-opacity="0.2"/>
<ellipse cx="8.93088" cy="10.0472" rx="8.93088" ry="10.0472" transform="matrix(0.995918 0.0902617 0.0902617 -0.995918 305.458 357.399)" fill="#F45954" fill-opacity="0.2"/>
<ellipse cx="8.93088" cy="10.0472" rx="8.93088" ry="10.0472" transform="matrix(0.995918 0.0902617 0.0902617 -0.995918 342.443 345.06)" fill="#F45954" fill-opacity="0.2"/>
<ellipse cx="8.93088" cy="10.0472" rx="8.93088" ry="10.0472" transform="matrix(0.995918 0.0902617 0.0902617 -0.995918 291.303 340.424)" fill="#F45954" fill-opacity="0.2"/>
<ellipse cx="8.93088" cy="10.0472" rx="8.93088" ry="10.0472" transform="matrix(0.995918 0.0902617 0.0902617 -0.995918 325.469 359.214)" fill="#F45954" fill-opacity="0.2"/>
<path d="M336.575 135.802C349.998 124.938 355.767 111.676 351.856 103.644C350.045 99.9156 345.182 95.2659 339.596 96.0408C334.747 96.6606 330.616 101.264 329.515 107.401C325.637 102.459 319.842 100.377 315.25 102.047C309.951 103.99 307.841 110.375 307.997 114.522C308.312 123.523 319.635 132.52 336.575 135.802Z" fill="#F45954" fill-opacity="0.2"/>
<ellipse cx="8.93088" cy="10.0472" rx="8.93088" ry="10.0472" transform="matrix(0.971247 -0.238073 -0.238073 -0.971247 323.957 161.883)" fill="#F45954" fill-opacity="0.2"/>
<ellipse cx="8.93088" cy="10.0472" rx="8.93088" ry="10.0472" transform="matrix(0.971247 -0.238073 -0.238073 -0.971247 354.932 138.199)" fill="#F45954" fill-opacity="0.2"/>
<ellipse cx="8.93088" cy="10.0472" rx="8.93088" ry="10.0472" transform="matrix(0.971247 -0.238073 -0.238073 -0.971247 305.057 150.425)" fill="#F45954" fill-opacity="0.2"/>
<ellipse cx="8.93088" cy="10.0472" rx="8.93088" ry="10.0472" transform="matrix(0.971247 -0.238073 -0.238073 -0.971247 343.473 157.1)" fill="#F45954" fill-opacity="0.2"/>
<path d="M243.905 230.538C260.88 227.366 272.263 218.445 272.644 209.52C272.825 205.378 270.758 198.975 265.476 197C260.916 195.238 255.092 197.323 251.205 202.197C250.144 196.006 246.037 191.418 241.204 190.702C235.618 189.891 230.726 194.503 228.89 198.226C224.885 206.293 230.566 219.593 243.905 230.538Z" fill="#F45954" fill-opacity="0.2"/>
<ellipse cx="8.93088" cy="10.0472" rx="8.93088" ry="10.0472" transform="matrix(0.967579 0.252568 0.252568 -0.967579 220.401 247.477)" fill="#F45954" fill-opacity="0.2"/>
<ellipse cx="8.93088" cy="10.0472" rx="8.93088" ry="10.0472" transform="matrix(0.967579 0.252568 0.252568 -0.967579 258.912 241.378)" fill="#F45954" fill-opacity="0.2"/>
<ellipse cx="8.93088" cy="10.0472" rx="8.93088" ry="10.0472" transform="matrix(0.967579 0.252568 0.252568 -0.967579 209.226 228.409)" fill="#F45954" fill-opacity="0.2"/>
<ellipse cx="8.93088" cy="10.0472" rx="8.93088" ry="10.0472" transform="matrix(0.967579 0.252568 0.252568 -0.967579 239.844 252.552)" fill="#F45954" fill-opacity="0.2"/>
</svg>
