<svg width="1440" height="175" viewBox="0 0 1440 175" fill="none" xmlns="http://www.w3.org/2000/svg">
<path d="M291.239 22.8876C297.104 17.015 299.19 10.3841 296.914 6.74323C295.86 5.05274 293.3 3.07666 290.669 3.72992C288.382 4.27174 286.641 6.68135 286.426 9.67033C284.322 7.50474 281.447 6.80301 279.336 7.83349C276.902 9.03095 276.217 12.1892 276.502 14.1634C277.108 18.45 282.976 22.1765 291.239 22.8876Z" fill="#F45954" fill-opacity="0.2"/>
<ellipse cx="4.29254" cy="4.82911" rx="4.29254" ry="4.82911" transform="matrix(0.940755 -0.339087 -0.339087 -0.940755 286.529 35.9917)" fill="#F45954" fill-opacity="0.2"/>
<ellipse cx="4.29254" cy="4.82911" rx="4.29254" ry="4.82911" transform="matrix(0.940755 -0.339087 -0.339087 -0.940755 300.136 23.1025)" fill="#F45954" fill-opacity="0.2"/>
<ellipse cx="4.29254" cy="4.82911" rx="4.29254" ry="4.82911" transform="matrix(0.940755 -0.339087 -0.339087 -0.940755 276.916 31.4727)" fill="#F45954" fill-opacity="0.2"/>
<ellipse cx="4.29254" cy="4.82911" rx="4.29254" ry="4.82911" transform="matrix(0.940755 -0.339087 -0.339087 -0.940755 295.614 32.7168)" fill="#F45954" fill-opacity="0.2"/>
<path d="M335.418 161.895C343.216 159.052 347.908 153.923 347.384 149.662C347.143 147.684 345.658 144.811 342.998 144.292C340.697 143.816 338.1 145.264 336.642 147.882C335.65 145.03 333.341 143.179 330.993 143.221C328.281 143.278 326.325 145.851 325.749 147.76C324.486 151.901 328.23 157.759 335.418 161.895Z" fill="#F45954" fill-opacity="0.2"/>
<ellipse cx="4.29254" cy="4.82911" rx="4.29254" ry="4.82911" transform="matrix(0.995918 0.0902617 0.0902617 -0.995918 325.612 171.781)" fill="#F45954" fill-opacity="0.2"/>
<ellipse cx="4.29254" cy="4.82911" rx="4.29254" ry="4.82911" transform="matrix(0.995918 0.0902617 0.0902617 -0.995918 343.389 165.85)" fill="#F45954" fill-opacity="0.2"/>
<ellipse cx="4.29254" cy="4.82911" rx="4.29254" ry="4.82911" transform="matrix(0.995918 0.0902617 0.0902617 -0.995918 318.809 163.622)" fill="#F45954" fill-opacity="0.2"/>
<ellipse cx="4.29254" cy="4.82911" rx="4.29254" ry="4.82911" transform="matrix(0.995918 0.0902617 0.0902617 -0.995918 335.23 172.653)" fill="#F45954" fill-opacity="0.2"/>
<path d="M340.569 65.2718C347.021 60.05 349.794 53.6758 347.914 49.8154C347.044 48.0232 344.706 45.7884 342.021 46.1608C339.69 46.4587 337.705 48.6714 337.176 51.6211C335.312 49.2459 332.527 48.2451 330.319 49.0475C327.772 49.9817 326.759 53.0502 326.834 55.0434C326.985 59.37 332.427 63.6941 340.569 65.2718Z" fill="#F45954" fill-opacity="0.2"/>
<ellipse cx="4.29254" cy="4.82911" rx="4.29254" ry="4.82911" transform="matrix(0.971247 -0.238073 -0.238073 -0.971247 334.504 77.8076)" fill="#F45954" fill-opacity="0.2"/>
<ellipse cx="4.29254" cy="4.82911" rx="4.29254" ry="4.82911" transform="matrix(0.971247 -0.238073 -0.238073 -0.971247 349.392 66.4243)" fill="#F45954" fill-opacity="0.2"/>
<ellipse cx="4.29254" cy="4.82911" rx="4.29254" ry="4.82911" transform="matrix(0.971247 -0.238073 -0.238073 -0.971247 325.42 72.3003)" fill="#F45954" fill-opacity="0.2"/>
<ellipse cx="4.29254" cy="4.82911" rx="4.29254" ry="4.82911" transform="matrix(0.971247 -0.238073 -0.238073 -0.971247 343.884 75.5088)" fill="#F45954" fill-opacity="0.2"/>
<path d="M296.028 110.806C304.187 109.282 309.658 104.994 309.841 100.704C309.928 98.7137 308.935 95.6361 306.396 94.6866C304.204 93.8399 301.405 94.8418 299.537 97.1847C299.027 94.2088 297.053 92.0038 294.73 91.6597C292.045 91.27 289.694 93.4868 288.812 95.2758C286.886 99.1534 289.617 105.546 296.028 110.806Z" fill="#F45954" fill-opacity="0.2"/>
<ellipse cx="4.29254" cy="4.82911" rx="4.29254" ry="4.82911" transform="matrix(0.967579 0.252568 0.252568 -0.967579 284.731 118.948)" fill="#F45954" fill-opacity="0.2"/>
<ellipse cx="4.29254" cy="4.82911" rx="4.29254" ry="4.82911" transform="matrix(0.967579 0.252568 0.252568 -0.967579 303.241 116.017)" fill="#F45954" fill-opacity="0.2"/>
<ellipse cx="4.29254" cy="4.82911" rx="4.29254" ry="4.82911" transform="matrix(0.967579 0.252568 0.252568 -0.967579 279.36 109.783)" fill="#F45954" fill-opacity="0.2"/>
<ellipse cx="4.29254" cy="4.82911" rx="4.29254" ry="4.82911" transform="matrix(0.967579 0.252568 0.252568 -0.967579 294.076 121.387)" fill="#F45954" fill-opacity="0.2"/>
<path d="M111.481 22.8876C117.346 17.015 119.432 10.3841 117.156 6.74323C116.102 5.05274 113.542 3.07666 110.911 3.72992C108.625 4.27174 106.883 6.68135 106.668 9.67033C104.564 7.50474 101.689 6.80301 99.5786 7.83349C97.1442 9.03095 96.4593 12.1892 96.744 14.1634C97.35 18.45 103.218 22.1765 111.481 22.8876Z" fill="#F45954" fill-opacity="0.2"/>
<ellipse cx="4.29254" cy="4.82911" rx="4.29254" ry="4.82911" transform="matrix(0.940755 -0.339087 -0.339087 -0.940755 106.771 35.9917)" fill="#F45954" fill-opacity="0.2"/>
<ellipse cx="4.29254" cy="4.82911" rx="4.29254" ry="4.82911" transform="matrix(0.940755 -0.339087 -0.339087 -0.940755 120.378 23.1025)" fill="#F45954" fill-opacity="0.2"/>
<ellipse cx="4.29254" cy="4.82911" rx="4.29254" ry="4.82911" transform="matrix(0.940755 -0.339087 -0.339087 -0.940755 97.1582 31.4727)" fill="#F45954" fill-opacity="0.2"/>
<ellipse cx="4.29254" cy="4.82911" rx="4.29254" ry="4.82911" transform="matrix(0.940755 -0.339087 -0.339087 -0.940755 115.857 32.7168)" fill="#F45954" fill-opacity="0.2"/>
<path d="M155.659 161.895C163.457 159.051 168.149 153.923 167.626 149.661C167.384 147.684 165.899 144.811 163.239 144.291C160.938 143.816 158.341 145.264 156.883 147.882C155.891 145.03 153.582 143.179 151.234 143.221C148.522 143.277 146.566 145.85 145.99 147.76C144.728 151.901 148.471 157.758 155.659 161.895Z" fill="#F45954" fill-opacity="0.2"/>
<ellipse cx="4.29254" cy="4.82911" rx="4.29254" ry="4.82911" transform="matrix(0.995918 0.0902617 0.0902617 -0.995918 145.854 171.781)" fill="#F45954" fill-opacity="0.2"/>
<ellipse cx="4.29254" cy="4.82911" rx="4.29254" ry="4.82911" transform="matrix(0.995918 0.0902617 0.0902617 -0.995918 163.63 165.851)" fill="#F45954" fill-opacity="0.2"/>
<ellipse cx="4.29254" cy="4.82911" rx="4.29254" ry="4.82911" transform="matrix(0.995918 0.0902617 0.0902617 -0.995918 139.05 163.623)" fill="#F45954" fill-opacity="0.2"/>
<ellipse cx="4.29254" cy="4.82911" rx="4.29254" ry="4.82911" transform="matrix(0.995918 0.0902617 0.0902617 -0.995918 155.471 172.654)" fill="#F45954" fill-opacity="0.2"/>
<path d="M160.81 65.2723C167.262 60.0505 170.035 53.6763 168.155 49.8159C167.285 48.0237 164.947 45.7889 162.263 46.1613C159.932 46.4592 157.946 48.6719 157.417 51.6215C155.553 49.2463 152.768 48.2456 150.561 49.0479C148.014 49.9822 147 53.0507 147.075 55.0439C147.226 59.3705 152.668 63.6946 160.81 65.2723Z" fill="#F45954" fill-opacity="0.2"/>
<ellipse cx="4.29254" cy="4.82911" rx="4.29254" ry="4.82911" transform="matrix(0.971247 -0.238073 -0.238073 -0.971247 154.745 77.8081)" fill="#F45954" fill-opacity="0.2"/>
<ellipse cx="4.29254" cy="4.82911" rx="4.29254" ry="4.82911" transform="matrix(0.971247 -0.238073 -0.238073 -0.971247 169.633 66.4243)" fill="#F45954" fill-opacity="0.2"/>
<ellipse cx="4.29254" cy="4.82911" rx="4.29254" ry="4.82911" transform="matrix(0.971247 -0.238073 -0.238073 -0.971247 145.661 72.3008)" fill="#F45954" fill-opacity="0.2"/>
<ellipse cx="4.29254" cy="4.82911" rx="4.29254" ry="4.82911" transform="matrix(0.971247 -0.238073 -0.238073 -0.971247 164.125 75.5088)" fill="#F45954" fill-opacity="0.2"/>
<path d="M116.271 110.806C124.429 109.281 129.9 104.993 130.083 100.704C130.17 98.7132 129.177 95.6356 126.638 94.6862C124.446 93.8394 121.647 94.8413 119.779 97.1842C119.269 94.2083 117.295 92.0033 114.972 91.6592C112.287 91.2695 109.936 93.4863 109.054 95.2753C107.129 99.153 109.859 105.545 116.271 110.806Z" fill="#F45954" fill-opacity="0.2"/>
<ellipse cx="4.29254" cy="4.82911" rx="4.29254" ry="4.82911" transform="matrix(0.967579 0.252568 0.252568 -0.967579 104.974 118.948)" fill="#F45954" fill-opacity="0.2"/>
<ellipse cx="4.29254" cy="4.82911" rx="4.29254" ry="4.82911" transform="matrix(0.967579 0.252568 0.252568 -0.967579 123.483 116.016)" fill="#F45954" fill-opacity="0.2"/>
<ellipse cx="4.29254" cy="4.82911" rx="4.29254" ry="4.82911" transform="matrix(0.967579 0.252568 0.252568 -0.967579 99.6025 109.783)" fill="#F45954" fill-opacity="0.2"/>
<ellipse cx="4.29254" cy="4.82911" rx="4.29254" ry="4.82911" transform="matrix(0.967579 0.252568 0.252568 -0.967579 114.318 121.387)" fill="#F45954" fill-opacity="0.2"/>
<path d="M201.36 22.8876C207.225 17.015 209.311 10.3841 207.035 6.74323C205.981 5.05274 203.421 3.07666 200.79 3.72992C198.504 4.27174 196.762 6.68135 196.547 9.67033C194.443 7.50474 191.568 6.80301 189.457 7.83349C187.023 9.03095 186.338 12.1892 186.623 14.1634C187.229 18.45 193.097 22.1765 201.36 22.8876Z" fill="#F45954" fill-opacity="0.2"/>
<ellipse cx="4.29254" cy="4.82911" rx="4.29254" ry="4.82911" transform="matrix(0.940755 -0.339087 -0.339087 -0.940755 196.65 35.9917)" fill="#F45954" fill-opacity="0.2"/>
<ellipse cx="4.29254" cy="4.82911" rx="4.29254" ry="4.82911" transform="matrix(0.940755 -0.339087 -0.339087 -0.940755 210.257 23.1025)" fill="#F45954" fill-opacity="0.2"/>
<ellipse cx="4.29254" cy="4.82911" rx="4.29254" ry="4.82911" transform="matrix(0.940755 -0.339087 -0.339087 -0.940755 187.037 31.4727)" fill="#F45954" fill-opacity="0.2"/>
<ellipse cx="4.29254" cy="4.82911" rx="4.29254" ry="4.82911" transform="matrix(0.940755 -0.339087 -0.339087 -0.940755 205.735 32.7168)" fill="#F45954" fill-opacity="0.2"/>
<path d="M245.536 161.895C253.334 159.052 258.026 153.923 257.503 149.662C257.261 147.684 255.776 144.811 253.116 144.292C250.815 143.816 248.218 145.264 246.76 147.882C245.768 145.03 243.459 143.179 241.111 143.221C238.399 143.278 236.443 145.851 235.867 147.76C234.605 151.901 238.348 157.759 245.536 161.895Z" fill="#F45954" fill-opacity="0.2"/>
<ellipse cx="4.29254" cy="4.82911" rx="4.29254" ry="4.82911" transform="matrix(0.995918 0.0902617 0.0902617 -0.995918 235.73 171.781)" fill="#F45954" fill-opacity="0.2"/>
<ellipse cx="4.29254" cy="4.82911" rx="4.29254" ry="4.82911" transform="matrix(0.995918 0.0902617 0.0902617 -0.995918 253.507 165.85)" fill="#F45954" fill-opacity="0.2"/>
<ellipse cx="4.29254" cy="4.82911" rx="4.29254" ry="4.82911" transform="matrix(0.995918 0.0902617 0.0902617 -0.995918 228.927 163.622)" fill="#F45954" fill-opacity="0.2"/>
<ellipse cx="4.29254" cy="4.82911" rx="4.29254" ry="4.82911" transform="matrix(0.995918 0.0902617 0.0902617 -0.995918 245.349 172.653)" fill="#F45954" fill-opacity="0.2"/>
<path d="M250.689 65.2728C257.141 60.051 259.914 53.6768 258.034 49.8164C257.164 48.0242 254.826 45.7894 252.141 46.1618C249.811 46.4597 247.825 48.6724 247.296 51.622C245.432 49.2468 242.647 48.2461 240.44 49.0484C237.893 49.9827 236.879 53.0512 236.954 55.0444C237.105 59.371 242.547 63.695 250.689 65.2728Z" fill="#F45954" fill-opacity="0.2"/>
<ellipse cx="4.29254" cy="4.82911" rx="4.29254" ry="4.82911" transform="matrix(0.971247 -0.238073 -0.238073 -0.971247 244.624 77.8081)" fill="#F45954" fill-opacity="0.2"/>
<ellipse cx="4.29254" cy="4.82911" rx="4.29254" ry="4.82911" transform="matrix(0.971247 -0.238073 -0.238073 -0.971247 259.512 66.4248)" fill="#F45954" fill-opacity="0.2"/>
<ellipse cx="4.29254" cy="4.82911" rx="4.29254" ry="4.82911" transform="matrix(0.971247 -0.238073 -0.238073 -0.971247 235.54 72.3008)" fill="#F45954" fill-opacity="0.2"/>
<ellipse cx="4.29254" cy="4.82911" rx="4.29254" ry="4.82911" transform="matrix(0.971247 -0.238073 -0.238073 -0.971247 254.004 75.5093)" fill="#F45954" fill-opacity="0.2"/>
<path d="M206.148 110.806C214.307 109.282 219.778 104.994 219.961 100.704C220.048 98.7137 219.055 95.6361 216.516 94.6866C214.324 93.8399 211.525 94.8418 209.657 97.1847C209.147 94.2088 207.173 92.0038 204.85 91.6597C202.165 91.27 199.814 93.4868 198.932 95.2758C197.006 99.1534 199.737 105.546 206.148 110.806Z" fill="#F45954" fill-opacity="0.2"/>
<ellipse cx="4.29254" cy="4.82911" rx="4.29254" ry="4.82911" transform="matrix(0.967579 0.252568 0.252568 -0.967579 194.852 118.948)" fill="#F45954" fill-opacity="0.2"/>
<ellipse cx="4.29254" cy="4.82911" rx="4.29254" ry="4.82911" transform="matrix(0.967579 0.252568 0.252568 -0.967579 213.361 116.017)" fill="#F45954" fill-opacity="0.2"/>
<ellipse cx="4.29254" cy="4.82911" rx="4.29254" ry="4.82911" transform="matrix(0.967579 0.252568 0.252568 -0.967579 189.48 109.783)" fill="#F45954" fill-opacity="0.2"/>
<ellipse cx="4.29254" cy="4.82911" rx="4.29254" ry="4.82911" transform="matrix(0.967579 0.252568 0.252568 -0.967579 204.196 121.387)" fill="#F45954" fill-opacity="0.2"/>
<path d="M21.6008 22.8876C27.4663 17.015 29.5521 10.3841 27.2763 6.74323C26.2218 5.05274 23.6619 3.07666 21.0313 3.72992C18.7448 4.27174 17.0034 6.68135 16.788 9.67033C14.6842 7.50474 11.8091 6.80301 9.6987 7.83349C7.2643 9.03095 6.57938 12.1892 6.86411 14.1634C7.47011 18.45 13.3379 22.1765 21.6008 22.8876Z" fill="#F45954" fill-opacity="0.2"/>
<ellipse cx="4.29254" cy="4.82911" rx="4.29254" ry="4.82911" transform="matrix(0.940755 -0.339087 -0.339087 -0.940755 16.8916 35.9917)" fill="#F45954" fill-opacity="0.2"/>
<ellipse cx="4.29254" cy="4.82911" rx="4.29254" ry="4.82911" transform="matrix(0.940755 -0.339087 -0.339087 -0.940755 30.498 23.1025)" fill="#F45954" fill-opacity="0.2"/>
<ellipse cx="4.29254" cy="4.82911" rx="4.29254" ry="4.82911" transform="matrix(0.940755 -0.339087 -0.339087 -0.940755 7.27832 31.4727)" fill="#F45954" fill-opacity="0.2"/>
<ellipse cx="4.29254" cy="4.82911" rx="4.29254" ry="4.82911" transform="matrix(0.940755 -0.339087 -0.339087 -0.940755 25.9775 32.7168)" fill="#F45954" fill-opacity="0.2"/>
<path d="M65.7771 161.894C73.5749 159.051 78.2676 153.923 77.7437 149.661C77.5025 147.683 76.0175 144.81 73.3574 144.291C71.0561 143.816 68.4595 145.263 67.0011 147.881C66.0096 145.03 63.7005 143.178 61.3523 143.221C58.6399 143.277 56.6844 145.85 56.1081 147.759C54.8458 151.9 58.589 157.758 65.7771 161.894Z" fill="#F45954" fill-opacity="0.2"/>
<ellipse cx="4.29254" cy="4.82911" rx="4.29254" ry="4.82911" transform="matrix(0.995918 0.0902617 0.0902617 -0.995918 55.9717 171.781)" fill="#F45954" fill-opacity="0.2"/>
<ellipse cx="4.29254" cy="4.82911" rx="4.29254" ry="4.82911" transform="matrix(0.995918 0.0902617 0.0902617 -0.995918 73.748 165.85)" fill="#F45954" fill-opacity="0.2"/>
<ellipse cx="4.29254" cy="4.82911" rx="4.29254" ry="4.82911" transform="matrix(0.995918 0.0902617 0.0902617 -0.995918 49.168 163.622)" fill="#F45954" fill-opacity="0.2"/>
<ellipse cx="4.29254" cy="4.82911" rx="4.29254" ry="4.82911" transform="matrix(0.995918 0.0902617 0.0902617 -0.995918 65.5889 172.653)" fill="#F45954" fill-opacity="0.2"/>
<path d="M70.9284 65.2718C77.38 60.05 80.1529 53.6758 78.2734 49.8154C77.403 48.0232 75.0655 45.7884 72.3807 46.1608C70.0498 46.4587 68.0642 48.6714 67.5351 51.6211C65.6712 49.2459 62.8861 48.2451 60.6788 49.0475C58.1318 49.9817 57.1179 53.0502 57.193 55.0434C57.344 59.37 62.7865 63.6941 70.9284 65.2718Z" fill="#F45954" fill-opacity="0.2"/>
<ellipse cx="4.29254" cy="4.82911" rx="4.29254" ry="4.82911" transform="matrix(0.971247 -0.238073 -0.238073 -0.971247 64.8643 77.8076)" fill="#F45954" fill-opacity="0.2"/>
<ellipse cx="4.29254" cy="4.82911" rx="4.29254" ry="4.82911" transform="matrix(0.971247 -0.238073 -0.238073 -0.971247 79.752 66.4238)" fill="#F45954" fill-opacity="0.2"/>
<ellipse cx="4.29254" cy="4.82911" rx="4.29254" ry="4.82911" transform="matrix(0.971247 -0.238073 -0.238073 -0.971247 55.7793 72.3003)" fill="#F45954" fill-opacity="0.2"/>
<ellipse cx="4.29254" cy="4.82911" rx="4.29254" ry="4.82911" transform="matrix(0.971247 -0.238073 -0.238073 -0.971247 74.2441 75.5083)" fill="#F45954" fill-opacity="0.2"/>
<path d="M26.3907 110.807C34.5495 109.282 40.0206 104.994 40.2036 100.705C40.2904 98.7142 39.2973 95.6365 36.7585 94.6871C34.5665 93.8404 31.7674 94.8423 29.8989 97.1852C29.3892 94.2093 27.4153 92.0043 25.0921 91.6601C22.4073 91.2704 20.0559 93.4873 19.1739 95.2763C17.2487 99.1539 19.9793 105.546 26.3907 110.807Z" fill="#F45954" fill-opacity="0.2"/>
<ellipse cx="4.29254" cy="4.82911" rx="4.29254" ry="4.82911" transform="matrix(0.967579 0.252568 0.252568 -0.967579 15.0938 118.949)" fill="#F45954" fill-opacity="0.2"/>
<ellipse cx="4.29254" cy="4.82911" rx="4.29254" ry="4.82911" transform="matrix(0.967579 0.252568 0.252568 -0.967579 33.6035 116.017)" fill="#F45954" fill-opacity="0.2"/>
<ellipse cx="4.29254" cy="4.82911" rx="4.29254" ry="4.82911" transform="matrix(0.967579 0.252568 0.252568 -0.967579 9.72266 109.784)" fill="#F45954" fill-opacity="0.2"/>
<ellipse cx="4.29254" cy="4.82911" rx="4.29254" ry="4.82911" transform="matrix(0.967579 0.252568 0.252568 -0.967579 24.4385 121.388)" fill="#F45954" fill-opacity="0.2"/>
<path d="M651.719 22.8871C657.584 17.0145 659.67 10.3836 657.394 6.74274C656.34 5.05225 653.78 3.07617 651.149 3.72943C648.863 4.27125 647.122 6.68086 646.906 9.66984C644.802 7.50426 641.927 6.80252 639.817 7.83301C637.382 9.03046 636.698 12.1887 636.982 14.1629C637.588 18.4495 643.456 22.176 651.719 22.8871Z" fill="#F45954" fill-opacity="0.2"/>
<ellipse cx="4.29254" cy="4.82911" rx="4.29254" ry="4.82911" transform="matrix(0.940755 -0.339087 -0.339087 -0.940755 647.01 35.9912)" fill="#F45954" fill-opacity="0.2"/>
<ellipse cx="4.29254" cy="4.82911" rx="4.29254" ry="4.82911" transform="matrix(0.940755 -0.339087 -0.339087 -0.940755 660.616 23.1021)" fill="#F45954" fill-opacity="0.2"/>
<ellipse cx="4.29254" cy="4.82911" rx="4.29254" ry="4.82911" transform="matrix(0.940755 -0.339087 -0.339087 -0.940755 637.396 31.4722)" fill="#F45954" fill-opacity="0.2"/>
<ellipse cx="4.29254" cy="4.82911" rx="4.29254" ry="4.82911" transform="matrix(0.940755 -0.339087 -0.339087 -0.940755 656.096 32.7163)" fill="#F45954" fill-opacity="0.2"/>
<path d="M695.895 161.895C703.693 159.051 708.386 153.923 707.862 149.661C707.621 147.684 706.136 144.811 703.476 144.291C701.174 143.816 698.578 145.264 697.119 147.882C696.128 145.03 693.819 143.179 691.47 143.221C688.758 143.277 686.803 145.85 686.226 147.76C684.964 151.901 688.707 157.758 695.895 161.895Z" fill="#F45954" fill-opacity="0.2"/>
<ellipse cx="4.29254" cy="4.82911" rx="4.29254" ry="4.82911" transform="matrix(0.995918 0.0902617 0.0902617 -0.995918 686.09 171.781)" fill="#F45954" fill-opacity="0.2"/>
<ellipse cx="4.29254" cy="4.82911" rx="4.29254" ry="4.82911" transform="matrix(0.995918 0.0902617 0.0902617 -0.995918 703.866 165.85)" fill="#F45954" fill-opacity="0.2"/>
<ellipse cx="4.29254" cy="4.82911" rx="4.29254" ry="4.82911" transform="matrix(0.995918 0.0902617 0.0902617 -0.995918 679.286 163.622)" fill="#F45954" fill-opacity="0.2"/>
<ellipse cx="4.29254" cy="4.82911" rx="4.29254" ry="4.82911" transform="matrix(0.995918 0.0902617 0.0902617 -0.995918 695.707 172.653)" fill="#F45954" fill-opacity="0.2"/>
<path d="M701.049 65.2723C707.5 60.0505 710.273 53.6763 708.394 49.8159C707.523 48.0237 705.186 45.7889 702.501 46.1613C700.17 46.4592 698.184 48.6719 697.655 51.6215C695.791 49.2463 693.006 48.2456 690.799 49.0479C688.252 49.9822 687.238 53.0507 687.313 55.0439C687.464 59.3705 692.907 63.6946 701.049 65.2723Z" fill="#F45954" fill-opacity="0.2"/>
<ellipse cx="4.29254" cy="4.82911" rx="4.29254" ry="4.82911" transform="matrix(0.971247 -0.238073 -0.238073 -0.971247 694.983 77.8076)" fill="#F45954" fill-opacity="0.2"/>
<ellipse cx="4.29254" cy="4.82911" rx="4.29254" ry="4.82911" transform="matrix(0.971247 -0.238073 -0.238073 -0.971247 709.87 66.4243)" fill="#F45954" fill-opacity="0.2"/>
<ellipse cx="4.29254" cy="4.82911" rx="4.29254" ry="4.82911" transform="matrix(0.971247 -0.238073 -0.238073 -0.971247 685.899 72.3003)" fill="#F45954" fill-opacity="0.2"/>
<ellipse cx="4.29254" cy="4.82911" rx="4.29254" ry="4.82911" transform="matrix(0.971247 -0.238073 -0.238073 -0.971247 704.362 75.5088)" fill="#F45954" fill-opacity="0.2"/>
<path d="M656.508 110.806C664.667 109.282 670.138 104.994 670.321 100.704C670.408 98.7137 669.414 95.6361 666.876 94.6866C664.684 93.8399 661.885 94.8418 660.016 97.1847C659.506 94.2088 657.533 92.0038 655.209 91.6597C652.524 91.27 650.173 93.4868 649.291 95.2758C647.366 99.1534 650.096 105.546 656.508 110.806Z" fill="#F45954" fill-opacity="0.2"/>
<ellipse cx="4.29254" cy="4.82911" rx="4.29254" ry="4.82911" transform="matrix(0.967579 0.252568 0.252568 -0.967579 645.211 118.948)" fill="#F45954" fill-opacity="0.2"/>
<ellipse cx="4.29254" cy="4.82911" rx="4.29254" ry="4.82911" transform="matrix(0.967579 0.252568 0.252568 -0.967579 663.721 116.017)" fill="#F45954" fill-opacity="0.2"/>
<ellipse cx="4.29254" cy="4.82911" rx="4.29254" ry="4.82911" transform="matrix(0.967579 0.252568 0.252568 -0.967579 639.84 109.783)" fill="#F45954" fill-opacity="0.2"/>
<ellipse cx="4.29254" cy="4.82911" rx="4.29254" ry="4.82911" transform="matrix(0.967579 0.252568 0.252568 -0.967579 654.556 121.387)" fill="#F45954" fill-opacity="0.2"/>
<path d="M471.96 22.8876C477.826 17.015 479.911 10.3841 477.636 6.74323C476.581 5.05274 474.021 3.07666 471.391 3.72992C469.104 4.27174 467.363 6.68135 467.147 9.67033C465.044 7.50474 462.168 6.80301 460.058 7.83349C457.624 9.03095 456.939 12.1892 457.223 14.1634C457.829 18.45 463.697 22.1765 471.96 22.8876Z" fill="#F45954" fill-opacity="0.2"/>
<ellipse cx="4.29254" cy="4.82911" rx="4.29254" ry="4.82911" transform="matrix(0.940755 -0.339087 -0.339087 -0.940755 467.251 35.9917)" fill="#F45954" fill-opacity="0.2"/>
<ellipse cx="4.29254" cy="4.82911" rx="4.29254" ry="4.82911" transform="matrix(0.940755 -0.339087 -0.339087 -0.940755 480.857 23.103)" fill="#F45954" fill-opacity="0.2"/>
<ellipse cx="4.29254" cy="4.82911" rx="4.29254" ry="4.82911" transform="matrix(0.940755 -0.339087 -0.339087 -0.940755 457.638 31.4727)" fill="#F45954" fill-opacity="0.2"/>
<ellipse cx="4.29254" cy="4.82911" rx="4.29254" ry="4.82911" transform="matrix(0.940755 -0.339087 -0.339087 -0.940755 476.337 32.7173)" fill="#F45954" fill-opacity="0.2"/>
<path d="M516.139 161.894C523.937 159.051 528.63 153.923 528.106 149.661C527.865 147.683 526.38 144.81 523.72 144.291C521.418 143.816 518.822 145.263 517.363 147.881C516.372 145.03 514.063 143.178 511.715 143.221C509.002 143.277 507.047 145.85 506.47 147.759C505.208 151.9 508.951 157.758 516.139 161.894Z" fill="#F45954" fill-opacity="0.2"/>
<ellipse cx="4.29254" cy="4.82911" rx="4.29254" ry="4.82911" transform="matrix(0.995918 0.0902617 0.0902617 -0.995918 506.334 171.781)" fill="#F45954" fill-opacity="0.2"/>
<ellipse cx="4.29254" cy="4.82911" rx="4.29254" ry="4.82911" transform="matrix(0.995918 0.0902617 0.0902617 -0.995918 524.11 165.85)" fill="#F45954" fill-opacity="0.2"/>
<ellipse cx="4.29254" cy="4.82911" rx="4.29254" ry="4.82911" transform="matrix(0.995918 0.0902617 0.0902617 -0.995918 499.53 163.622)" fill="#F45954" fill-opacity="0.2"/>
<ellipse cx="4.29254" cy="4.82911" rx="4.29254" ry="4.82911" transform="matrix(0.995918 0.0902617 0.0902617 -0.995918 515.951 172.653)" fill="#F45954" fill-opacity="0.2"/>
<path d="M521.289 65.2728C527.74 60.051 530.513 53.6768 528.634 49.8164C527.763 48.0242 525.426 45.7894 522.741 46.1618C520.41 46.4597 518.425 48.6724 517.895 51.622C516.032 49.2468 513.246 48.2461 511.039 49.0484C508.492 49.9827 507.478 53.0512 507.553 55.0444C507.704 59.371 513.147 63.695 521.289 65.2728Z" fill="#F45954" fill-opacity="0.2"/>
<ellipse cx="4.29254" cy="4.82911" rx="4.29254" ry="4.82911" transform="matrix(0.971247 -0.238073 -0.238073 -0.971247 515.224 77.8081)" fill="#F45954" fill-opacity="0.2"/>
<ellipse cx="4.29254" cy="4.82911" rx="4.29254" ry="4.82911" transform="matrix(0.971247 -0.238073 -0.238073 -0.971247 530.111 66.4248)" fill="#F45954" fill-opacity="0.2"/>
<ellipse cx="4.29254" cy="4.82911" rx="4.29254" ry="4.82911" transform="matrix(0.971247 -0.238073 -0.238073 -0.971247 506.14 72.3008)" fill="#F45954" fill-opacity="0.2"/>
<ellipse cx="4.29254" cy="4.82911" rx="4.29254" ry="4.82911" transform="matrix(0.971247 -0.238073 -0.238073 -0.971247 524.604 75.5093)" fill="#F45954" fill-opacity="0.2"/>
<path d="M476.75 110.806C484.909 109.281 490.38 104.993 490.563 100.704C490.65 98.7132 489.657 95.6356 487.118 94.6862C484.926 93.8394 482.127 94.8413 480.258 97.1842C479.749 94.2083 477.775 92.0033 475.451 91.6592C472.767 91.2695 470.415 93.4863 469.533 95.2753C467.608 99.153 470.339 105.545 476.75 110.806Z" fill="#F45954" fill-opacity="0.2"/>
<ellipse cx="4.29254" cy="4.82911" rx="4.29254" ry="4.82911" transform="matrix(0.967579 0.252568 0.252568 -0.967579 465.453 118.948)" fill="#F45954" fill-opacity="0.2"/>
<ellipse cx="4.29254" cy="4.82911" rx="4.29254" ry="4.82911" transform="matrix(0.967579 0.252568 0.252568 -0.967579 483.963 116.016)" fill="#F45954" fill-opacity="0.2"/>
<ellipse cx="4.29254" cy="4.82911" rx="4.29254" ry="4.82911" transform="matrix(0.967579 0.252568 0.252568 -0.967579 460.082 109.783)" fill="#F45954" fill-opacity="0.2"/>
<ellipse cx="4.29254" cy="4.82911" rx="4.29254" ry="4.82911" transform="matrix(0.967579 0.252568 0.252568 -0.967579 474.798 121.387)" fill="#F45954" fill-opacity="0.2"/>
<path d="M561.84 22.8871C567.706 17.0145 569.791 10.3836 567.516 6.74274C566.461 5.05225 563.901 3.07617 561.271 3.72943C558.984 4.27125 557.243 6.68086 557.027 9.66984C554.923 7.50426 552.048 6.80252 549.938 7.83301C547.504 9.03046 546.819 12.1887 547.103 14.1629C547.709 18.4495 553.577 22.176 561.84 22.8871Z" fill="#F45954" fill-opacity="0.2"/>
<ellipse cx="4.29254" cy="4.82911" rx="4.29254" ry="4.82911" transform="matrix(0.940755 -0.339087 -0.339087 -0.940755 557.131 35.9912)" fill="#F45954" fill-opacity="0.2"/>
<ellipse cx="4.29254" cy="4.82911" rx="4.29254" ry="4.82911" transform="matrix(0.940755 -0.339087 -0.339087 -0.940755 570.737 23.1025)" fill="#F45954" fill-opacity="0.2"/>
<ellipse cx="4.29254" cy="4.82911" rx="4.29254" ry="4.82911" transform="matrix(0.940755 -0.339087 -0.339087 -0.940755 547.518 31.4722)" fill="#F45954" fill-opacity="0.2"/>
<ellipse cx="4.29254" cy="4.82911" rx="4.29254" ry="4.82911" transform="matrix(0.940755 -0.339087 -0.339087 -0.940755 566.216 32.7168)" fill="#F45954" fill-opacity="0.2"/>
<path d="M606.016 161.894C613.814 159.051 618.507 153.923 617.983 149.661C617.742 147.683 616.257 144.81 613.597 144.291C611.295 143.816 608.699 145.263 607.24 147.881C606.249 145.03 603.94 143.178 601.592 143.221C598.879 143.277 596.924 145.85 596.347 147.759C595.085 151.9 598.828 157.758 606.016 161.894Z" fill="#F45954" fill-opacity="0.2"/>
<ellipse cx="4.29254" cy="4.82911" rx="4.29254" ry="4.82911" transform="matrix(0.995918 0.0902617 0.0902617 -0.995918 596.211 171.781)" fill="#F45954" fill-opacity="0.2"/>
<ellipse cx="4.29254" cy="4.82911" rx="4.29254" ry="4.82911" transform="matrix(0.995918 0.0902617 0.0902617 -0.995918 613.987 165.85)" fill="#F45954" fill-opacity="0.2"/>
<ellipse cx="4.29254" cy="4.82911" rx="4.29254" ry="4.82911" transform="matrix(0.995918 0.0902617 0.0902617 -0.995918 589.407 163.622)" fill="#F45954" fill-opacity="0.2"/>
<ellipse cx="4.29254" cy="4.82911" rx="4.29254" ry="4.82911" transform="matrix(0.995918 0.0902617 0.0902617 -0.995918 605.828 172.653)" fill="#F45954" fill-opacity="0.2"/>
<path d="M611.17 65.2723C617.621 60.0505 620.394 53.6763 618.515 49.8159C617.644 48.0237 615.307 45.7889 612.622 46.1613C610.291 46.4592 608.305 48.6719 607.776 51.6215C605.912 49.2463 603.127 48.2456 600.92 49.0479C598.373 49.9822 597.359 53.0507 597.434 55.0439C597.585 59.3705 603.028 63.6946 611.17 65.2723Z" fill="#F45954" fill-opacity="0.2"/>
<ellipse cx="4.29254" cy="4.82911" rx="4.29254" ry="4.82911" transform="matrix(0.971247 -0.238073 -0.238073 -0.971247 605.104 77.8076)" fill="#F45954" fill-opacity="0.2"/>
<ellipse cx="4.29254" cy="4.82911" rx="4.29254" ry="4.82911" transform="matrix(0.971247 -0.238073 -0.238073 -0.971247 619.992 66.4243)" fill="#F45954" fill-opacity="0.2"/>
<ellipse cx="4.29254" cy="4.82911" rx="4.29254" ry="4.82911" transform="matrix(0.971247 -0.238073 -0.238073 -0.971247 596.021 72.3003)" fill="#F45954" fill-opacity="0.2"/>
<ellipse cx="4.29254" cy="4.82911" rx="4.29254" ry="4.82911" transform="matrix(0.971247 -0.238073 -0.238073 -0.971247 614.484 75.5088)" fill="#F45954" fill-opacity="0.2"/>
<path d="M566.629 110.806C574.788 109.281 580.259 104.993 580.442 100.704C580.529 98.7132 579.536 95.6356 576.997 94.6862C574.805 93.8394 572.006 94.8413 570.137 97.1842C569.627 94.2083 567.654 92.0033 565.33 91.6592C562.646 91.2695 560.294 93.4863 559.412 95.2753C557.487 99.153 560.218 105.545 566.629 110.806Z" fill="#F45954" fill-opacity="0.2"/>
<ellipse cx="4.29254" cy="4.82911" rx="4.29254" ry="4.82911" transform="matrix(0.967579 0.252568 0.252568 -0.967579 555.332 118.948)" fill="#F45954" fill-opacity="0.2"/>
<ellipse cx="4.29254" cy="4.82911" rx="4.29254" ry="4.82911" transform="matrix(0.967579 0.252568 0.252568 -0.967579 573.842 116.016)" fill="#F45954" fill-opacity="0.2"/>
<ellipse cx="4.29254" cy="4.82911" rx="4.29254" ry="4.82911" transform="matrix(0.967579 0.252568 0.252568 -0.967579 549.961 109.783)" fill="#F45954" fill-opacity="0.2"/>
<ellipse cx="4.29254" cy="4.82911" rx="4.29254" ry="4.82911" transform="matrix(0.967579 0.252568 0.252568 -0.967579 564.677 121.387)" fill="#F45954" fill-opacity="0.2"/>
<path d="M382.08 22.8871C387.946 17.0145 390.032 10.3836 387.756 6.74274C386.701 5.05225 384.141 3.07617 381.511 3.72943C379.224 4.27125 377.483 6.68086 377.267 9.66984C375.164 7.50426 372.289 6.80252 370.178 7.83301C367.744 9.03046 367.059 12.1887 367.344 14.1629C367.95 18.4495 373.817 22.176 382.08 22.8871Z" fill="#F45954" fill-opacity="0.2"/>
<ellipse cx="4.29254" cy="4.82911" rx="4.29254" ry="4.82911" transform="matrix(0.940755 -0.339087 -0.339087 -0.940755 377.371 35.9912)" fill="#F45954" fill-opacity="0.2"/>
<ellipse cx="4.29254" cy="4.82911" rx="4.29254" ry="4.82911" transform="matrix(0.940755 -0.339087 -0.339087 -0.940755 390.978 23.1025)" fill="#F45954" fill-opacity="0.2"/>
<ellipse cx="4.29254" cy="4.82911" rx="4.29254" ry="4.82911" transform="matrix(0.940755 -0.339087 -0.339087 -0.940755 367.758 31.4722)" fill="#F45954" fill-opacity="0.2"/>
<ellipse cx="4.29254" cy="4.82911" rx="4.29254" ry="4.82911" transform="matrix(0.940755 -0.339087 -0.339087 -0.940755 386.457 32.7168)" fill="#F45954" fill-opacity="0.2"/>
<path d="M426.258 161.894C434.055 159.051 438.748 153.923 438.224 149.661C437.983 147.683 436.498 144.81 433.838 144.291C431.537 143.816 428.94 145.263 427.482 147.881C426.49 145.03 424.181 143.178 421.833 143.221C419.12 143.277 417.165 145.85 416.589 147.759C415.326 151.9 419.069 157.758 426.258 161.894Z" fill="#F45954" fill-opacity="0.2"/>
<ellipse cx="4.29254" cy="4.82911" rx="4.29254" ry="4.82911" transform="matrix(0.995918 0.0902617 0.0902617 -0.995918 416.452 171.781)" fill="#F45954" fill-opacity="0.2"/>
<ellipse cx="4.29254" cy="4.82911" rx="4.29254" ry="4.82911" transform="matrix(0.995918 0.0902617 0.0902617 -0.995918 434.229 165.85)" fill="#F45954" fill-opacity="0.2"/>
<ellipse cx="4.29254" cy="4.82911" rx="4.29254" ry="4.82911" transform="matrix(0.995918 0.0902617 0.0902617 -0.995918 409.648 163.622)" fill="#F45954" fill-opacity="0.2"/>
<ellipse cx="4.29254" cy="4.82911" rx="4.29254" ry="4.82911" transform="matrix(0.995918 0.0902617 0.0902617 -0.995918 426.069 172.653)" fill="#F45954" fill-opacity="0.2"/>
<path d="M431.41 65.2723C437.861 60.0505 440.634 53.6763 438.755 49.8159C437.884 48.0237 435.547 45.7889 432.862 46.1613C430.531 46.4592 428.546 48.6719 428.017 51.6215C426.153 49.2463 423.368 48.2456 421.16 49.0479C418.613 49.9822 417.599 53.0507 417.674 55.0439C417.825 59.3705 423.268 63.6946 431.41 65.2723Z" fill="#F45954" fill-opacity="0.2"/>
<ellipse cx="4.29254" cy="4.82911" rx="4.29254" ry="4.82911" transform="matrix(0.971247 -0.238073 -0.238073 -0.971247 425.346 77.8081)" fill="#F45954" fill-opacity="0.2"/>
<ellipse cx="4.29254" cy="4.82911" rx="4.29254" ry="4.82911" transform="matrix(0.971247 -0.238073 -0.238073 -0.971247 440.233 66.4248)" fill="#F45954" fill-opacity="0.2"/>
<ellipse cx="4.29254" cy="4.82911" rx="4.29254" ry="4.82911" transform="matrix(0.971247 -0.238073 -0.238073 -0.971247 416.262 72.3008)" fill="#F45954" fill-opacity="0.2"/>
<ellipse cx="4.29254" cy="4.82911" rx="4.29254" ry="4.82911" transform="matrix(0.971247 -0.238073 -0.238073 -0.971247 434.726 75.5093)" fill="#F45954" fill-opacity="0.2"/>
<path d="M386.869 110.806C395.028 109.281 400.499 104.993 400.682 100.704C400.769 98.7132 399.776 95.6356 397.237 94.6862C395.045 93.8394 392.246 94.8413 390.377 97.1842C389.868 94.2083 387.894 92.0033 385.571 91.6592C382.886 91.2695 380.534 93.4863 379.652 95.2753C377.727 99.153 380.458 105.545 386.869 110.806Z" fill="#F45954" fill-opacity="0.2"/>
<ellipse cx="4.29254" cy="4.82911" rx="4.29254" ry="4.82911" transform="matrix(0.967579 0.252568 0.252568 -0.967579 375.572 118.948)" fill="#F45954" fill-opacity="0.2"/>
<ellipse cx="4.29254" cy="4.82911" rx="4.29254" ry="4.82911" transform="matrix(0.967579 0.252568 0.252568 -0.967579 394.082 116.016)" fill="#F45954" fill-opacity="0.2"/>
<ellipse cx="4.29254" cy="4.82911" rx="4.29254" ry="4.82911" transform="matrix(0.967579 0.252568 0.252568 -0.967579 370.201 109.783)" fill="#F45954" fill-opacity="0.2"/>
<ellipse cx="4.29254" cy="4.82911" rx="4.29254" ry="4.82911" transform="matrix(0.967579 0.252568 0.252568 -0.967579 384.917 121.387)" fill="#F45954" fill-opacity="0.2"/>
<path d="M1011.24 22.8876C1017.1 17.015 1019.19 10.3841 1016.91 6.74323C1015.86 5.05274 1013.3 3.07666 1010.67 3.72992C1008.38 4.27174 1006.64 6.68135 1006.42 9.67033C1004.32 7.50474 1001.45 6.80301 999.335 7.83349C996.901 9.03095 996.216 12.1892 996.501 14.1634C997.107 18.45 1002.97 22.1765 1011.24 22.8876Z" fill="#F45954" fill-opacity="0.2"/>
<ellipse cx="4.29254" cy="4.82911" rx="4.29254" ry="4.82911" transform="matrix(0.940755 -0.339087 -0.339087 -0.940755 1006.53 35.9917)" fill="#F45954" fill-opacity="0.2"/>
<ellipse cx="4.29254" cy="4.82911" rx="4.29254" ry="4.82911" transform="matrix(0.940755 -0.339087 -0.339087 -0.940755 1020.13 23.1025)" fill="#F45954" fill-opacity="0.2"/>
<ellipse cx="4.29254" cy="4.82911" rx="4.29254" ry="4.82911" transform="matrix(0.940755 -0.339087 -0.339087 -0.940755 996.915 31.4727)" fill="#F45954" fill-opacity="0.2"/>
<ellipse cx="4.29254" cy="4.82911" rx="4.29254" ry="4.82911" transform="matrix(0.940755 -0.339087 -0.339087 -0.940755 1015.61 32.7168)" fill="#F45954" fill-opacity="0.2"/>
<path d="M1055.42 161.895C1063.21 159.052 1067.91 153.923 1067.38 149.662C1067.14 147.684 1065.66 144.811 1063 144.292C1060.7 143.816 1058.1 145.264 1056.64 147.882C1055.65 145.03 1053.34 143.179 1050.99 143.221C1048.28 143.278 1046.32 145.851 1045.75 147.76C1044.49 151.901 1048.23 157.759 1055.42 161.895Z" fill="#F45954" fill-opacity="0.2"/>
<ellipse cx="4.29254" cy="4.82911" rx="4.29254" ry="4.82911" transform="matrix(0.995918 0.0902617 0.0902617 -0.995918 1045.61 171.781)" fill="#F45954" fill-opacity="0.2"/>
<ellipse cx="4.29254" cy="4.82911" rx="4.29254" ry="4.82911" transform="matrix(0.995918 0.0902617 0.0902617 -0.995918 1063.39 165.85)" fill="#F45954" fill-opacity="0.2"/>
<ellipse cx="4.29254" cy="4.82911" rx="4.29254" ry="4.82911" transform="matrix(0.995918 0.0902617 0.0902617 -0.995918 1038.81 163.622)" fill="#F45954" fill-opacity="0.2"/>
<ellipse cx="4.29254" cy="4.82911" rx="4.29254" ry="4.82911" transform="matrix(0.995918 0.0902617 0.0902617 -0.995918 1055.23 172.653)" fill="#F45954" fill-opacity="0.2"/>
<path d="M1060.57 65.2718C1067.02 60.05 1069.79 53.6758 1067.91 49.8154C1067.04 48.0232 1064.71 45.7884 1062.02 46.1608C1059.69 46.4587 1057.7 48.6714 1057.17 51.6211C1055.31 49.2459 1052.53 48.2451 1050.32 49.0475C1047.77 49.9817 1046.76 53.0502 1046.83 55.0434C1046.98 59.37 1052.43 63.6941 1060.57 65.2718Z" fill="#F45954" fill-opacity="0.2"/>
<ellipse cx="4.29254" cy="4.82911" rx="4.29254" ry="4.82911" transform="matrix(0.971247 -0.238073 -0.238073 -0.971247 1054.5 77.8076)" fill="#F45954" fill-opacity="0.2"/>
<ellipse cx="4.29254" cy="4.82911" rx="4.29254" ry="4.82911" transform="matrix(0.971247 -0.238073 -0.238073 -0.971247 1069.39 66.4243)" fill="#F45954" fill-opacity="0.2"/>
<ellipse cx="4.29254" cy="4.82911" rx="4.29254" ry="4.82911" transform="matrix(0.971247 -0.238073 -0.238073 -0.971247 1045.42 72.3003)" fill="#F45954" fill-opacity="0.2"/>
<ellipse cx="4.29254" cy="4.82911" rx="4.29254" ry="4.82911" transform="matrix(0.971247 -0.238073 -0.238073 -0.971247 1063.88 75.5088)" fill="#F45954" fill-opacity="0.2"/>
<path d="M1016.03 110.806C1024.19 109.282 1029.66 104.994 1029.84 100.704C1029.93 98.7137 1028.93 95.6361 1026.4 94.6866C1024.2 93.8399 1021.4 94.8418 1019.54 97.1847C1019.03 94.2088 1017.05 92.0038 1014.73 91.6597C1012.04 91.27 1009.69 93.4868 1008.81 95.2758C1006.89 99.1534 1009.62 105.546 1016.03 110.806Z" fill="#F45954" fill-opacity="0.2"/>
<ellipse cx="4.29254" cy="4.82911" rx="4.29254" ry="4.82911" transform="matrix(0.967579 0.252568 0.252568 -0.967579 1004.73 118.948)" fill="#F45954" fill-opacity="0.2"/>
<ellipse cx="4.29254" cy="4.82911" rx="4.29254" ry="4.82911" transform="matrix(0.967579 0.252568 0.252568 -0.967579 1023.24 116.017)" fill="#F45954" fill-opacity="0.2"/>
<ellipse cx="4.29254" cy="4.82911" rx="4.29254" ry="4.82911" transform="matrix(0.967579 0.252568 0.252568 -0.967579 999.359 109.783)" fill="#F45954" fill-opacity="0.2"/>
<ellipse cx="4.29254" cy="4.82911" rx="4.29254" ry="4.82911" transform="matrix(0.967579 0.252568 0.252568 -0.967579 1014.08 121.387)" fill="#F45954" fill-opacity="0.2"/>
<path d="M831.48 22.8876C837.345 17.015 839.431 10.3841 837.155 6.74323C836.101 5.05274 833.541 3.07666 830.91 3.72992C828.624 4.27174 826.882 6.68135 826.667 9.67033C824.563 7.50474 821.688 6.80301 819.578 7.83349C817.143 9.03095 816.458 12.1892 816.743 14.1634C817.349 18.45 823.217 22.1765 831.48 22.8876Z" fill="#F45954" fill-opacity="0.2"/>
<ellipse cx="4.29254" cy="4.82911" rx="4.29254" ry="4.82911" transform="matrix(0.940755 -0.339087 -0.339087 -0.940755 826.771 35.9917)" fill="#F45954" fill-opacity="0.2"/>
<ellipse cx="4.29254" cy="4.82911" rx="4.29254" ry="4.82911" transform="matrix(0.940755 -0.339087 -0.339087 -0.940755 840.377 23.1025)" fill="#F45954" fill-opacity="0.2"/>
<ellipse cx="4.29254" cy="4.82911" rx="4.29254" ry="4.82911" transform="matrix(0.940755 -0.339087 -0.339087 -0.940755 817.157 31.4727)" fill="#F45954" fill-opacity="0.2"/>
<ellipse cx="4.29254" cy="4.82911" rx="4.29254" ry="4.82911" transform="matrix(0.940755 -0.339087 -0.339087 -0.940755 835.856 32.7168)" fill="#F45954" fill-opacity="0.2"/>
<path d="M875.658 161.895C883.456 159.051 888.148 153.923 887.625 149.661C887.383 147.684 885.898 144.811 883.238 144.291C880.937 143.816 878.34 145.264 876.882 147.882C875.89 145.03 873.581 143.179 871.233 143.221C868.521 143.277 866.565 145.85 865.989 147.76C864.727 151.901 868.47 157.758 875.658 161.895Z" fill="#F45954" fill-opacity="0.2"/>
<ellipse cx="4.29254" cy="4.82911" rx="4.29254" ry="4.82911" transform="matrix(0.995918 0.0902617 0.0902617 -0.995918 865.853 171.781)" fill="#F45954" fill-opacity="0.2"/>
<ellipse cx="4.29254" cy="4.82911" rx="4.29254" ry="4.82911" transform="matrix(0.995918 0.0902617 0.0902617 -0.995918 883.629 165.851)" fill="#F45954" fill-opacity="0.2"/>
<ellipse cx="4.29254" cy="4.82911" rx="4.29254" ry="4.82911" transform="matrix(0.995918 0.0902617 0.0902617 -0.995918 859.049 163.623)" fill="#F45954" fill-opacity="0.2"/>
<ellipse cx="4.29254" cy="4.82911" rx="4.29254" ry="4.82911" transform="matrix(0.995918 0.0902617 0.0902617 -0.995918 875.47 172.654)" fill="#F45954" fill-opacity="0.2"/>
<path d="M880.809 65.2723C887.261 60.0505 890.034 53.6763 888.154 49.8159C887.284 48.0237 884.946 45.7889 882.262 46.1613C879.931 46.4592 877.945 48.6719 877.416 51.6215C875.552 49.2463 872.767 48.2456 870.56 49.0479C868.013 49.9822 866.999 53.0507 867.074 55.0439C867.225 59.3705 872.667 63.6946 880.809 65.2723Z" fill="#F45954" fill-opacity="0.2"/>
<ellipse cx="4.29254" cy="4.82911" rx="4.29254" ry="4.82911" transform="matrix(0.971247 -0.238073 -0.238073 -0.971247 874.744 77.8081)" fill="#F45954" fill-opacity="0.2"/>
<ellipse cx="4.29254" cy="4.82911" rx="4.29254" ry="4.82911" transform="matrix(0.971247 -0.238073 -0.238073 -0.971247 889.632 66.4243)" fill="#F45954" fill-opacity="0.2"/>
<ellipse cx="4.29254" cy="4.82911" rx="4.29254" ry="4.82911" transform="matrix(0.971247 -0.238073 -0.238073 -0.971247 865.66 72.3008)" fill="#F45954" fill-opacity="0.2"/>
<ellipse cx="4.29254" cy="4.82911" rx="4.29254" ry="4.82911" transform="matrix(0.971247 -0.238073 -0.238073 -0.971247 884.124 75.5088)" fill="#F45954" fill-opacity="0.2"/>
<path d="M836.27 110.806C844.428 109.281 849.9 104.993 850.082 100.704C850.169 98.7132 849.176 95.6356 846.637 94.6862C844.445 93.8394 841.646 94.8413 839.778 97.1842C839.268 94.2083 837.294 92.0033 834.971 91.6592C832.286 91.2695 829.935 93.4863 829.053 95.2753C827.128 99.153 829.858 105.545 836.27 110.806Z" fill="#F45954" fill-opacity="0.2"/>
<ellipse cx="4.29254" cy="4.82911" rx="4.29254" ry="4.82911" transform="matrix(0.967579 0.252568 0.252568 -0.967579 824.973 118.948)" fill="#F45954" fill-opacity="0.2"/>
<ellipse cx="4.29254" cy="4.82911" rx="4.29254" ry="4.82911" transform="matrix(0.967579 0.252568 0.252568 -0.967579 843.482 116.016)" fill="#F45954" fill-opacity="0.2"/>
<ellipse cx="4.29254" cy="4.82911" rx="4.29254" ry="4.82911" transform="matrix(0.967579 0.252568 0.252568 -0.967579 819.602 109.783)" fill="#F45954" fill-opacity="0.2"/>
<ellipse cx="4.29254" cy="4.82911" rx="4.29254" ry="4.82911" transform="matrix(0.967579 0.252568 0.252568 -0.967579 834.317 121.387)" fill="#F45954" fill-opacity="0.2"/>
<path d="M921.359 22.8876C927.224 17.015 929.31 10.3841 927.034 6.74323C925.98 5.05274 923.42 3.07666 920.789 3.72992C918.503 4.27174 916.761 6.68135 916.546 9.67033C914.442 7.50474 911.567 6.80301 909.457 7.83349C907.022 9.03095 906.337 12.1892 906.622 14.1634C907.228 18.45 913.096 22.1765 921.359 22.8876Z" fill="#F45954" fill-opacity="0.2"/>
<ellipse cx="4.29254" cy="4.82911" rx="4.29254" ry="4.82911" transform="matrix(0.940755 -0.339087 -0.339087 -0.940755 916.649 35.9917)" fill="#F45954" fill-opacity="0.2"/>
<ellipse cx="4.29254" cy="4.82911" rx="4.29254" ry="4.82911" transform="matrix(0.940755 -0.339087 -0.339087 -0.940755 930.256 23.1025)" fill="#F45954" fill-opacity="0.2"/>
<ellipse cx="4.29254" cy="4.82911" rx="4.29254" ry="4.82911" transform="matrix(0.940755 -0.339087 -0.339087 -0.940755 907.036 31.4727)" fill="#F45954" fill-opacity="0.2"/>
<ellipse cx="4.29254" cy="4.82911" rx="4.29254" ry="4.82911" transform="matrix(0.940755 -0.339087 -0.339087 -0.940755 925.734 32.7168)" fill="#F45954" fill-opacity="0.2"/>
<path d="M965.535 161.895C973.333 159.052 978.025 153.923 977.502 149.662C977.26 147.684 975.775 144.811 973.115 144.292C970.814 143.816 968.217 145.264 966.759 147.882C965.767 145.03 963.458 143.179 961.11 143.221C958.398 143.278 956.442 145.851 955.866 147.76C954.604 151.901 958.347 157.759 965.535 161.895Z" fill="#F45954" fill-opacity="0.2"/>
<ellipse cx="4.29254" cy="4.82911" rx="4.29254" ry="4.82911" transform="matrix(0.995918 0.0902617 0.0902617 -0.995918 955.729 171.781)" fill="#F45954" fill-opacity="0.2"/>
<ellipse cx="4.29254" cy="4.82911" rx="4.29254" ry="4.82911" transform="matrix(0.995918 0.0902617 0.0902617 -0.995918 973.506 165.85)" fill="#F45954" fill-opacity="0.2"/>
<ellipse cx="4.29254" cy="4.82911" rx="4.29254" ry="4.82911" transform="matrix(0.995918 0.0902617 0.0902617 -0.995918 948.926 163.622)" fill="#F45954" fill-opacity="0.2"/>
<ellipse cx="4.29254" cy="4.82911" rx="4.29254" ry="4.82911" transform="matrix(0.995918 0.0902617 0.0902617 -0.995918 965.348 172.653)" fill="#F45954" fill-opacity="0.2"/>
<path d="M970.688 65.2728C977.14 60.051 979.913 53.6768 978.033 49.8164C977.163 48.0242 974.825 45.7894 972.141 46.1618C969.81 46.4597 967.824 48.6724 967.295 51.622C965.431 49.2468 962.646 48.2461 960.439 49.0484C957.892 49.9827 956.878 53.0512 956.953 55.0444C957.104 59.371 962.546 63.695 970.688 65.2728Z" fill="#F45954" fill-opacity="0.2"/>
<ellipse cx="4.29254" cy="4.82911" rx="4.29254" ry="4.82911" transform="matrix(0.971247 -0.238073 -0.238073 -0.971247 964.623 77.8081)" fill="#F45954" fill-opacity="0.2"/>
<ellipse cx="4.29254" cy="4.82911" rx="4.29254" ry="4.82911" transform="matrix(0.971247 -0.238073 -0.238073 -0.971247 979.511 66.4248)" fill="#F45954" fill-opacity="0.2"/>
<ellipse cx="4.29254" cy="4.82911" rx="4.29254" ry="4.82911" transform="matrix(0.971247 -0.238073 -0.238073 -0.971247 955.539 72.3008)" fill="#F45954" fill-opacity="0.2"/>
<ellipse cx="4.29254" cy="4.82911" rx="4.29254" ry="4.82911" transform="matrix(0.971247 -0.238073 -0.238073 -0.971247 974.003 75.5093)" fill="#F45954" fill-opacity="0.2"/>
<path d="M926.148 110.806C934.306 109.282 939.777 104.994 939.96 100.704C940.047 98.7137 939.054 95.6361 936.515 94.6866C934.323 93.8399 931.524 94.8418 929.656 97.1847C929.146 94.2088 927.172 92.0038 924.849 91.6597C922.164 91.27 919.813 93.4868 918.931 95.2758C917.005 99.1534 919.736 105.546 926.148 110.806Z" fill="#F45954" fill-opacity="0.2"/>
<ellipse cx="4.29254" cy="4.82911" rx="4.29254" ry="4.82911" transform="matrix(0.967579 0.252568 0.252568 -0.967579 914.851 118.948)" fill="#F45954" fill-opacity="0.2"/>
<ellipse cx="4.29254" cy="4.82911" rx="4.29254" ry="4.82911" transform="matrix(0.967579 0.252568 0.252568 -0.967579 933.36 116.017)" fill="#F45954" fill-opacity="0.2"/>
<ellipse cx="4.29254" cy="4.82911" rx="4.29254" ry="4.82911" transform="matrix(0.967579 0.252568 0.252568 -0.967579 909.479 109.783)" fill="#F45954" fill-opacity="0.2"/>
<ellipse cx="4.29254" cy="4.82911" rx="4.29254" ry="4.82911" transform="matrix(0.967579 0.252568 0.252568 -0.967579 924.195 121.387)" fill="#F45954" fill-opacity="0.2"/>
<path d="M741.6 22.8876C747.465 17.015 749.551 10.3841 747.275 6.74323C746.221 5.05274 743.661 3.07666 741.03 3.72992C738.744 4.27174 737.002 6.68135 736.787 9.67033C734.683 7.50474 731.808 6.80301 729.698 7.83349C727.263 9.03095 726.578 12.1892 726.863 14.1634C727.469 18.45 733.337 22.1765 741.6 22.8876Z" fill="#F45954" fill-opacity="0.2"/>
<ellipse cx="4.29254" cy="4.82911" rx="4.29254" ry="4.82911" transform="matrix(0.940755 -0.339087 -0.339087 -0.940755 736.891 35.9917)" fill="#F45954" fill-opacity="0.2"/>
<ellipse cx="4.29254" cy="4.82911" rx="4.29254" ry="4.82911" transform="matrix(0.940755 -0.339087 -0.339087 -0.940755 750.497 23.1025)" fill="#F45954" fill-opacity="0.2"/>
<ellipse cx="4.29254" cy="4.82911" rx="4.29254" ry="4.82911" transform="matrix(0.940755 -0.339087 -0.339087 -0.940755 727.277 31.4727)" fill="#F45954" fill-opacity="0.2"/>
<ellipse cx="4.29254" cy="4.82911" rx="4.29254" ry="4.82911" transform="matrix(0.940755 -0.339087 -0.339087 -0.940755 745.977 32.7168)" fill="#F45954" fill-opacity="0.2"/>
<path d="M785.776 161.894C793.574 159.051 798.267 153.923 797.743 149.661C797.502 147.683 796.017 144.81 793.356 144.291C791.055 143.816 788.459 145.263 787 147.881C786.009 145.03 783.699 143.178 781.351 143.221C778.639 143.277 776.683 145.85 776.107 147.759C774.845 151.9 778.588 157.758 785.776 161.894Z" fill="#F45954" fill-opacity="0.2"/>
<ellipse cx="4.29254" cy="4.82911" rx="4.29254" ry="4.82911" transform="matrix(0.995918 0.0902617 0.0902617 -0.995918 775.971 171.781)" fill="#F45954" fill-opacity="0.2"/>
<ellipse cx="4.29254" cy="4.82911" rx="4.29254" ry="4.82911" transform="matrix(0.995918 0.0902617 0.0902617 -0.995918 793.747 165.85)" fill="#F45954" fill-opacity="0.2"/>
<ellipse cx="4.29254" cy="4.82911" rx="4.29254" ry="4.82911" transform="matrix(0.995918 0.0902617 0.0902617 -0.995918 769.167 163.622)" fill="#F45954" fill-opacity="0.2"/>
<ellipse cx="4.29254" cy="4.82911" rx="4.29254" ry="4.82911" transform="matrix(0.995918 0.0902617 0.0902617 -0.995918 785.588 172.653)" fill="#F45954" fill-opacity="0.2"/>
<path d="M790.927 65.2718C797.379 60.05 800.152 53.6758 798.272 49.8154C797.402 48.0232 795.065 45.7884 792.38 46.1608C790.049 46.4587 788.063 48.6714 787.534 51.6211C785.67 49.2459 782.885 48.2451 780.678 49.0475C778.131 49.9817 777.117 53.0502 777.192 55.0434C777.343 59.37 782.786 63.6941 790.927 65.2718Z" fill="#F45954" fill-opacity="0.2"/>
<ellipse cx="4.29254" cy="4.82911" rx="4.29254" ry="4.82911" transform="matrix(0.971247 -0.238073 -0.238073 -0.971247 784.863 77.8076)" fill="#F45954" fill-opacity="0.2"/>
<ellipse cx="4.29254" cy="4.82911" rx="4.29254" ry="4.82911" transform="matrix(0.971247 -0.238073 -0.238073 -0.971247 799.751 66.4238)" fill="#F45954" fill-opacity="0.2"/>
<ellipse cx="4.29254" cy="4.82911" rx="4.29254" ry="4.82911" transform="matrix(0.971247 -0.238073 -0.238073 -0.971247 775.778 72.3003)" fill="#F45954" fill-opacity="0.2"/>
<ellipse cx="4.29254" cy="4.82911" rx="4.29254" ry="4.82911" transform="matrix(0.971247 -0.238073 -0.238073 -0.971247 794.243 75.5083)" fill="#F45954" fill-opacity="0.2"/>
<path d="M746.39 110.807C754.549 109.282 760.02 104.994 760.203 100.705C760.289 98.7142 759.296 95.6365 756.758 94.6871C754.566 93.8404 751.766 94.8423 749.898 97.1852C749.388 94.2093 747.414 92.0043 745.091 91.6601C742.406 91.2704 740.055 93.4873 739.173 95.2763C737.248 99.1539 739.978 105.546 746.39 110.807Z" fill="#F45954" fill-opacity="0.2"/>
<ellipse cx="4.29254" cy="4.82911" rx="4.29254" ry="4.82911" transform="matrix(0.967579 0.252568 0.252568 -0.967579 735.093 118.949)" fill="#F45954" fill-opacity="0.2"/>
<ellipse cx="4.29254" cy="4.82911" rx="4.29254" ry="4.82911" transform="matrix(0.967579 0.252568 0.252568 -0.967579 753.603 116.017)" fill="#F45954" fill-opacity="0.2"/>
<ellipse cx="4.29254" cy="4.82911" rx="4.29254" ry="4.82911" transform="matrix(0.967579 0.252568 0.252568 -0.967579 729.722 109.784)" fill="#F45954" fill-opacity="0.2"/>
<ellipse cx="4.29254" cy="4.82911" rx="4.29254" ry="4.82911" transform="matrix(0.967579 0.252568 0.252568 -0.967579 744.438 121.388)" fill="#F45954" fill-opacity="0.2"/>
<path d="M1371.72 22.8871C1377.58 17.0145 1379.67 10.3836 1377.39 6.74274C1376.34 5.05225 1373.78 3.07617 1371.15 3.72943C1368.86 4.27125 1367.12 6.68086 1366.91 9.66984C1364.8 7.50426 1361.93 6.80252 1359.82 7.83301C1357.38 9.03046 1356.7 12.1887 1356.98 14.1629C1357.59 18.4495 1363.46 22.176 1371.72 22.8871Z" fill="#F45954" fill-opacity="0.2"/>
<ellipse cx="4.29254" cy="4.82911" rx="4.29254" ry="4.82911" transform="matrix(0.940755 -0.339087 -0.339087 -0.940755 1367.01 35.9912)" fill="#F45954" fill-opacity="0.2"/>
<ellipse cx="4.29254" cy="4.82911" rx="4.29254" ry="4.82911" transform="matrix(0.940755 -0.339087 -0.339087 -0.940755 1380.62 23.1021)" fill="#F45954" fill-opacity="0.2"/>
<ellipse cx="4.29254" cy="4.82911" rx="4.29254" ry="4.82911" transform="matrix(0.940755 -0.339087 -0.339087 -0.940755 1357.4 31.4722)" fill="#F45954" fill-opacity="0.2"/>
<ellipse cx="4.29254" cy="4.82911" rx="4.29254" ry="4.82911" transform="matrix(0.940755 -0.339087 -0.339087 -0.940755 1376.09 32.7163)" fill="#F45954" fill-opacity="0.2"/>
<path d="M1415.89 161.895C1423.69 159.051 1428.38 153.923 1427.86 149.661C1427.62 147.684 1426.13 144.811 1423.47 144.291C1421.17 143.816 1418.58 145.264 1417.12 147.882C1416.13 145.03 1413.82 143.179 1411.47 143.221C1408.76 143.277 1406.8 145.85 1406.23 147.76C1404.96 151.901 1408.71 157.758 1415.89 161.895Z" fill="#F45954" fill-opacity="0.2"/>
<ellipse cx="4.29254" cy="4.82911" rx="4.29254" ry="4.82911" transform="matrix(0.995918 0.0902617 0.0902617 -0.995918 1406.09 171.781)" fill="#F45954" fill-opacity="0.2"/>
<ellipse cx="4.29254" cy="4.82911" rx="4.29254" ry="4.82911" transform="matrix(0.995918 0.0902617 0.0902617 -0.995918 1423.87 165.85)" fill="#F45954" fill-opacity="0.2"/>
<ellipse cx="4.29254" cy="4.82911" rx="4.29254" ry="4.82911" transform="matrix(0.995918 0.0902617 0.0902617 -0.995918 1399.29 163.622)" fill="#F45954" fill-opacity="0.2"/>
<ellipse cx="4.29254" cy="4.82911" rx="4.29254" ry="4.82911" transform="matrix(0.995918 0.0902617 0.0902617 -0.995918 1415.71 172.653)" fill="#F45954" fill-opacity="0.2"/>
<path d="M1421.05 65.2723C1427.5 60.0505 1430.27 53.6763 1428.39 49.8159C1427.52 48.0237 1425.18 45.7889 1422.5 46.1613C1420.17 46.4592 1418.18 48.6719 1417.65 51.6215C1415.79 49.2463 1413.01 48.2456 1410.8 49.0479C1408.25 49.9822 1407.24 53.0507 1407.31 55.0439C1407.46 59.3705 1412.91 63.6946 1421.05 65.2723Z" fill="#F45954" fill-opacity="0.2"/>
<ellipse cx="4.29254" cy="4.82911" rx="4.29254" ry="4.82911" transform="matrix(0.971247 -0.238073 -0.238073 -0.971247 1414.98 77.8076)" fill="#F45954" fill-opacity="0.2"/>
<ellipse cx="4.29254" cy="4.82911" rx="4.29254" ry="4.82911" transform="matrix(0.971247 -0.238073 -0.238073 -0.971247 1429.87 66.4243)" fill="#F45954" fill-opacity="0.2"/>
<ellipse cx="4.29254" cy="4.82911" rx="4.29254" ry="4.82911" transform="matrix(0.971247 -0.238073 -0.238073 -0.971247 1405.9 72.3003)" fill="#F45954" fill-opacity="0.2"/>
<ellipse cx="4.29254" cy="4.82911" rx="4.29254" ry="4.82911" transform="matrix(0.971247 -0.238073 -0.238073 -0.971247 1424.36 75.5088)" fill="#F45954" fill-opacity="0.2"/>
<path d="M1376.51 110.806C1384.67 109.282 1390.14 104.994 1390.32 100.704C1390.41 98.7137 1389.41 95.6361 1386.87 94.6866C1384.68 93.8399 1381.88 94.8418 1380.02 97.1847C1379.51 94.2088 1377.53 92.0038 1375.21 91.6597C1372.52 91.27 1370.17 93.4868 1369.29 95.2758C1367.36 99.1534 1370.1 105.546 1376.51 110.806Z" fill="#F45954" fill-opacity="0.2"/>
<ellipse cx="4.29254" cy="4.82911" rx="4.29254" ry="4.82911" transform="matrix(0.967579 0.252568 0.252568 -0.967579 1365.21 118.948)" fill="#F45954" fill-opacity="0.2"/>
<ellipse cx="4.29254" cy="4.82911" rx="4.29254" ry="4.82911" transform="matrix(0.967579 0.252568 0.252568 -0.967579 1383.72 116.017)" fill="#F45954" fill-opacity="0.2"/>
<ellipse cx="4.29254" cy="4.82911" rx="4.29254" ry="4.82911" transform="matrix(0.967579 0.252568 0.252568 -0.967579 1359.84 109.783)" fill="#F45954" fill-opacity="0.2"/>
<ellipse cx="4.29254" cy="4.82911" rx="4.29254" ry="4.82911" transform="matrix(0.967579 0.252568 0.252568 -0.967579 1374.55 121.387)" fill="#F45954" fill-opacity="0.2"/>
<path d="M1191.96 22.8876C1197.82 17.015 1199.91 10.3841 1197.63 6.74323C1196.58 5.05274 1194.02 3.07666 1191.39 3.72992C1189.1 4.27174 1187.36 6.68135 1187.15 9.67033C1185.04 7.50474 1182.17 6.80301 1180.06 7.83349C1177.62 9.03095 1176.94 12.1892 1177.22 14.1634C1177.83 18.45 1183.7 22.1765 1191.96 22.8876Z" fill="#F45954" fill-opacity="0.2"/>
<ellipse cx="4.29254" cy="4.82911" rx="4.29254" ry="4.82911" transform="matrix(0.940755 -0.339087 -0.339087 -0.940755 1187.25 35.9917)" fill="#F45954" fill-opacity="0.2"/>
<ellipse cx="4.29254" cy="4.82911" rx="4.29254" ry="4.82911" transform="matrix(0.940755 -0.339087 -0.339087 -0.940755 1200.86 23.103)" fill="#F45954" fill-opacity="0.2"/>
<ellipse cx="4.29254" cy="4.82911" rx="4.29254" ry="4.82911" transform="matrix(0.940755 -0.339087 -0.339087 -0.940755 1177.64 31.4727)" fill="#F45954" fill-opacity="0.2"/>
<ellipse cx="4.29254" cy="4.82911" rx="4.29254" ry="4.82911" transform="matrix(0.940755 -0.339087 -0.339087 -0.940755 1196.34 32.7173)" fill="#F45954" fill-opacity="0.2"/>
<path d="M1236.14 161.894C1243.94 159.051 1248.63 153.923 1248.11 149.661C1247.86 147.683 1246.38 144.81 1243.72 144.291C1241.42 143.816 1238.82 145.263 1237.36 147.881C1236.37 145.03 1234.06 143.178 1231.71 143.221C1229 143.277 1227.05 145.85 1226.47 147.759C1225.21 151.9 1228.95 157.758 1236.14 161.894Z" fill="#F45954" fill-opacity="0.2"/>
<ellipse cx="4.29254" cy="4.82911" rx="4.29254" ry="4.82911" transform="matrix(0.995918 0.0902617 0.0902617 -0.995918 1226.33 171.781)" fill="#F45954" fill-opacity="0.2"/>
<ellipse cx="4.29254" cy="4.82911" rx="4.29254" ry="4.82911" transform="matrix(0.995918 0.0902617 0.0902617 -0.995918 1244.11 165.85)" fill="#F45954" fill-opacity="0.2"/>
<ellipse cx="4.29254" cy="4.82911" rx="4.29254" ry="4.82911" transform="matrix(0.995918 0.0902617 0.0902617 -0.995918 1219.53 163.622)" fill="#F45954" fill-opacity="0.2"/>
<ellipse cx="4.29254" cy="4.82911" rx="4.29254" ry="4.82911" transform="matrix(0.995918 0.0902617 0.0902617 -0.995918 1235.95 172.653)" fill="#F45954" fill-opacity="0.2"/>
<path d="M1241.29 65.2728C1247.74 60.051 1250.51 53.6768 1248.63 49.8164C1247.76 48.0242 1245.42 45.7894 1242.74 46.1618C1240.41 46.4597 1238.42 48.6724 1237.89 51.622C1236.03 49.2468 1233.25 48.2461 1231.04 49.0484C1228.49 49.9827 1227.48 53.0512 1227.55 55.0444C1227.7 59.371 1233.15 63.695 1241.29 65.2728Z" fill="#F45954" fill-opacity="0.2"/>
<ellipse cx="4.29254" cy="4.82911" rx="4.29254" ry="4.82911" transform="matrix(0.971247 -0.238073 -0.238073 -0.971247 1235.22 77.8081)" fill="#F45954" fill-opacity="0.2"/>
<ellipse cx="4.29254" cy="4.82911" rx="4.29254" ry="4.82911" transform="matrix(0.971247 -0.238073 -0.238073 -0.971247 1250.11 66.4248)" fill="#F45954" fill-opacity="0.2"/>
<ellipse cx="4.29254" cy="4.82911" rx="4.29254" ry="4.82911" transform="matrix(0.971247 -0.238073 -0.238073 -0.971247 1226.14 72.3008)" fill="#F45954" fill-opacity="0.2"/>
<ellipse cx="4.29254" cy="4.82911" rx="4.29254" ry="4.82911" transform="matrix(0.971247 -0.238073 -0.238073 -0.971247 1244.6 75.5093)" fill="#F45954" fill-opacity="0.2"/>
<path d="M1196.75 110.806C1204.91 109.281 1210.38 104.993 1210.56 100.704C1210.65 98.7132 1209.66 95.6356 1207.12 94.6862C1204.92 93.8394 1202.13 94.8413 1200.26 97.1842C1199.75 94.2083 1197.77 92.0033 1195.45 91.6592C1192.77 91.2695 1190.41 93.4863 1189.53 95.2753C1187.61 99.153 1190.34 105.545 1196.75 110.806Z" fill="#F45954" fill-opacity="0.2"/>
<ellipse cx="4.29254" cy="4.82911" rx="4.29254" ry="4.82911" transform="matrix(0.967579 0.252568 0.252568 -0.967579 1185.45 118.948)" fill="#F45954" fill-opacity="0.2"/>
<ellipse cx="4.29254" cy="4.82911" rx="4.29254" ry="4.82911" transform="matrix(0.967579 0.252568 0.252568 -0.967579 1203.96 116.016)" fill="#F45954" fill-opacity="0.2"/>
<ellipse cx="4.29254" cy="4.82911" rx="4.29254" ry="4.82911" transform="matrix(0.967579 0.252568 0.252568 -0.967579 1180.08 109.783)" fill="#F45954" fill-opacity="0.2"/>
<ellipse cx="4.29254" cy="4.82911" rx="4.29254" ry="4.82911" transform="matrix(0.967579 0.252568 0.252568 -0.967579 1194.8 121.387)" fill="#F45954" fill-opacity="0.2"/>
<path d="M1281.84 22.8871C1287.7 17.0145 1289.79 10.3836 1287.51 6.74274C1286.46 5.05225 1283.9 3.07617 1281.27 3.72943C1278.98 4.27125 1277.24 6.68086 1277.03 9.66984C1274.92 7.50426 1272.05 6.80252 1269.94 7.83301C1267.5 9.03046 1266.82 12.1887 1267.1 14.1629C1267.71 18.4495 1273.58 22.176 1281.84 22.8871Z" fill="#F45954" fill-opacity="0.2"/>
<ellipse cx="4.29254" cy="4.82911" rx="4.29254" ry="4.82911" transform="matrix(0.940755 -0.339087 -0.339087 -0.940755 1277.13 35.9912)" fill="#F45954" fill-opacity="0.2"/>
<ellipse cx="4.29254" cy="4.82911" rx="4.29254" ry="4.82911" transform="matrix(0.940755 -0.339087 -0.339087 -0.940755 1290.74 23.1025)" fill="#F45954" fill-opacity="0.2"/>
<ellipse cx="4.29254" cy="4.82911" rx="4.29254" ry="4.82911" transform="matrix(0.940755 -0.339087 -0.339087 -0.940755 1267.52 31.4722)" fill="#F45954" fill-opacity="0.2"/>
<ellipse cx="4.29254" cy="4.82911" rx="4.29254" ry="4.82911" transform="matrix(0.940755 -0.339087 -0.339087 -0.940755 1286.21 32.7168)" fill="#F45954" fill-opacity="0.2"/>
<path d="M1326.02 161.894C1333.81 159.051 1338.51 153.923 1337.98 149.661C1337.74 147.683 1336.26 144.81 1333.6 144.291C1331.29 143.816 1328.7 145.263 1327.24 147.881C1326.25 145.03 1323.94 143.178 1321.59 143.221C1318.88 143.277 1316.92 145.85 1316.35 147.759C1315.08 151.9 1318.83 157.758 1326.02 161.894Z" fill="#F45954" fill-opacity="0.2"/>
<ellipse cx="4.29254" cy="4.82911" rx="4.29254" ry="4.82911" transform="matrix(0.995918 0.0902617 0.0902617 -0.995918 1316.21 171.781)" fill="#F45954" fill-opacity="0.2"/>
<ellipse cx="4.29254" cy="4.82911" rx="4.29254" ry="4.82911" transform="matrix(0.995918 0.0902617 0.0902617 -0.995918 1333.99 165.85)" fill="#F45954" fill-opacity="0.2"/>
<ellipse cx="4.29254" cy="4.82911" rx="4.29254" ry="4.82911" transform="matrix(0.995918 0.0902617 0.0902617 -0.995918 1309.41 163.622)" fill="#F45954" fill-opacity="0.2"/>
<ellipse cx="4.29254" cy="4.82911" rx="4.29254" ry="4.82911" transform="matrix(0.995918 0.0902617 0.0902617 -0.995918 1325.83 172.653)" fill="#F45954" fill-opacity="0.2"/>
<path d="M1331.17 65.2723C1337.62 60.0505 1340.39 53.6763 1338.51 49.8159C1337.64 48.0237 1335.31 45.7889 1332.62 46.1613C1330.29 46.4592 1328.3 48.6719 1327.78 51.6215C1325.91 49.2463 1323.13 48.2456 1320.92 49.0479C1318.37 49.9822 1317.36 53.0507 1317.43 55.0439C1317.58 59.3705 1323.03 63.6946 1331.17 65.2723Z" fill="#F45954" fill-opacity="0.2"/>
<ellipse cx="4.29254" cy="4.82911" rx="4.29254" ry="4.82911" transform="matrix(0.971247 -0.238073 -0.238073 -0.971247 1325.1 77.8076)" fill="#F45954" fill-opacity="0.2"/>
<ellipse cx="4.29254" cy="4.82911" rx="4.29254" ry="4.82911" transform="matrix(0.971247 -0.238073 -0.238073 -0.971247 1339.99 66.4243)" fill="#F45954" fill-opacity="0.2"/>
<ellipse cx="4.29254" cy="4.82911" rx="4.29254" ry="4.82911" transform="matrix(0.971247 -0.238073 -0.238073 -0.971247 1316.02 72.3003)" fill="#F45954" fill-opacity="0.2"/>
<ellipse cx="4.29254" cy="4.82911" rx="4.29254" ry="4.82911" transform="matrix(0.971247 -0.238073 -0.238073 -0.971247 1334.48 75.5088)" fill="#F45954" fill-opacity="0.2"/>
<path d="M1286.63 110.806C1294.79 109.281 1300.26 104.993 1300.44 100.704C1300.53 98.7132 1299.53 95.6356 1297 94.6862C1294.8 93.8394 1292 94.8413 1290.14 97.1842C1289.63 94.2083 1287.65 92.0033 1285.33 91.6592C1282.64 91.2695 1280.29 93.4863 1279.41 95.2753C1277.49 99.153 1280.22 105.545 1286.63 110.806Z" fill="#F45954" fill-opacity="0.2"/>
<ellipse cx="4.29254" cy="4.82911" rx="4.29254" ry="4.82911" transform="matrix(0.967579 0.252568 0.252568 -0.967579 1275.33 118.948)" fill="#F45954" fill-opacity="0.2"/>
<ellipse cx="4.29254" cy="4.82911" rx="4.29254" ry="4.82911" transform="matrix(0.967579 0.252568 0.252568 -0.967579 1293.84 116.016)" fill="#F45954" fill-opacity="0.2"/>
<ellipse cx="4.29254" cy="4.82911" rx="4.29254" ry="4.82911" transform="matrix(0.967579 0.252568 0.252568 -0.967579 1269.96 109.783)" fill="#F45954" fill-opacity="0.2"/>
<ellipse cx="4.29254" cy="4.82911" rx="4.29254" ry="4.82911" transform="matrix(0.967579 0.252568 0.252568 -0.967579 1284.68 121.387)" fill="#F45954" fill-opacity="0.2"/>
<path d="M1102.08 22.8871C1107.94 17.0145 1110.03 10.3836 1107.75 6.74274C1106.7 5.05225 1104.14 3.07617 1101.51 3.72943C1099.22 4.27125 1097.48 6.68086 1097.27 9.66984C1095.16 7.50426 1092.29 6.80252 1090.18 7.83301C1087.74 9.03046 1087.06 12.1887 1087.34 14.1629C1087.95 18.4495 1093.82 22.176 1102.08 22.8871Z" fill="#F45954" fill-opacity="0.2"/>
<ellipse cx="4.29254" cy="4.82911" rx="4.29254" ry="4.82911" transform="matrix(0.940755 -0.339087 -0.339087 -0.940755 1097.37 35.9912)" fill="#F45954" fill-opacity="0.2"/>
<ellipse cx="4.29254" cy="4.82911" rx="4.29254" ry="4.82911" transform="matrix(0.940755 -0.339087 -0.339087 -0.940755 1110.98 23.1025)" fill="#F45954" fill-opacity="0.2"/>
<ellipse cx="4.29254" cy="4.82911" rx="4.29254" ry="4.82911" transform="matrix(0.940755 -0.339087 -0.339087 -0.940755 1087.76 31.4722)" fill="#F45954" fill-opacity="0.2"/>
<ellipse cx="4.29254" cy="4.82911" rx="4.29254" ry="4.82911" transform="matrix(0.940755 -0.339087 -0.339087 -0.940755 1106.46 32.7168)" fill="#F45954" fill-opacity="0.2"/>
<path d="M1146.26 161.894C1154.05 159.051 1158.75 153.923 1158.22 149.661C1157.98 147.683 1156.5 144.81 1153.84 144.291C1151.54 143.816 1148.94 145.263 1147.48 147.881C1146.49 145.03 1144.18 143.178 1141.83 143.221C1139.12 143.277 1137.16 145.85 1136.59 147.759C1135.33 151.9 1139.07 157.758 1146.26 161.894Z" fill="#F45954" fill-opacity="0.2"/>
<ellipse cx="4.29254" cy="4.82911" rx="4.29254" ry="4.82911" transform="matrix(0.995918 0.0902617 0.0902617 -0.995918 1136.45 171.781)" fill="#F45954" fill-opacity="0.2"/>
<ellipse cx="4.29254" cy="4.82911" rx="4.29254" ry="4.82911" transform="matrix(0.995918 0.0902617 0.0902617 -0.995918 1154.23 165.85)" fill="#F45954" fill-opacity="0.2"/>
<ellipse cx="4.29254" cy="4.82911" rx="4.29254" ry="4.82911" transform="matrix(0.995918 0.0902617 0.0902617 -0.995918 1129.65 163.622)" fill="#F45954" fill-opacity="0.2"/>
<ellipse cx="4.29254" cy="4.82911" rx="4.29254" ry="4.82911" transform="matrix(0.995918 0.0902617 0.0902617 -0.995918 1146.07 172.653)" fill="#F45954" fill-opacity="0.2"/>
<path d="M1151.41 65.2723C1157.86 60.0505 1160.63 53.6763 1158.75 49.8159C1157.88 48.0237 1155.55 45.7889 1152.86 46.1613C1150.53 46.4592 1148.54 48.6719 1148.02 51.6215C1146.15 49.2463 1143.37 48.2456 1141.16 49.0479C1138.61 49.9822 1137.6 53.0507 1137.67 55.0439C1137.82 59.3705 1143.27 63.6946 1151.41 65.2723Z" fill="#F45954" fill-opacity="0.2"/>
<ellipse cx="4.29254" cy="4.82911" rx="4.29254" ry="4.82911" transform="matrix(0.971247 -0.238073 -0.238073 -0.971247 1145.34 77.8081)" fill="#F45954" fill-opacity="0.2"/>
<ellipse cx="4.29254" cy="4.82911" rx="4.29254" ry="4.82911" transform="matrix(0.971247 -0.238073 -0.238073 -0.971247 1160.23 66.4248)" fill="#F45954" fill-opacity="0.2"/>
<ellipse cx="4.29254" cy="4.82911" rx="4.29254" ry="4.82911" transform="matrix(0.971247 -0.238073 -0.238073 -0.971247 1136.26 72.3008)" fill="#F45954" fill-opacity="0.2"/>
<ellipse cx="4.29254" cy="4.82911" rx="4.29254" ry="4.82911" transform="matrix(0.971247 -0.238073 -0.238073 -0.971247 1154.72 75.5093)" fill="#F45954" fill-opacity="0.2"/>
<path d="M1106.87 110.806C1115.03 109.281 1120.5 104.993 1120.68 100.704C1120.77 98.7132 1119.77 95.6356 1117.24 94.6862C1115.04 93.8394 1112.24 94.8413 1110.38 97.1842C1109.87 94.2083 1107.89 92.0033 1105.57 91.6592C1102.88 91.2695 1100.53 93.4863 1099.65 95.2753C1097.73 99.153 1100.46 105.545 1106.87 110.806Z" fill="#F45954" fill-opacity="0.2"/>
<ellipse cx="4.29254" cy="4.82911" rx="4.29254" ry="4.82911" transform="matrix(0.967579 0.252568 0.252568 -0.967579 1095.57 118.948)" fill="#F45954" fill-opacity="0.2"/>
<ellipse cx="4.29254" cy="4.82911" rx="4.29254" ry="4.82911" transform="matrix(0.967579 0.252568 0.252568 -0.967579 1114.08 116.016)" fill="#F45954" fill-opacity="0.2"/>
<ellipse cx="4.29254" cy="4.82911" rx="4.29254" ry="4.82911" transform="matrix(0.967579 0.252568 0.252568 -0.967579 1090.2 109.783)" fill="#F45954" fill-opacity="0.2"/>
<ellipse cx="4.29254" cy="4.82911" rx="4.29254" ry="4.82911" transform="matrix(0.967579 0.252568 0.252568 -0.967579 1104.92 121.387)" fill="#F45954" fill-opacity="0.2"/>
</svg>
