<svg width="748" height="363" viewBox="0 0 748 363" fill="none" xmlns="http://www.w3.org/2000/svg">
<path d="M605.943 47.6176C618.146 35.3994 622.486 21.6033 617.751 14.0283C615.557 10.5112 610.231 6.39981 604.758 7.75896C600 8.88625 596.377 13.8996 595.929 20.1183C591.552 15.6127 585.57 14.1527 581.179 16.2967C576.115 18.7881 574.69 25.3589 575.282 29.4664C576.543 38.3849 588.751 46.1381 605.943 47.6176Z" fill="#F45954" fill-opacity="0.2"/>
<ellipse cx="8.93088" cy="10.0472" rx="8.93088" ry="10.0472" transform="matrix(0.940755 -0.339087 -0.339087 -0.940755 596.146 74.8823)" fill="#F45954" fill-opacity="0.2"/>
<ellipse cx="8.93088" cy="10.0472" rx="8.93088" ry="10.0472" transform="matrix(0.940755 -0.339087 -0.339087 -0.940755 624.453 48.0659)" fill="#F45954" fill-opacity="0.2"/>
<ellipse cx="8.93088" cy="10.0472" rx="8.93088" ry="10.0472" transform="matrix(0.940755 -0.339087 -0.339087 -0.940755 576.143 65.48)" fill="#F45954" fill-opacity="0.2"/>
<ellipse cx="8.93088" cy="10.0472" rx="8.93088" ry="10.0472" transform="matrix(0.940755 -0.339087 -0.339087 -0.940755 615.048 68.0688)" fill="#F45954" fill-opacity="0.2"/>
<path d="M697.859 336.831C714.082 330.915 723.846 320.245 722.756 311.379C722.254 307.264 719.165 301.287 713.63 300.206C708.842 299.217 703.44 302.229 700.405 307.676C698.342 301.743 693.538 297.892 688.653 297.979C683.009 298.096 678.941 303.449 677.742 307.422C675.115 316.038 682.903 328.225 697.859 336.831Z" fill="#F45954" fill-opacity="0.2"/>
<ellipse cx="8.93088" cy="10.0472" rx="8.93088" ry="10.0472" transform="matrix(0.995918 0.0902617 0.0902617 -0.995918 677.458 357.399)" fill="#F45954" fill-opacity="0.2"/>
<ellipse cx="8.93088" cy="10.0472" rx="8.93088" ry="10.0472" transform="matrix(0.995918 0.0902617 0.0902617 -0.995918 714.443 345.06)" fill="#F45954" fill-opacity="0.2"/>
<ellipse cx="8.93088" cy="10.0472" rx="8.93088" ry="10.0472" transform="matrix(0.995918 0.0902617 0.0902617 -0.995918 663.303 340.424)" fill="#F45954" fill-opacity="0.2"/>
<ellipse cx="8.93088" cy="10.0472" rx="8.93088" ry="10.0472" transform="matrix(0.995918 0.0902617 0.0902617 -0.995918 697.469 359.214)" fill="#F45954" fill-opacity="0.2"/>
<path d="M708.575 135.802C721.998 124.938 727.767 111.676 723.856 103.644C722.045 99.9156 717.182 95.2659 711.596 96.0408C706.747 96.6606 702.616 101.264 701.515 107.401C697.637 102.459 691.842 100.377 687.25 102.047C681.951 103.99 679.841 110.375 679.997 114.522C680.312 123.523 691.635 132.52 708.575 135.802Z" fill="#F45954" fill-opacity="0.2"/>
<ellipse cx="8.93088" cy="10.0472" rx="8.93088" ry="10.0472" transform="matrix(0.971247 -0.238073 -0.238073 -0.971247 695.957 161.883)" fill="#F45954" fill-opacity="0.2"/>
<ellipse cx="8.93088" cy="10.0472" rx="8.93088" ry="10.0472" transform="matrix(0.971247 -0.238073 -0.238073 -0.971247 726.932 138.199)" fill="#F45954" fill-opacity="0.2"/>
<ellipse cx="8.93088" cy="10.0472" rx="8.93088" ry="10.0472" transform="matrix(0.971247 -0.238073 -0.238073 -0.971247 677.057 150.425)" fill="#F45954" fill-opacity="0.2"/>
<ellipse cx="8.93088" cy="10.0472" rx="8.93088" ry="10.0472" transform="matrix(0.971247 -0.238073 -0.238073 -0.971247 715.473 157.1)" fill="#F45954" fill-opacity="0.2"/>
<path d="M615.905 230.538C632.88 227.366 644.263 218.445 644.644 209.52C644.825 205.378 642.758 198.975 637.476 197C632.916 195.238 627.092 197.323 623.205 202.197C622.144 196.006 618.037 191.418 613.204 190.702C607.618 189.891 602.726 194.503 600.89 198.226C596.885 206.293 602.566 219.593 615.905 230.538Z" fill="#F45954" fill-opacity="0.2"/>
<ellipse cx="8.93088" cy="10.0472" rx="8.93088" ry="10.0472" transform="matrix(0.967579 0.252568 0.252568 -0.967579 592.401 247.477)" fill="#F45954" fill-opacity="0.2"/>
<ellipse cx="8.93088" cy="10.0472" rx="8.93088" ry="10.0472" transform="matrix(0.967579 0.252568 0.252568 -0.967579 630.912 241.378)" fill="#F45954" fill-opacity="0.2"/>
<ellipse cx="8.93088" cy="10.0472" rx="8.93088" ry="10.0472" transform="matrix(0.967579 0.252568 0.252568 -0.967579 581.226 228.409)" fill="#F45954" fill-opacity="0.2"/>
<ellipse cx="8.93088" cy="10.0472" rx="8.93088" ry="10.0472" transform="matrix(0.967579 0.252568 0.252568 -0.967579 611.844 252.552)" fill="#F45954" fill-opacity="0.2"/>
<path d="M231.943 47.6176C244.146 35.3994 248.486 21.6033 243.751 14.0283C241.557 10.5112 236.231 6.39981 230.758 7.75896C226 8.88625 222.377 13.8996 221.929 20.1183C217.552 15.6127 211.57 14.1527 207.179 16.2967C202.115 18.7881 200.69 25.3589 201.282 29.4664C202.543 38.3849 214.751 46.1381 231.943 47.6176Z" fill="#F45954" fill-opacity="0.2"/>
<ellipse cx="8.93088" cy="10.0472" rx="8.93088" ry="10.0472" transform="matrix(0.940755 -0.339087 -0.339087 -0.940755 222.146 74.8823)" fill="#F45954" fill-opacity="0.2"/>
<ellipse cx="8.93088" cy="10.0472" rx="8.93088" ry="10.0472" transform="matrix(0.940755 -0.339087 -0.339087 -0.940755 250.453 48.0659)" fill="#F45954" fill-opacity="0.2"/>
<ellipse cx="8.93088" cy="10.0472" rx="8.93088" ry="10.0472" transform="matrix(0.940755 -0.339087 -0.339087 -0.940755 202.143 65.48)" fill="#F45954" fill-opacity="0.2"/>
<ellipse cx="8.93088" cy="10.0472" rx="8.93088" ry="10.0472" transform="matrix(0.940755 -0.339087 -0.339087 -0.940755 241.048 68.0688)" fill="#F45954" fill-opacity="0.2"/>
<path d="M323.859 336.831C340.082 330.915 349.846 320.245 348.756 311.379C348.254 307.264 345.165 301.287 339.63 300.206C334.842 299.217 329.44 302.229 326.405 307.676C324.342 301.743 319.538 297.892 314.653 297.979C309.009 298.096 304.941 303.449 303.742 307.422C301.115 316.038 308.903 328.225 323.859 336.831Z" fill="#F45954" fill-opacity="0.2"/>
<ellipse cx="8.93088" cy="10.0472" rx="8.93088" ry="10.0472" transform="matrix(0.995918 0.0902617 0.0902617 -0.995918 303.458 357.399)" fill="#F45954" fill-opacity="0.2"/>
<ellipse cx="8.93088" cy="10.0472" rx="8.93088" ry="10.0472" transform="matrix(0.995918 0.0902617 0.0902617 -0.995918 340.443 345.06)" fill="#F45954" fill-opacity="0.2"/>
<ellipse cx="8.93088" cy="10.0472" rx="8.93088" ry="10.0472" transform="matrix(0.995918 0.0902617 0.0902617 -0.995918 289.303 340.424)" fill="#F45954" fill-opacity="0.2"/>
<ellipse cx="8.93088" cy="10.0472" rx="8.93088" ry="10.0472" transform="matrix(0.995918 0.0902617 0.0902617 -0.995918 323.469 359.214)" fill="#F45954" fill-opacity="0.2"/>
<path d="M334.575 135.802C347.998 124.938 353.767 111.676 349.856 103.644C348.045 99.9156 343.182 95.2659 337.596 96.0408C332.747 96.6606 328.616 101.264 327.515 107.401C323.637 102.459 317.842 100.377 313.25 102.047C307.951 103.99 305.841 110.375 305.997 114.522C306.312 123.523 317.635 132.52 334.575 135.802Z" fill="#F45954" fill-opacity="0.2"/>
<ellipse cx="8.93088" cy="10.0472" rx="8.93088" ry="10.0472" transform="matrix(0.971247 -0.238073 -0.238073 -0.971247 321.957 161.883)" fill="#F45954" fill-opacity="0.2"/>
<ellipse cx="8.93088" cy="10.0472" rx="8.93088" ry="10.0472" transform="matrix(0.971247 -0.238073 -0.238073 -0.971247 352.932 138.199)" fill="#F45954" fill-opacity="0.2"/>
<ellipse cx="8.93088" cy="10.0472" rx="8.93088" ry="10.0472" transform="matrix(0.971247 -0.238073 -0.238073 -0.971247 303.057 150.425)" fill="#F45954" fill-opacity="0.2"/>
<ellipse cx="8.93088" cy="10.0472" rx="8.93088" ry="10.0472" transform="matrix(0.971247 -0.238073 -0.238073 -0.971247 341.473 157.1)" fill="#F45954" fill-opacity="0.2"/>
<path d="M241.905 230.538C258.88 227.366 270.263 218.445 270.644 209.52C270.825 205.378 268.758 198.975 263.476 197C258.916 195.238 253.092 197.323 249.205 202.197C248.144 196.006 244.037 191.418 239.204 190.702C233.618 189.891 228.726 194.503 226.89 198.226C222.885 206.293 228.566 219.593 241.905 230.538Z" fill="#F45954" fill-opacity="0.2"/>
<ellipse cx="8.93088" cy="10.0472" rx="8.93088" ry="10.0472" transform="matrix(0.967579 0.252568 0.252568 -0.967579 218.401 247.477)" fill="#F45954" fill-opacity="0.2"/>
<ellipse cx="8.93088" cy="10.0472" rx="8.93088" ry="10.0472" transform="matrix(0.967579 0.252568 0.252568 -0.967579 256.912 241.378)" fill="#F45954" fill-opacity="0.2"/>
<ellipse cx="8.93088" cy="10.0472" rx="8.93088" ry="10.0472" transform="matrix(0.967579 0.252568 0.252568 -0.967579 207.226 228.409)" fill="#F45954" fill-opacity="0.2"/>
<ellipse cx="8.93088" cy="10.0472" rx="8.93088" ry="10.0472" transform="matrix(0.967579 0.252568 0.252568 -0.967579 237.844 252.552)" fill="#F45954" fill-opacity="0.2"/>
<path d="M418.943 47.6176C431.146 35.3994 435.486 21.6033 430.751 14.0283C428.557 10.5112 423.231 6.39981 417.758 7.75896C413 8.88625 409.377 13.8996 408.929 20.1183C404.552 15.6127 398.57 14.1527 394.179 16.2967C389.115 18.7881 387.69 25.3589 388.282 29.4664C389.543 38.3849 401.751 46.1381 418.943 47.6176Z" fill="#F45954" fill-opacity="0.2"/>
<ellipse cx="8.93088" cy="10.0472" rx="8.93088" ry="10.0472" transform="matrix(0.940755 -0.339087 -0.339087 -0.940755 409.146 74.8823)" fill="#F45954" fill-opacity="0.2"/>
<ellipse cx="8.93088" cy="10.0472" rx="8.93088" ry="10.0472" transform="matrix(0.940755 -0.339087 -0.339087 -0.940755 437.453 48.0659)" fill="#F45954" fill-opacity="0.2"/>
<ellipse cx="8.93088" cy="10.0472" rx="8.93088" ry="10.0472" transform="matrix(0.940755 -0.339087 -0.339087 -0.940755 389.143 65.48)" fill="#F45954" fill-opacity="0.2"/>
<ellipse cx="8.93088" cy="10.0472" rx="8.93088" ry="10.0472" transform="matrix(0.940755 -0.339087 -0.339087 -0.940755 428.048 68.0688)" fill="#F45954" fill-opacity="0.2"/>
<path d="M510.859 336.831C527.082 330.915 536.846 320.245 535.756 311.379C535.254 307.264 532.165 301.287 526.63 300.206C521.842 299.217 516.44 302.229 513.405 307.676C511.342 301.743 506.538 297.892 501.653 297.979C496.009 298.096 491.941 303.449 490.742 307.422C488.115 316.038 495.903 328.225 510.859 336.831Z" fill="#F45954" fill-opacity="0.2"/>
<ellipse cx="8.93088" cy="10.0472" rx="8.93088" ry="10.0472" transform="matrix(0.995918 0.0902617 0.0902617 -0.995918 490.458 357.399)" fill="#F45954" fill-opacity="0.2"/>
<ellipse cx="8.93088" cy="10.0472" rx="8.93088" ry="10.0472" transform="matrix(0.995918 0.0902617 0.0902617 -0.995918 527.443 345.06)" fill="#F45954" fill-opacity="0.2"/>
<ellipse cx="8.93088" cy="10.0472" rx="8.93088" ry="10.0472" transform="matrix(0.995918 0.0902617 0.0902617 -0.995918 476.303 340.424)" fill="#F45954" fill-opacity="0.2"/>
<ellipse cx="8.93088" cy="10.0472" rx="8.93088" ry="10.0472" transform="matrix(0.995918 0.0902617 0.0902617 -0.995918 510.469 359.214)" fill="#F45954" fill-opacity="0.2"/>
<path d="M521.575 135.802C534.998 124.938 540.767 111.676 536.856 103.644C535.045 99.9156 530.182 95.2659 524.596 96.0408C519.747 96.6606 515.616 101.264 514.515 107.401C510.637 102.459 504.842 100.377 500.25 102.047C494.951 103.99 492.841 110.375 492.997 114.522C493.312 123.523 504.635 132.52 521.575 135.802Z" fill="#F45954" fill-opacity="0.2"/>
<ellipse cx="8.93088" cy="10.0472" rx="8.93088" ry="10.0472" transform="matrix(0.971247 -0.238073 -0.238073 -0.971247 508.957 161.883)" fill="#F45954" fill-opacity="0.2"/>
<ellipse cx="8.93088" cy="10.0472" rx="8.93088" ry="10.0472" transform="matrix(0.971247 -0.238073 -0.238073 -0.971247 539.932 138.199)" fill="#F45954" fill-opacity="0.2"/>
<ellipse cx="8.93088" cy="10.0472" rx="8.93088" ry="10.0472" transform="matrix(0.971247 -0.238073 -0.238073 -0.971247 490.057 150.425)" fill="#F45954" fill-opacity="0.2"/>
<ellipse cx="8.93088" cy="10.0472" rx="8.93088" ry="10.0472" transform="matrix(0.971247 -0.238073 -0.238073 -0.971247 528.473 157.1)" fill="#F45954" fill-opacity="0.2"/>
<path d="M428.905 230.538C445.88 227.366 457.263 218.445 457.644 209.52C457.825 205.378 455.758 198.975 450.476 197C445.916 195.238 440.092 197.323 436.205 202.197C435.144 196.006 431.037 191.418 426.204 190.702C420.618 189.891 415.726 194.503 413.89 198.226C409.885 206.293 415.566 219.593 428.905 230.538Z" fill="#F45954" fill-opacity="0.2"/>
<ellipse cx="8.93088" cy="10.0472" rx="8.93088" ry="10.0472" transform="matrix(0.967579 0.252568 0.252568 -0.967579 405.401 247.477)" fill="#F45954" fill-opacity="0.2"/>
<ellipse cx="8.93088" cy="10.0472" rx="8.93088" ry="10.0472" transform="matrix(0.967579 0.252568 0.252568 -0.967579 443.912 241.378)" fill="#F45954" fill-opacity="0.2"/>
<ellipse cx="8.93088" cy="10.0472" rx="8.93088" ry="10.0472" transform="matrix(0.967579 0.252568 0.252568 -0.967579 394.226 228.409)" fill="#F45954" fill-opacity="0.2"/>
<ellipse cx="8.93088" cy="10.0472" rx="8.93088" ry="10.0472" transform="matrix(0.967579 0.252568 0.252568 -0.967579 424.844 252.552)" fill="#F45954" fill-opacity="0.2"/>
<path d="M44.9425 47.6176C57.1459 35.3994 61.4855 21.6033 56.7507 14.0283C54.5568 10.5112 49.2307 6.39981 43.7577 7.75896C39.0003 8.88625 35.3773 13.8996 34.9291 20.1183C30.552 15.6127 24.5703 14.1527 20.1795 16.2967C15.1146 18.7881 13.6895 25.3589 14.2819 29.4664C15.5428 38.3849 27.7511 46.1381 44.9425 47.6176Z" fill="#F45954" fill-opacity="0.2"/>
<ellipse cx="8.93088" cy="10.0472" rx="8.93088" ry="10.0472" transform="matrix(0.940755 -0.339087 -0.339087 -0.940755 35.1455 74.8823)" fill="#F45954" fill-opacity="0.2"/>
<ellipse cx="8.93088" cy="10.0472" rx="8.93088" ry="10.0472" transform="matrix(0.940755 -0.339087 -0.339087 -0.940755 63.4531 48.0659)" fill="#F45954" fill-opacity="0.2"/>
<ellipse cx="8.93088" cy="10.0472" rx="8.93088" ry="10.0472" transform="matrix(0.940755 -0.339087 -0.339087 -0.940755 15.1426 65.48)" fill="#F45954" fill-opacity="0.2"/>
<ellipse cx="8.93088" cy="10.0472" rx="8.93088" ry="10.0472" transform="matrix(0.940755 -0.339087 -0.339087 -0.940755 54.0479 68.0688)" fill="#F45954" fill-opacity="0.2"/>
<path d="M136.859 336.831C153.082 330.915 162.846 320.245 161.756 311.379C161.254 307.264 158.165 301.287 152.63 300.206C147.842 299.217 142.44 302.229 139.405 307.676C137.342 301.743 132.538 297.892 127.653 297.979C122.009 298.096 117.941 303.449 116.742 307.422C114.115 316.038 121.903 328.225 136.859 336.831Z" fill="#F45954" fill-opacity="0.2"/>
<ellipse cx="8.93088" cy="10.0472" rx="8.93088" ry="10.0472" transform="matrix(0.995918 0.0902617 0.0902617 -0.995918 116.458 357.399)" fill="#F45954" fill-opacity="0.2"/>
<ellipse cx="8.93088" cy="10.0472" rx="8.93088" ry="10.0472" transform="matrix(0.995918 0.0902617 0.0902617 -0.995918 153.443 345.06)" fill="#F45954" fill-opacity="0.2"/>
<ellipse cx="8.93088" cy="10.0472" rx="8.93088" ry="10.0472" transform="matrix(0.995918 0.0902617 0.0902617 -0.995918 102.303 340.424)" fill="#F45954" fill-opacity="0.2"/>
<ellipse cx="8.93088" cy="10.0472" rx="8.93088" ry="10.0472" transform="matrix(0.995918 0.0902617 0.0902617 -0.995918 136.469 359.214)" fill="#F45954" fill-opacity="0.2"/>
<path d="M147.575 135.802C160.998 124.938 166.767 111.676 162.856 103.644C161.045 99.9156 156.182 95.2659 150.596 96.0408C145.747 96.6606 141.616 101.264 140.515 107.401C136.637 102.459 130.842 100.377 126.25 102.047C120.951 103.99 118.841 110.375 118.997 114.522C119.312 123.523 130.635 132.52 147.575 135.802Z" fill="#F45954" fill-opacity="0.2"/>
<ellipse cx="8.93088" cy="10.0472" rx="8.93088" ry="10.0472" transform="matrix(0.971247 -0.238073 -0.238073 -0.971247 134.957 161.883)" fill="#F45954" fill-opacity="0.2"/>
<ellipse cx="8.93088" cy="10.0472" rx="8.93088" ry="10.0472" transform="matrix(0.971247 -0.238073 -0.238073 -0.971247 165.932 138.199)" fill="#F45954" fill-opacity="0.2"/>
<ellipse cx="8.93088" cy="10.0472" rx="8.93088" ry="10.0472" transform="matrix(0.971247 -0.238073 -0.238073 -0.971247 116.057 150.425)" fill="#F45954" fill-opacity="0.2"/>
<ellipse cx="8.93088" cy="10.0472" rx="8.93088" ry="10.0472" transform="matrix(0.971247 -0.238073 -0.238073 -0.971247 154.473 157.1)" fill="#F45954" fill-opacity="0.2"/>
<path d="M54.9055 230.538C71.8804 227.366 83.2633 218.445 83.644 209.52C83.8245 205.378 81.7584 198.975 76.4764 197C71.9157 195.238 66.0921 197.323 62.2046 202.197C61.144 196.006 57.0373 191.418 52.2037 190.702C46.6178 189.891 41.7256 194.503 39.8905 198.226C35.885 206.293 41.5662 219.593 54.9055 230.538Z" fill="#F45954" fill-opacity="0.2"/>
<ellipse cx="8.93088" cy="10.0472" rx="8.93088" ry="10.0472" transform="matrix(0.967579 0.252568 0.252568 -0.967579 31.4014 247.477)" fill="#F45954" fill-opacity="0.2"/>
<ellipse cx="8.93088" cy="10.0472" rx="8.93088" ry="10.0472" transform="matrix(0.967579 0.252568 0.252568 -0.967579 69.9121 241.378)" fill="#F45954" fill-opacity="0.2"/>
<ellipse cx="8.93088" cy="10.0472" rx="8.93088" ry="10.0472" transform="matrix(0.967579 0.252568 0.252568 -0.967579 20.2256 228.409)" fill="#F45954" fill-opacity="0.2"/>
<ellipse cx="8.93088" cy="10.0472" rx="8.93088" ry="10.0472" transform="matrix(0.967579 0.252568 0.252568 -0.967579 50.8438 252.552)" fill="#F45954" fill-opacity="0.2"/>
</svg>
