<svg width="147" height="106" viewBox="0 0 147 106" fill="none" xmlns="http://www.w3.org/2000/svg">
<path d="M93.5078 15.8594C99.6276 19.1146 104.51 21.9792 108.156 24.4531C111.802 26.9271 114.862 30.0521 117.336 33.8281C119.68 37.6042 120.852 42.1615 120.852 47.5C118.898 50.3646 116.62 52.6432 114.016 54.3359C111.281 56.0286 107.961 57.2005 104.055 57.8516C90.3828 60.3255 83.5469 67.6823 83.5469 79.9219C83.5469 87.2135 86.0859 93.2682 91.1641 98.0859C96.2422 102.904 102.818 105.312 110.891 105.312C117.792 105.312 123.911 103.62 129.25 100.234C134.589 96.849 138.755 92.0964 141.75 85.9766C144.615 79.8568 146.047 72.8906 146.047 65.0781C146.047 55.5729 143.964 46.263 139.797 37.1484C135.5 27.9036 129.315 20.026 121.242 13.5156C113.169 7.00521 103.729 2.77344 92.9219 0.820312C89.276 3.8151 86.9323 7.46094 85.8906 11.7578L93.5078 15.8594ZM10.5 15.8594C16.6198 19.1146 21.5026 21.9792 25.1484 24.4531C28.7943 26.9271 31.8542 30.0521 34.3281 33.8281C36.6719 37.6042 37.8438 42.1615 37.8438 47.5C34.1979 53.099 28.599 56.5495 21.0469 57.8516C7.50521 60.3255 0.734375 67.6823 0.734375 79.9219C0.734375 87.2135 3.27344 93.2682 8.35156 98.0859C13.2995 102.904 19.8099 105.312 27.8828 105.312C34.7839 105.312 40.9036 103.62 46.2422 100.234C51.5807 96.849 55.7474 92.0964 58.7422 85.9766C61.6068 79.8568 63.0391 72.8906 63.0391 65.0781C63.0391 55.5729 60.9557 46.263 56.7891 37.1484C52.4922 27.9036 46.3073 20.026 38.2344 13.5156C30.1615 7.00521 20.7214 2.77344 9.91406 0.820312C6.26823 3.8151 3.92448 7.46094 2.88281 11.7578L10.5 15.8594Z" fill="#F45954" fill-opacity="0.25"/>
</svg>
