<svg width="456" height="334" viewBox="0 0 456 334" fill="none" xmlns="http://www.w3.org/2000/svg">
<path d="M238.566 206.941C237.492 206.941 236.567 206.687 235.792 206.18C235.016 205.673 234.42 204.975 234.002 204.085C233.584 203.195 233.376 202.178 233.376 201.035C233.376 199.871 233.589 198.845 234.017 197.955C234.449 197.06 235.051 196.361 235.822 195.859C236.597 195.352 237.502 195.098 238.536 195.098C239.342 195.098 240.067 195.248 240.714 195.546C241.36 195.844 241.889 196.262 242.302 196.799C242.715 197.336 242.971 197.962 243.07 198.678H241.31C241.176 198.156 240.878 197.694 240.415 197.291C239.958 196.883 239.342 196.679 238.566 196.679C237.88 196.679 237.278 196.858 236.761 197.216C236.249 197.569 235.849 198.069 235.561 198.715C235.277 199.357 235.136 200.11 235.136 200.975C235.136 201.86 235.275 202.63 235.553 203.287C235.837 203.943 236.234 204.453 236.746 204.815C237.263 205.178 237.87 205.36 238.566 205.36C239.023 205.36 239.438 205.28 239.811 205.121C240.184 204.962 240.5 204.733 240.758 204.435C241.017 204.137 241.201 203.779 241.31 203.361H243.07C242.971 204.037 242.725 204.646 242.332 205.188C241.944 205.725 241.43 206.153 240.788 206.471C240.152 206.784 239.411 206.941 238.566 206.941ZM250.296 206.941C249.262 206.941 248.355 206.695 247.574 206.203C246.799 205.71 246.192 205.022 245.755 204.137C245.322 203.252 245.106 202.218 245.106 201.035C245.106 199.841 245.322 198.8 245.755 197.91C246.192 197.02 246.799 196.329 247.574 195.837C248.355 195.345 249.262 195.098 250.296 195.098C251.331 195.098 252.235 195.345 253.011 195.837C253.791 196.329 254.398 197.02 254.831 197.91C255.268 198.8 255.487 199.841 255.487 201.035C255.487 202.218 255.268 203.252 254.831 204.137C254.398 205.022 253.791 205.71 253.011 206.203C252.235 206.695 251.331 206.941 250.296 206.941ZM250.296 205.36C251.082 205.36 251.728 205.158 252.235 204.756C252.742 204.353 253.118 203.824 253.361 203.167C253.605 202.511 253.727 201.8 253.727 201.035C253.727 200.269 253.605 199.555 253.361 198.894C253.118 198.233 252.742 197.699 252.235 197.291C251.728 196.883 251.082 196.679 250.296 196.679C249.511 196.679 248.865 196.883 248.358 197.291C247.85 197.699 247.475 198.233 247.231 198.894C246.988 199.555 246.866 200.269 246.866 201.035C246.866 201.8 246.988 202.511 247.231 203.167C247.475 203.824 247.85 204.353 248.358 204.756C248.865 205.158 249.511 205.36 250.296 205.36ZM258.173 206.702V195.248H259.874V196.978H259.993C260.202 196.411 260.58 195.951 261.126 195.598C261.673 195.245 262.29 195.069 262.976 195.069C263.105 195.069 263.267 195.071 263.461 195.076C263.654 195.081 263.801 195.089 263.901 195.098V196.888C263.841 196.873 263.704 196.851 263.49 196.821C263.282 196.786 263.06 196.769 262.827 196.769C262.27 196.769 261.773 196.886 261.335 197.119C260.903 197.348 260.56 197.666 260.306 198.074C260.058 198.477 259.933 198.937 259.933 199.454V206.702H258.173ZM265.987 206.702V195.248H267.687V196.978H267.806C268.015 196.411 268.393 195.951 268.94 195.598C269.487 195.245 270.103 195.069 270.789 195.069C270.919 195.069 271.08 195.071 271.274 195.076C271.468 195.081 271.615 195.089 271.714 195.098V196.888C271.654 196.873 271.518 196.851 271.304 196.821C271.095 196.786 270.874 196.769 270.64 196.769C270.083 196.769 269.586 196.886 269.149 197.119C268.716 197.348 268.373 197.666 268.12 198.074C267.871 198.477 267.747 198.937 267.747 199.454V206.702H265.987ZM278.254 206.941C277.15 206.941 276.198 206.697 275.398 206.21C274.603 205.718 273.989 205.032 273.556 204.152C273.128 203.267 272.915 202.238 272.915 201.064C272.915 199.891 273.128 198.857 273.556 197.962C273.989 197.062 274.59 196.361 275.361 195.859C276.136 195.352 277.041 195.098 278.075 195.098C278.672 195.098 279.261 195.198 279.843 195.397C280.424 195.596 280.954 195.919 281.431 196.366C281.908 196.809 282.289 197.395 282.572 198.126C282.855 198.857 282.997 199.757 282.997 200.826V201.571H274.168V200.05H281.207C281.207 199.404 281.078 198.827 280.82 198.32C280.566 197.813 280.203 197.413 279.731 197.119C279.263 196.826 278.712 196.679 278.075 196.679C277.374 196.679 276.768 196.853 276.256 197.201C275.748 197.544 275.358 197.992 275.085 198.544C274.811 199.096 274.675 199.687 274.675 200.319V201.333C274.675 202.198 274.824 202.931 275.122 203.533C275.425 204.129 275.845 204.584 276.382 204.897C276.919 205.206 277.543 205.36 278.254 205.36C278.717 205.36 279.134 205.295 279.507 205.166C279.885 205.032 280.21 204.833 280.484 204.569C280.757 204.301 280.969 203.968 281.118 203.57L282.818 204.047C282.639 204.624 282.338 205.131 281.916 205.569C281.493 206.001 280.971 206.339 280.35 206.583C279.728 206.821 279.03 206.941 278.254 206.941ZM290.328 206.941C289.294 206.941 288.386 206.695 287.606 206.203C286.83 205.71 286.224 205.022 285.786 204.137C285.354 203.252 285.137 202.218 285.137 201.035C285.137 199.841 285.354 198.8 285.786 197.91C286.224 197.02 286.83 196.329 287.606 195.837C288.386 195.345 289.294 195.098 290.328 195.098C291.362 195.098 292.267 195.345 293.042 195.837C293.823 196.329 294.429 197.02 294.862 197.91C295.299 198.8 295.518 199.841 295.518 201.035C295.518 202.218 295.299 203.252 294.862 204.137C294.429 205.022 293.823 205.71 293.042 206.203C292.267 206.695 291.362 206.941 290.328 206.941ZM290.328 205.36C291.113 205.36 291.759 205.158 292.267 204.756C292.774 204.353 293.149 203.824 293.393 203.167C293.636 202.511 293.758 201.8 293.758 201.035C293.758 200.269 293.636 199.555 293.393 198.894C293.149 198.233 292.774 197.699 292.267 197.291C291.759 196.883 291.113 196.679 290.328 196.679C289.542 196.679 288.896 196.883 288.389 197.291C287.882 197.699 287.506 198.233 287.263 198.894C287.019 199.555 286.897 200.269 286.897 201.035C286.897 201.8 287.019 202.511 287.263 203.167C287.506 203.824 287.882 204.353 288.389 204.756C288.896 205.158 289.542 205.36 290.328 205.36ZM298.443 206.702V191.429H300.203V197.067H300.352C300.482 196.868 300.661 196.615 300.889 196.307C301.123 195.993 301.456 195.715 301.888 195.471C302.326 195.223 302.918 195.098 303.663 195.098C304.628 195.098 305.478 195.34 306.214 195.822C306.95 196.304 307.524 196.988 307.936 197.873C308.349 198.758 308.555 199.802 308.555 201.005C308.555 202.218 308.349 203.269 307.936 204.159C307.524 205.044 306.952 205.73 306.221 206.217C305.49 206.7 304.648 206.941 303.693 206.941C302.957 206.941 302.368 206.819 301.926 206.575C301.483 206.327 301.143 206.046 300.904 205.733C300.665 205.415 300.482 205.151 300.352 204.942H300.143V206.702H298.443ZM300.173 200.975C300.173 201.84 300.3 202.603 300.554 203.264C300.807 203.921 301.178 204.435 301.665 204.808C302.152 205.176 302.749 205.36 303.455 205.36C304.19 205.36 304.804 205.166 305.297 204.778C305.794 204.385 306.167 203.858 306.415 203.197C306.669 202.531 306.795 201.79 306.795 200.975C306.795 200.169 306.671 199.444 306.423 198.797C306.179 198.146 305.809 197.631 305.311 197.254C304.819 196.871 304.2 196.679 303.455 196.679C302.739 196.679 302.137 196.861 301.65 197.224C301.163 197.582 300.795 198.084 300.546 198.73C300.298 199.372 300.173 200.12 300.173 200.975ZM314.618 206.971C313.892 206.971 313.234 206.834 312.642 206.56C312.05 206.282 311.581 205.882 311.233 205.36C310.885 204.833 310.711 204.196 310.711 203.451C310.711 202.794 310.84 202.263 311.098 201.855C311.357 201.442 311.702 201.119 312.135 200.885C312.567 200.652 313.045 200.478 313.567 200.363C314.094 200.244 314.623 200.15 315.155 200.08C315.851 199.991 316.415 199.923 316.848 199.879C317.286 199.829 317.604 199.747 317.803 199.633C318.006 199.518 318.108 199.319 318.108 199.036V198.976C318.108 198.241 317.907 197.669 317.504 197.261C317.107 196.853 316.502 196.65 315.692 196.65C314.852 196.65 314.193 196.834 313.716 197.201C313.239 197.569 312.903 197.962 312.709 198.38L311.039 197.783C311.337 197.087 311.735 196.545 312.232 196.157C312.734 195.765 313.281 195.491 313.873 195.337C314.469 195.178 315.056 195.098 315.632 195.098C316 195.098 316.423 195.143 316.9 195.233C317.382 195.317 317.847 195.494 318.295 195.762C318.747 196.031 319.123 196.436 319.421 196.978C319.719 197.52 319.868 198.245 319.868 199.155V206.702H318.108V205.151H318.019C317.9 205.4 317.701 205.666 317.422 205.949C317.144 206.232 316.773 206.473 316.311 206.672C315.849 206.871 315.284 206.971 314.618 206.971ZM314.887 205.39C315.583 205.39 316.169 205.253 316.647 204.979C317.129 204.706 317.492 204.353 317.735 203.921C317.984 203.488 318.108 203.033 318.108 202.556V200.945C318.034 201.035 317.87 201.117 317.616 201.191C317.368 201.261 317.079 201.323 316.751 201.378C316.428 201.427 316.112 201.472 315.804 201.512C315.501 201.547 315.255 201.576 315.066 201.601C314.608 201.661 314.181 201.758 313.783 201.892C313.39 202.021 313.072 202.218 312.828 202.481C312.59 202.74 312.471 203.093 312.471 203.54C312.471 204.152 312.697 204.614 313.149 204.927C313.607 205.236 314.186 205.39 314.887 205.39ZM327.734 206.941C326.66 206.941 325.735 206.687 324.96 206.18C324.184 205.673 323.588 204.975 323.17 204.085C322.752 203.195 322.544 202.178 322.544 201.035C322.544 199.871 322.757 198.845 323.185 197.955C323.617 197.06 324.219 196.361 324.99 195.859C325.765 195.352 326.67 195.098 327.704 195.098C328.509 195.098 329.235 195.248 329.882 195.546C330.528 195.844 331.057 196.262 331.47 196.799C331.883 197.336 332.139 197.962 332.238 198.678H330.478C330.344 198.156 330.046 197.694 329.583 197.291C329.126 196.883 328.509 196.679 327.734 196.679C327.048 196.679 326.446 196.858 325.929 197.216C325.417 197.569 325.017 198.069 324.729 198.715C324.445 199.357 324.304 200.11 324.304 200.975C324.304 201.86 324.443 202.63 324.721 203.287C325.005 203.943 325.402 204.453 325.914 204.815C326.431 205.178 327.038 205.36 327.734 205.36C328.191 205.36 328.606 205.28 328.979 205.121C329.352 204.962 329.668 204.733 329.926 204.435C330.185 204.137 330.369 203.779 330.478 203.361H332.238C332.139 204.037 331.893 204.646 331.5 205.188C331.112 205.725 330.598 206.153 329.956 206.471C329.32 206.784 328.579 206.941 327.734 206.941ZM338.182 206.971C337.456 206.971 336.797 206.834 336.206 206.56C335.614 206.282 335.144 205.882 334.796 205.36C334.448 204.833 334.274 204.196 334.274 203.451C334.274 202.794 334.403 202.263 334.662 201.855C334.92 201.442 335.266 201.119 335.698 200.885C336.131 200.652 336.608 200.478 337.13 200.363C337.657 200.244 338.187 200.15 338.719 200.08C339.415 199.991 339.979 199.923 340.411 199.879C340.849 199.829 341.167 199.747 341.366 199.633C341.57 199.518 341.672 199.319 341.672 199.036V198.976C341.672 198.241 341.47 197.669 341.068 197.261C340.67 196.853 340.066 196.65 339.256 196.65C338.415 196.65 337.757 196.834 337.279 197.201C336.802 197.569 336.467 197.962 336.273 198.38L334.602 197.783C334.9 197.087 335.298 196.545 335.795 196.157C336.297 195.765 336.844 195.491 337.436 195.337C338.033 195.178 338.619 195.098 339.196 195.098C339.564 195.098 339.986 195.143 340.464 195.233C340.946 195.317 341.411 195.494 341.858 195.762C342.311 196.031 342.686 196.436 342.984 196.978C343.283 197.52 343.432 198.245 343.432 199.155V206.702H341.672V205.151H341.582C341.463 205.4 341.264 205.666 340.986 205.949C340.707 206.232 340.337 206.473 339.875 206.672C339.412 206.871 338.848 206.971 338.182 206.971ZM338.45 205.39C339.146 205.39 339.733 205.253 340.21 204.979C340.692 204.706 341.055 204.353 341.299 203.921C341.547 203.488 341.672 203.033 341.672 202.556V200.945C341.597 201.035 341.433 201.117 341.18 201.191C340.931 201.261 340.643 201.323 340.315 201.378C339.991 201.427 339.676 201.472 339.367 201.512C339.064 201.547 338.818 201.576 338.629 201.601C338.172 201.661 337.744 201.758 337.347 201.892C336.954 202.021 336.636 202.218 336.392 202.481C336.153 202.74 336.034 203.093 336.034 203.54C336.034 204.152 336.26 204.614 336.713 204.927C337.17 205.236 337.749 205.39 338.45 205.39ZM348.404 199.812V206.702H346.644V195.248H348.344V197.037H348.493C348.762 196.456 349.17 195.988 349.716 195.635C350.263 195.277 350.969 195.098 351.834 195.098C352.61 195.098 353.289 195.258 353.87 195.576C354.452 195.889 354.904 196.366 355.227 197.008C355.551 197.644 355.712 198.449 355.712 199.424V206.702H353.952V199.543C353.952 198.643 353.719 197.942 353.251 197.44C352.784 196.933 352.143 196.679 351.327 196.679C350.765 196.679 350.263 196.801 349.821 197.045C349.383 197.288 349.038 197.644 348.784 198.111C348.531 198.579 348.404 199.145 348.404 199.812ZM367.728 210.729C366.207 210.729 364.862 210.52 363.693 210.103C362.525 209.69 361.543 209.081 360.748 208.276C359.952 207.47 359.351 206.483 358.943 205.315C358.535 204.147 358.332 202.809 358.332 201.303C358.332 199.846 358.538 198.544 358.951 197.395C359.368 196.247 359.972 195.272 360.763 194.472C361.558 193.667 362.523 193.053 363.656 192.63C364.795 192.207 366.082 191.996 367.519 191.996C368.916 191.996 370.139 192.225 371.188 192.682C372.242 193.135 373.122 193.749 373.828 194.524C374.539 195.295 375.071 196.162 375.424 197.127C375.782 198.091 375.961 199.086 375.961 200.11C375.961 200.831 375.926 201.562 375.856 202.302C375.787 203.043 375.64 203.724 375.416 204.346C375.193 204.962 374.847 205.459 374.38 205.837C373.918 206.215 373.291 206.404 372.501 206.404C372.153 206.404 371.77 206.349 371.352 206.24C370.935 206.13 370.564 205.949 370.241 205.695C369.918 205.442 369.726 205.101 369.667 204.674H369.577C369.458 204.962 369.274 205.236 369.025 205.494C368.782 205.753 368.461 205.959 368.063 206.113C367.671 206.267 367.191 206.334 366.624 206.314C365.978 206.29 365.409 206.145 364.916 205.882C364.424 205.613 364.012 205.25 363.679 204.793C363.35 204.331 363.102 203.796 362.933 203.19C362.769 202.578 362.687 201.919 362.687 201.214C362.687 200.542 362.786 199.928 362.985 199.372C363.184 198.815 363.46 198.328 363.813 197.91C364.171 197.492 364.588 197.159 365.066 196.911C365.548 196.657 366.067 196.5 366.624 196.441C367.121 196.391 367.574 196.413 367.981 196.508C368.389 196.597 368.725 196.734 368.988 196.918C369.252 197.097 369.418 197.296 369.488 197.515H369.577V196.679H371.158V203.421C371.158 203.839 371.275 204.206 371.509 204.525C371.742 204.843 372.083 205.002 372.53 205.002C373.038 205.002 373.425 204.828 373.694 204.48C373.967 204.132 374.154 203.595 374.253 202.869C374.358 202.143 374.41 201.214 374.41 200.08C374.41 199.414 374.318 198.758 374.134 198.111C373.955 197.46 373.681 196.851 373.313 196.284C372.951 195.717 372.491 195.218 371.934 194.785C371.377 194.353 370.723 194.015 369.973 193.771C369.227 193.522 368.379 193.398 367.43 193.398C366.261 193.398 365.215 193.58 364.29 193.943C363.37 194.301 362.587 194.825 361.941 195.516C361.3 196.202 360.81 197.037 360.472 198.022C360.139 199.001 359.972 200.115 359.972 201.363C359.972 202.63 360.139 203.756 360.472 204.741C360.81 205.725 361.307 206.555 361.963 207.232C362.625 207.908 363.442 208.42 364.417 208.768C365.391 209.121 366.515 209.297 367.788 209.297C368.334 209.297 368.874 209.245 369.406 209.141C369.938 209.036 370.408 208.922 370.815 208.798C371.223 208.673 371.516 208.581 371.695 208.522L372.113 209.894C371.805 210.023 371.402 210.152 370.905 210.282C370.413 210.411 369.886 210.518 369.324 210.602C368.767 210.687 368.235 210.729 367.728 210.729ZM366.863 204.793C367.529 204.793 368.068 204.659 368.481 204.39C368.894 204.122 369.195 203.717 369.383 203.175C369.572 202.633 369.667 201.949 369.667 201.124C369.667 200.289 369.562 199.638 369.354 199.17C369.145 198.703 368.837 198.375 368.429 198.186C368.021 197.997 367.519 197.902 366.922 197.902C366.356 197.902 365.871 198.052 365.468 198.35C365.071 198.643 364.765 199.036 364.551 199.528C364.342 200.015 364.238 200.547 364.238 201.124C364.238 201.76 364.322 202.359 364.491 202.921C364.66 203.478 364.936 203.93 365.319 204.278C365.702 204.622 366.217 204.793 366.863 204.793ZM383.219 211.236C382.369 211.236 381.638 211.127 381.026 210.908C380.415 210.694 379.905 210.411 379.498 210.058C379.095 209.71 378.774 209.337 378.536 208.939L379.938 207.955C380.097 208.164 380.298 208.402 380.542 208.671C380.785 208.944 381.118 209.18 381.541 209.379C381.968 209.583 382.528 209.685 383.219 209.685C384.143 209.685 384.907 209.461 385.508 209.014C386.11 208.566 386.411 207.866 386.411 206.911V204.584H386.261C386.132 204.793 385.948 205.052 385.71 205.36C385.476 205.663 385.138 205.934 384.695 206.173C384.258 206.406 383.666 206.523 382.92 206.523C381.996 206.523 381.165 206.304 380.43 205.867C379.699 205.429 379.12 204.793 378.692 203.958C378.27 203.123 378.058 202.108 378.058 200.915C378.058 199.742 378.265 198.72 378.677 197.85C379.09 196.975 379.664 196.299 380.4 195.822C381.136 195.34 381.986 195.098 382.95 195.098C383.696 195.098 384.288 195.223 384.725 195.471C385.168 195.715 385.506 195.993 385.739 196.307C385.978 196.615 386.162 196.868 386.291 197.067H386.47V195.248H388.17V207.03C388.17 208.015 387.947 208.815 387.499 209.432C387.057 210.053 386.46 210.508 385.71 210.796C384.964 211.09 384.134 211.236 383.219 211.236ZM383.159 204.942C383.865 204.942 384.462 204.781 384.949 204.457C385.436 204.134 385.806 203.669 386.06 203.063C386.314 202.456 386.44 201.731 386.44 200.885C386.44 200.06 386.316 199.332 386.067 198.7C385.819 198.069 385.451 197.574 384.964 197.216C384.477 196.858 383.875 196.679 383.159 196.679C382.413 196.679 381.792 196.868 381.295 197.246C380.803 197.624 380.432 198.131 380.184 198.767C379.94 199.404 379.818 200.11 379.818 200.885C379.818 201.681 379.942 202.384 380.191 202.996C380.445 203.602 380.817 204.08 381.31 204.428C381.807 204.771 382.423 204.942 383.159 204.942ZM391.392 206.702V195.248H393.092V197.037H393.241C393.48 196.426 393.865 195.951 394.397 195.613C394.929 195.27 395.568 195.098 396.314 195.098C397.07 195.098 397.699 195.27 398.201 195.613C398.708 195.951 399.103 196.426 399.386 197.037H399.506C399.799 196.446 400.239 195.976 400.826 195.628C401.412 195.275 402.116 195.098 402.936 195.098C403.96 195.098 404.798 195.419 405.449 196.06C406.1 196.697 406.426 197.689 406.426 199.036V206.702H404.666V199.036C404.666 198.191 404.435 197.587 403.973 197.224C403.51 196.861 402.966 196.679 402.339 196.679C401.534 196.679 400.91 196.923 400.468 197.41C400.025 197.892 399.804 198.504 399.804 199.245V206.702H398.014V198.857C398.014 198.206 397.803 197.681 397.38 197.283C396.958 196.881 396.413 196.679 395.747 196.679C395.29 196.679 394.862 196.801 394.464 197.045C394.072 197.288 393.754 197.627 393.51 198.059C393.271 198.487 393.152 198.981 393.152 199.543V206.702H391.392ZM413.015 206.971C412.289 206.971 411.63 206.834 411.039 206.56C410.447 206.282 409.977 205.882 409.629 205.36C409.281 204.833 409.107 204.196 409.107 203.451C409.107 202.794 409.236 202.263 409.495 201.855C409.753 201.442 410.099 201.119 410.531 200.885C410.964 200.652 411.441 200.478 411.963 200.363C412.49 200.244 413.02 200.15 413.552 200.08C414.248 199.991 414.812 199.923 415.244 199.879C415.682 199.829 416 199.747 416.199 199.633C416.403 199.518 416.505 199.319 416.505 199.036V198.976C416.505 198.241 416.303 197.669 415.901 197.261C415.503 196.853 414.899 196.65 414.089 196.65C413.248 196.65 412.59 196.834 412.112 197.201C411.635 197.569 411.3 197.962 411.106 198.38L409.435 197.783C409.733 197.087 410.131 196.545 410.628 196.157C411.131 195.765 411.677 195.491 412.269 195.337C412.866 195.178 413.452 195.098 414.029 195.098C414.397 195.098 414.819 195.143 415.297 195.233C415.779 195.317 416.244 195.494 416.691 195.762C417.144 196.031 417.519 196.436 417.817 196.978C418.116 197.52 418.265 198.245 418.265 199.155V206.702H416.505V205.151H416.415C416.296 205.4 416.097 205.666 415.819 205.949C415.54 206.232 415.17 206.473 414.708 206.672C414.245 206.871 413.681 206.971 413.015 206.971ZM413.283 205.39C413.979 205.39 414.566 205.253 415.043 204.979C415.525 204.706 415.888 204.353 416.132 203.921C416.381 203.488 416.505 203.033 416.505 202.556V200.945C416.43 201.035 416.266 201.117 416.013 201.191C415.764 201.261 415.476 201.323 415.148 201.378C414.824 201.427 414.509 201.472 414.2 201.512C413.897 201.547 413.651 201.576 413.462 201.601C413.005 201.661 412.577 201.758 412.18 201.892C411.787 202.021 411.469 202.218 411.225 202.481C410.986 202.74 410.867 203.093 410.867 203.54C410.867 204.152 411.093 204.614 411.546 204.927C412.003 205.236 412.582 205.39 413.283 205.39ZM421.477 206.702V195.248H423.237V206.702H421.477ZM422.372 193.339C422.029 193.339 421.733 193.222 421.484 192.988C421.241 192.754 421.119 192.473 421.119 192.145C421.119 191.817 421.241 191.536 421.484 191.303C421.733 191.069 422.029 190.952 422.372 190.952C422.715 190.952 423.008 191.069 423.252 191.303C423.5 191.536 423.625 191.817 423.625 192.145C423.625 192.473 423.5 192.754 423.252 192.988C423.008 193.222 422.715 193.339 422.372 193.339ZM428.22 191.429V206.702H426.46V191.429H428.22ZM432.726 206.821C432.359 206.821 432.043 206.69 431.779 206.426C431.516 206.163 431.384 205.847 431.384 205.479C431.384 205.111 431.516 204.796 431.779 204.532C432.043 204.269 432.359 204.137 432.726 204.137C433.094 204.137 433.41 204.269 433.674 204.532C433.937 204.796 434.069 205.111 434.069 205.479C434.069 205.723 434.007 205.946 433.882 206.15C433.763 206.354 433.601 206.518 433.398 206.642C433.199 206.762 432.975 206.821 432.726 206.821ZM238.566 231.941C237.492 231.941 236.567 231.687 235.792 231.18C235.016 230.673 234.42 229.975 234.002 229.085C233.584 228.195 233.376 227.178 233.376 226.035C233.376 224.871 233.589 223.845 234.017 222.955C234.449 222.06 235.051 221.361 235.822 220.859C236.597 220.352 237.502 220.098 238.536 220.098C239.342 220.098 240.067 220.248 240.714 220.546C241.36 220.844 241.889 221.262 242.302 221.799C242.715 222.336 242.971 222.962 243.07 223.678H241.31C241.176 223.156 240.878 222.694 240.415 222.291C239.958 221.883 239.342 221.679 238.566 221.679C237.88 221.679 237.278 221.858 236.761 222.216C236.249 222.569 235.849 223.069 235.561 223.715C235.277 224.357 235.136 225.11 235.136 225.975C235.136 226.86 235.275 227.63 235.553 228.287C235.837 228.943 236.234 229.453 236.746 229.815C237.263 230.178 237.87 230.36 238.566 230.36C239.023 230.36 239.438 230.28 239.811 230.121C240.184 229.962 240.5 229.733 240.758 229.435C241.017 229.137 241.201 228.779 241.31 228.361H243.07C242.971 229.037 242.725 229.646 242.332 230.188C241.944 230.725 241.43 231.153 240.788 231.471C240.152 231.784 239.411 231.941 238.566 231.941ZM250.296 231.941C249.262 231.941 248.355 231.695 247.574 231.203C246.799 230.71 246.192 230.022 245.755 229.137C245.322 228.252 245.106 227.218 245.106 226.035C245.106 224.841 245.322 223.8 245.755 222.91C246.192 222.02 246.799 221.329 247.574 220.837C248.355 220.345 249.262 220.098 250.296 220.098C251.331 220.098 252.235 220.345 253.011 220.837C253.791 221.329 254.398 222.02 254.831 222.91C255.268 223.8 255.487 224.841 255.487 226.035C255.487 227.218 255.268 228.252 254.831 229.137C254.398 230.022 253.791 230.71 253.011 231.203C252.235 231.695 251.331 231.941 250.296 231.941ZM250.296 230.36C251.082 230.36 251.728 230.158 252.235 229.756C252.742 229.353 253.118 228.824 253.361 228.167C253.605 227.511 253.727 226.8 253.727 226.035C253.727 225.269 253.605 224.555 253.361 223.894C253.118 223.233 252.742 222.699 252.235 222.291C251.728 221.883 251.082 221.679 250.296 221.679C249.511 221.679 248.865 221.883 248.358 222.291C247.85 222.699 247.475 223.233 247.231 223.894C246.988 224.555 246.866 225.269 246.866 226.035C246.866 226.8 246.988 227.511 247.231 228.167C247.475 228.824 247.85 229.353 248.358 229.756C248.865 230.158 249.511 230.36 250.296 230.36ZM258.173 231.702V220.248H259.874V222.037H260.023C260.261 221.426 260.647 220.951 261.179 220.613C261.711 220.27 262.349 220.098 263.095 220.098C263.851 220.098 264.48 220.27 264.982 220.613C265.489 220.951 265.884 221.426 266.168 222.037H266.287C266.58 221.446 267.02 220.976 267.607 220.628C268.194 220.275 268.897 220.098 269.717 220.098C270.741 220.098 271.579 220.419 272.23 221.06C272.882 221.697 273.207 222.689 273.207 224.036V231.702H271.447V224.036C271.447 223.191 271.216 222.587 270.754 222.224C270.292 221.861 269.747 221.679 269.121 221.679C268.315 221.679 267.691 221.923 267.249 222.41C266.806 222.892 266.585 223.504 266.585 224.245V231.702H264.795V223.857C264.795 223.206 264.584 222.681 264.162 222.283C263.739 221.881 263.195 221.679 262.528 221.679C262.071 221.679 261.643 221.801 261.246 222.045C260.853 222.288 260.535 222.627 260.291 223.059C260.053 223.487 259.933 223.981 259.933 224.543V231.702H258.173Z" fill="white"/>
<g filter="url(#filter0_d_1580_5833)">
<path d="M391.94 181.875C391.94 202.21 387.876 221.594 380.512 239.263C373.334 256.506 363.016 272.114 350.276 285.366C323.095 313.648 284.883 331.245 242.57 331.245C160.078 331.245 93.2075 264.368 93.2075 181.875C93.2075 99.3829 160.078 32.5127 242.57 32.5127C325.063 32.5127 391.94 99.3829 391.94 181.875Z" fill="#F35954"/>
</g>
<path d="M130.564 9.59007C119.515 -2.45711 100.795 -3.26325 88.7534 7.7912L9.58586 80.4475C-2.45603 91.502 -3.26181 110.23 7.78778 122.277C18.8374 134.324 37.5568 135.13 49.5987 124.076L57.8056 116.544C66.3857 122.127 78.8155 121 89.3279 113.783C87.2613 113.7 80.4569 113.17 75.4954 107.946C74.1823 106.565 73.1303 104.967 72.3171 103.236L128.766 51.4193C140.808 40.3649 141.614 21.6373 130.564 9.59007Z" fill="#F3A6A3"/>
<g filter="url(#filter1_d_1580_5833)">
<path d="M202.794 106.062C200.567 104.167 197.382 102.135 193.419 101.868C186.638 101.415 180.629 106.365 163.385 130.267C142.776 158.823 142.164 164.48 143.908 168.926C146.444 175.375 153.564 178.294 157.649 179.965C171.427 185.615 184.347 180.246 187.417 178.87C192.54 154.601 197.67 130.332 202.794 106.062Z" fill="#BFAEAE"/>
</g>
<mask id="mask0_1580_5833" style="mask-type:luminance" maskUnits="userSpaceOnUse" x="93" y="32" width="299" height="300">
<path d="M242.577 331.238C325.068 331.238 391.94 264.366 391.94 181.875C391.94 99.3846 325.068 32.5127 242.577 32.5127C160.087 32.5127 93.2148 99.3846 93.2148 181.875C93.2148 264.366 160.087 331.238 242.577 331.238Z" fill="white"/>
</mask>
<g mask="url(#mask0_1580_5833)">
<g filter="url(#filter2_d_1580_5833)">
<path d="M385.382 194.983C383.257 199.285 377.672 200.524 375.554 200.993C361.646 204.077 343.142 194.342 330.892 183.454C335.136 197.426 339.071 212.234 342.515 227.842C348.128 253.321 351.609 277.173 353.677 298.869C354.224 304.641 350.83 310.06 345.404 312.099C321.013 321.258 296.621 330.417 272.229 339.575C266.515 341.715 260.08 339.546 256.838 334.38C243.6 313.303 230.37 292.218 217.133 271.141C214.734 267.322 210.497 265.038 205.986 265.132C193.304 265.398 180.621 265.665 167.932 265.932C164.12 266.011 160.488 264.39 158.009 261.543C157.736 261.248 157.491 260.931 157.253 260.606C157.224 260.563 157.188 260.52 157.159 260.477C154.76 257.155 150.941 255.173 146.948 255.137C146.084 255.123 145.212 255.202 144.34 255.382C143.346 255.584 142.286 255.757 141.177 255.879C140.398 255.959 139.649 256.016 138.921 256.045C134.389 256.233 130.087 253.984 127.651 250.158C125.288 246.433 122.888 242.03 120.784 236.943C117.181 228.231 115.495 220.095 114.753 213.408C114.22 208.559 116.468 203.832 120.575 201.187L180.124 162.866C184.383 160.121 186.717 155.149 185.975 150.141C185.305 145.652 185.111 140.089 186.321 133.906C189.261 118.875 198.737 109.363 203.968 105.068C205.626 103.699 207.586 102.763 209.697 102.359C218.012 100.745 227.517 99.5488 238.023 99.3182C262.732 98.785 283.427 103.822 298.3 109.039C301.643 110.206 304.353 112.699 305.78 115.942C305.981 116.403 306.183 116.864 306.392 117.326C314.138 113.557 327.073 109.154 340.872 113.067C367.397 120.59 376.836 153.095 377.737 156.208C380.396 165.36 378.76 169.006 383.199 181.061C385.152 186.372 387.4 190.904 385.382 194.983Z" fill="#FFDADB"/>
</g>
</g>
<path d="M192.079 165.074C195.999 165.074 199.176 158.167 199.176 149.646C199.176 141.126 195.999 134.219 192.079 134.219C188.159 134.219 184.981 141.126 184.981 149.646C184.981 158.167 188.159 165.074 192.079 165.074Z" fill="#471111"/>
<path d="M245.422 177.98C249.342 177.98 252.52 171.073 252.52 162.553C252.52 154.032 249.342 147.125 245.422 147.125C241.502 147.125 238.325 154.032 238.325 162.553C238.325 171.073 241.502 177.98 245.422 177.98Z" fill="#471111"/>
<path d="M133.625 222.019C145.839 222.019 155.74 218.228 155.74 213.552C155.74 208.876 145.839 205.085 133.625 205.085C121.411 205.085 111.51 208.876 111.51 213.552C111.51 218.228 121.411 222.019 133.625 222.019Z" fill="#471111"/>
<path d="M206.433 247.867C190.299 252.428 174.151 256.982 158.01 261.543C157.736 261.248 157.491 260.931 157.253 260.606C157.224 260.563 157.188 260.52 157.159 260.477C154.76 257.155 150.941 255.173 146.949 255.137C166.894 251.073 186.855 247.016 206.8 242.952C208.523 242.959 209.892 243.831 210.079 244.775C210.295 245.914 208.905 247.694 206.433 247.867Z" fill="#471111"/>
<path d="M299.367 164.192L293.249 163.068C291.246 162.7 289.646 161.158 289.243 159.155C288.306 154.529 287.621 146.487 291.455 137.912C294.474 131.139 299.057 126.851 302.141 124.495C303.273 123.63 304.714 123.299 306.112 123.565C318.203 125.871 330.294 128.177 342.386 130.483C344.317 130.851 345.852 132.313 346.32 134.223C350.24 150.256 355.479 182.207 344.425 219.547C330.482 266.659 299.122 293.638 286.339 303.38C285.395 304.101 284.242 304.461 283.06 304.403C275.501 304.072 263.849 302.494 251.311 296.275C243.781 292.535 237.959 288.125 233.722 284.306C232.713 283.398 232.122 282.123 232.086 280.768C231.971 276.682 232.374 271.033 234.651 264.872C236.748 259.201 241.209 247.153 251.311 245.481C257.912 244.393 263.749 248.255 267.323 251.462C269.484 253.4 272.821 253.155 274.615 250.878C281.035 242.707 288.637 231.098 294.46 215.995C301.63 197.396 303.323 180.693 303.481 169.164C303.518 166.721 301.774 164.617 299.374 164.178L299.367 164.192Z" fill="#471111"/>
<path d="M380.512 239.262C373.335 256.506 363.016 272.114 350.276 285.365C335.677 270.622 321.071 255.879 306.472 241.129C296.138 229.376 295.908 212.946 303.741 203.723C313.346 192.41 335.324 191.653 348.244 207.002C359.002 217.753 369.753 228.504 380.512 239.262Z" fill="#FFDADB"/>
<path d="M299.619 212.075L319.795 227.661" stroke="#BFAEAE" stroke-width="4.38" stroke-linecap="round" stroke-linejoin="round"/>
<path d="M310.596 198.474L330.78 214.06" stroke="#BFAEAE" stroke-width="4.38" stroke-linecap="round" stroke-linejoin="round"/>
<path d="M42.8183 89.6121L42.9313 89.7397C44.1177 91.0924 44.9307 92.2952 45.3704 93.3481C45.8109 94.3875 46.003 95.3752 45.9466 96.3109C45.884 97.2396 45.6939 98.2243 45.3763 99.2651C45.1851 99.8774 45.0765 100.512 45.0504 101.167C45.0314 101.817 45.1268 102.46 45.3367 103.096C45.5473 103.72 45.9039 104.315 46.4064 104.882C47.022 105.576 47.7189 106.034 48.4972 106.255C49.2754 106.476 50.0598 106.483 50.8505 106.276C51.6411 106.069 52.3695 105.67 53.0356 105.08C53.6167 104.565 54.0698 103.948 54.3948 103.23C54.7198 102.511 54.8338 101.733 54.7366 100.896C54.6466 100.052 54.2558 99.1895 53.5642 98.3093L56.2429 95.9349C57.2612 97.1836 57.8633 98.4911 58.0493 99.8574C58.2353 101.224 58.0581 102.551 57.5176 103.84C56.9842 105.123 56.1435 106.273 54.9954 107.291C53.7482 108.396 52.4405 109.112 51.0725 109.439C49.7116 109.76 48.3928 109.714 47.1162 109.301C45.8468 108.883 44.7221 108.121 43.7422 107.015C43.045 106.229 42.5338 105.416 42.2086 104.578C41.8905 103.734 41.7313 102.869 41.7309 101.984C41.7377 101.092 41.8864 100.182 42.1771 99.2535C42.4553 98.311 42.5937 97.4607 42.5924 96.7025C42.5848 95.9374 42.4054 95.1853 42.0541 94.4464C41.7029 93.7074 41.1449 92.8923 40.3802 92.001L40.2671 91.8734L42.8183 89.6121ZM35.8798 84.5253C36.4042 84.0605 37.0206 83.8494 37.7292 83.8921C38.4377 83.9347 39.0243 84.2183 39.4891 84.7427C39.954 85.2671 40.165 85.8836 40.1223 86.5921C40.0797 87.3006 39.7961 87.8872 39.2717 88.352C38.7473 88.8169 38.1309 89.0279 37.4224 88.9853C36.7139 88.9426 36.1272 88.659 35.6624 88.1346C35.3483 87.7803 35.1507 87.386 35.0695 86.9518C34.9891 86.5042 35.0189 86.0666 35.1587 85.639C35.2922 85.2043 35.5325 84.8331 35.8798 84.5253ZM64.8278 88.933C63.7931 89.8501 62.6814 90.4875 61.4926 90.8452C60.2976 91.1958 59.1222 91.2189 57.9666 90.9145C56.8048 90.603 55.7527 89.9158 54.8105 88.8528C53.9814 87.9174 53.4935 86.9958 53.3469 86.0881C53.1941 85.1733 53.2783 84.2761 53.5996 83.3965C53.9209 82.517 54.3814 81.6659 54.981 80.8434C55.5814 80.0075 56.2168 79.2039 56.8871 78.4326C57.7662 77.4256 58.4857 76.617 59.0457 76.0068C59.6065 75.3831 59.9564 74.8642 60.0954 74.45C60.2415 74.0294 60.1355 73.6172 59.7775 73.2133L59.7021 73.1282C58.7725 72.0794 57.7631 71.5189 56.674 71.4465C55.592 71.368 54.4735 71.8406 53.3184 72.8645C52.1207 73.926 51.4142 75.0205 51.1987 76.1479C50.9832 77.2753 51.0011 78.2592 51.2523 79.0994L48.1175 80.3595C47.6633 78.9905 47.5455 77.7156 47.7642 76.5347C47.9838 75.3404 48.4178 74.2597 49.0664 73.2926C49.7158 72.312 50.4515 71.4575 51.2735 70.7288C51.7979 70.264 52.4568 69.7939 53.2502 69.3184C54.0444 68.8296 54.93 68.4939 55.907 68.3112C56.891 68.1223 57.938 68.2256 59.0479 68.6211C60.1577 69.0167 61.2874 69.8629 62.4369 71.1597L71.972 81.9172L69.4634 84.1408L67.5036 81.9298L67.376 82.0428C67.52 82.5479 67.5726 83.1783 67.5338 83.934C67.495 84.6897 67.2717 85.5013 66.8639 86.369C66.4561 87.2366 65.7774 88.0913 64.8278 88.933ZM63.213 86.3402C64.2051 85.4609 64.8686 84.5248 65.2034 83.532C65.5453 82.5329 65.6167 81.5713 65.4174 80.6469C65.2253 79.7163 64.8277 78.9109 64.2247 78.2306L62.1895 75.9345C62.1963 76.1563 62.0661 76.4805 61.7989 76.9072C61.5325 77.3204 61.2 77.7733 60.8014 78.2659C60.4036 78.745 60.0101 79.2077 59.621 79.6538C59.2327 80.0866 58.9196 80.44 58.6817 80.7141C58.1051 81.3771 57.6181 82.0555 57.2208 82.7493C56.8243 83.4298 56.6189 84.1117 56.6045 84.7951C56.591 85.4651 56.8669 86.119 57.4322 86.7568C58.2048 87.6284 59.1114 88.0017 60.152 87.8765C61.1935 87.738 62.2138 87.2259 63.213 86.3402ZM59.7631 53.865L79.0595 75.635L76.5508 77.8586L57.2545 56.0887L59.7631 53.865ZM90.5888 66.0232C89.1148 67.3297 87.5105 68.1252 85.7761 68.4098C84.0487 68.6882 82.3142 68.473 80.5725 67.7644C78.8379 67.0494 77.2231 65.8486 75.7281 64.162C74.2206 62.4613 73.2129 60.7034 72.7051 58.8884C72.2044 57.0671 72.1958 55.3158 72.6795 53.6343C73.1702 51.9466 74.1526 50.4494 75.6266 49.1429C77.1006 47.8364 78.7013 47.044 80.4286 46.7657C82.1631 46.481 83.9008 46.6998 85.6417 47.4218C87.3896 48.1375 89.0174 49.3458 90.5249 51.0466C92.0199 52.7332 93.0146 54.4836 93.5091 56.2977C94.0106 58.1056 94.016 59.8534 93.5253 61.5412C93.0416 63.2226 92.0628 64.7166 90.5888 66.0232ZM88.5913 63.7696C89.711 62.7772 90.3779 61.6736 90.5919 60.4589C90.8059 59.2442 90.672 58.0152 90.1901 56.772C89.7082 55.5288 88.9836 54.3615 88.0163 53.2702C87.0489 52.1788 85.9739 51.3158 84.7913 50.6811C83.6086 50.0463 82.3983 49.7588 81.1604 49.8184C79.9225 49.878 78.7437 50.404 77.6241 51.3965C76.5044 52.3889 75.8407 53.496 75.6329 54.7178C75.4251 55.9396 75.5653 57.1757 76.0535 58.426C76.5417 59.6763 77.2695 60.8471 78.2368 61.9384C79.2041 63.0298 80.276 63.8893 81.4524 64.5169C82.6287 65.1445 83.8327 65.425 85.0644 65.3583C86.296 65.2917 87.4716 64.7621 88.5913 63.7696ZM72.7072 48.1621L70.9291 40.9308L73.8629 38.3304L74.9182 46.2023L72.7072 48.1621ZM99.362 46.7062L99.2489 46.5786C98.0634 45.2125 97.2503 44.0097 96.8098 42.9703C96.3693 41.9308 96.1772 40.9432 96.2336 40.0074C96.29 39.0716 96.4801 38.0869 96.804 37.0532C96.996 36.4275 97.1046 35.7934 97.1299 35.151C97.1489 34.5014 97.0499 33.8615 96.833 33.2313C96.6231 32.5948 96.27 31.9966 95.7738 31.4368C95.1582 30.7423 94.4613 30.2844 93.6831 30.0631C92.9049 29.8418 92.1204 29.8348 91.3298 30.0421C90.5391 30.2494 89.8107 30.6483 89.1446 31.2387C88.5635 31.7538 88.1105 32.3705 87.7854 33.0888C87.4604 33.8071 87.3465 34.5851 87.4436 35.4228C87.5407 36.2605 87.9315 37.1226 88.6161 38.009L85.9373 40.3834C84.9262 39.1284 84.3241 37.8209 84.1309 36.4609C83.9449 35.0947 84.1186 33.7702 84.652 32.4875C85.1925 31.1986 86.0368 30.0453 87.1848 29.0277C88.4321 27.9222 89.7362 27.2092 91.0971 26.8887C92.4651 26.5619 93.7839 26.6078 95.0534 27.0263C96.3299 27.4386 97.4582 28.1975 98.4381 29.3031C99.129 30.0826 99.6335 30.8945 99.9516 31.7388C100.277 32.5767 100.436 33.4416 100.429 34.3334C100.43 35.2189 100.288 36.1294 100.003 37.0648C99.725 38.0073 99.5897 38.8612 99.5973 39.6264C99.5986 40.3845 99.7748 41.133 100.126 41.872C100.477 42.6109 101.035 43.426 101.8 44.3173L101.913 44.4449L99.362 46.7062ZM106.3 51.793C105.776 52.2579 105.16 52.4689 104.451 52.4263C103.743 52.3836 103.156 52.1 102.691 51.5756C102.226 51.0512 102.015 50.4348 102.058 49.7263C102.101 49.0178 102.384 48.4311 102.909 47.9663C103.433 47.5015 104.049 47.2904 104.758 47.3331C105.466 47.3757 106.053 47.6593 106.518 48.1837C106.826 48.5309 107.02 48.9284 107.1 49.3759C107.188 49.8172 107.165 50.2552 107.031 50.6899C106.898 51.1113 106.655 51.479 106.3 51.793Z" fill="#F35954"/>
<defs>
<filter id="filter0_d_1580_5833" x="93.2075" y="24.0127" width="311.232" height="309.732" filterUnits="userSpaceOnUse" color-interpolation-filters="sRGB">
<feFlood flood-opacity="0" result="BackgroundImageFix"/>
<feColorMatrix in="SourceAlpha" type="matrix" values="0 0 0 0 0 0 0 0 0 0 0 0 0 0 0 0 0 0 127 0" result="hardAlpha"/>
<feOffset dx="7" dy="-3"/>
<feGaussianBlur stdDeviation="2.75"/>
<feComposite in2="hardAlpha" operator="out"/>
<feColorMatrix type="matrix" values="0 0 0 0 0.956863 0 0 0 0 0.34902 0 0 0 0 0.329412 0 0 0 0.3 0"/>
<feBlend mode="normal" in2="BackgroundImageFix" result="effect1_dropShadow_1580_5833"/>
<feBlend mode="normal" in="SourceGraphic" in2="effect1_dropShadow_1580_5833" result="shape"/>
</filter>
<filter id="filter1_d_1580_5833" x="139.284" y="101.841" width="67.5098" height="88.6572" filterUnits="userSpaceOnUse" color-interpolation-filters="sRGB">
<feFlood flood-opacity="0" result="BackgroundImageFix"/>
<feColorMatrix in="SourceAlpha" type="matrix" values="0 0 0 0 0 0 0 0 0 0 0 0 0 0 0 0 0 0 127 0" result="hardAlpha"/>
<feOffset dy="4"/>
<feGaussianBlur stdDeviation="2"/>
<feComposite in2="hardAlpha" operator="out"/>
<feColorMatrix type="matrix" values="0 0 0 0 0.278431 0 0 0 0 0.0666667 0 0 0 0 0.0666667 0 0 0 0.2 0"/>
<feBlend mode="normal" in2="BackgroundImageFix" result="effect1_dropShadow_1580_5833"/>
<feBlend mode="normal" in="SourceGraphic" in2="effect1_dropShadow_1580_5833" result="shape"/>
</filter>
<filter id="filter2_d_1580_5833" x="110.175" y="99.2793" width="286.499" height="257.614" filterUnits="userSpaceOnUse" color-interpolation-filters="sRGB">
<feFlood flood-opacity="0" result="BackgroundImageFix"/>
<feColorMatrix in="SourceAlpha" type="matrix" values="0 0 0 0 0 0 0 0 0 0 0 0 0 0 0 0 0 0 127 0" result="hardAlpha"/>
<feOffset dx="3" dy="9"/>
<feGaussianBlur stdDeviation="3.75"/>
<feComposite in2="hardAlpha" operator="out"/>
<feColorMatrix type="matrix" values="0 0 0 0 0.278431 0 0 0 0 0.0666667 0 0 0 0 0.0666667 0 0 0 0.2 0"/>
<feBlend mode="normal" in2="BackgroundImageFix" result="effect1_dropShadow_1580_5833"/>
<feBlend mode="normal" in="SourceGraphic" in2="effect1_dropShadow_1580_5833" result="shape"/>
</filter>
</defs>
</svg>
