<svg width="175" height="173" viewBox="0 0 175 173" fill="none" xmlns="http://www.w3.org/2000/svg">
<path d="M121.9 156.89C114.822 150.862 103.868 154.426 101.699 163.457C98.7357 175.803 81.3333 176.311 77.655 164.159C74.9619 155.269 63.8179 152.35 57.1032 158.776C47.9256 167.562 33.0145 158.595 36.499 146.387C39.0468 137.456 31.254 128.986 22.1249 130.768C9.64845 133.203 1.95668 117.608 11.4977 109.218C18.4788 103.082 16.5085 91.7442 7.8638 88.3172C-3.95043 83.6323 -1.97601 66.3602 10.5933 64.4532C19.7871 63.0582 24.2689 52.4586 18.8503 44.9071C11.4493 34.5858 22.46 21.1237 34.0643 26.3046C42.5555 30.0944 52.0602 23.5952 51.5958 14.3222C50.9579 1.64224 67.5083 -3.73614 74.4693 6.88757C79.5608 14.6608 91.0762 14.3262 95.7034 6.27071C102.03 -4.74005 118.868 -0.333324 118.973 12.3627C119.045 21.6519 128.917 27.5867 137.17 23.3049C148.456 17.4589 160.233 30.2557 153.446 40.9923C148.48 48.8462 153.571 59.1675 162.83 60.0222C175.488 61.1955 178.468 78.3224 166.944 83.6847C158.513 87.6116 157.209 99.0417 164.534 104.763C174.547 112.584 167.78 128.599 155.182 126.893C145.964 125.643 138.676 134.554 141.745 143.323C145.936 155.309 131.57 165.126 121.896 156.894L121.9 156.89Z" fill="#F5A64A"/>
<path d="M89.0529 92.7603H85.4189V112.165H89.0529V92.7603Z" fill="#471111"/>
<g filter="url(#filter0_d_2068_4595)">
<path d="M86.936 76.8422C120.527 76.6255 147.721 70.755 147.676 63.73C147.631 56.7049 120.363 51.1856 86.7715 51.4022C53.1803 51.6188 25.986 57.4894 26.0315 64.5144C26.0769 71.5394 53.3448 77.0588 86.936 76.8422Z" fill="#A33431"/>
<path d="M27.4028 86.1449C27.5159 87.9552 28.6787 89.5276 30.3786 90.1727C43.9977 95.3454 66.9195 101.881 95.4618 100.042C116.575 98.6837 133.618 93.2046 145.279 88.3181C147.023 87.5883 148.133 85.8627 148.097 83.9799C147.964 77.1622 147.83 70.3485 147.701 63.5308C136.028 68.7237 117.29 75.3237 93.4551 76.5332C62.8092 78.0854 38.8496 69.9534 26.0381 64.5226C26.4943 71.7314 26.9466 78.9442 27.4028 86.153V86.1449Z" fill="#F45954"/>
</g>
<g filter="url(#filter1_d_2068_4595)">
<path d="M87.5816 140.086C96.5393 140.086 103.801 132.835 103.801 123.89C103.801 114.945 96.5393 107.694 87.5816 107.694C78.6239 107.694 71.3623 114.945 71.3623 123.89C71.3623 132.835 78.6239 140.086 87.5816 140.086Z" fill="#FFDBDC"/>
</g>
<path d="M77.9366 121.443C78.2516 119.866 79.6203 117.653 81.7926 117.395C83.6742 117.177 85.6728 118.483 86.6944 120.693C87.6594 118.479 89.6338 117.116 91.5194 117.318C93.6957 117.528 95.1129 119.717 95.4601 121.281C96.2152 124.656 92.8437 129.135 86.8034 132.022C80.7065 129.264 77.2462 124.861 77.9366 121.443Z" fill="#F45954"/>
<defs>
<filter id="filter0_d_2068_4595" x="22.0312" y="51.396" width="130.066" height="56.9634" filterUnits="userSpaceOnUse" color-interpolation-filters="sRGB">
<feFlood flood-opacity="0" result="BackgroundImageFix"/>
<feColorMatrix in="SourceAlpha" type="matrix" values="0 0 0 0 0 0 0 0 0 0 0 0 0 0 0 0 0 0 127 0" result="hardAlpha"/>
<feOffset dy="4"/>
<feGaussianBlur stdDeviation="2"/>
<feComposite in2="hardAlpha" operator="out"/>
<feColorMatrix type="matrix" values="0 0 0 0 0.8 0 0 0 0 0.239216 0 0 0 0 0.239216 0 0 0 0.2 0"/>
<feBlend mode="normal" in2="BackgroundImageFix" result="effect1_dropShadow_2068_4595"/>
<feBlend mode="normal" in="SourceGraphic" in2="effect1_dropShadow_2068_4595" result="shape"/>
</filter>
<filter id="filter1_d_2068_4595" x="67.3623" y="107.694" width="40.4385" height="40.3911" filterUnits="userSpaceOnUse" color-interpolation-filters="sRGB">
<feFlood flood-opacity="0" result="BackgroundImageFix"/>
<feColorMatrix in="SourceAlpha" type="matrix" values="0 0 0 0 0 0 0 0 0 0 0 0 0 0 0 0 0 0 127 0" result="hardAlpha"/>
<feOffset dy="4"/>
<feGaussianBlur stdDeviation="2"/>
<feComposite in2="hardAlpha" operator="out"/>
<feColorMatrix type="matrix" values="0 0 0 0 0.8 0 0 0 0 0.239216 0 0 0 0 0.239216 0 0 0 0.2 0"/>
<feBlend mode="normal" in2="BackgroundImageFix" result="effect1_dropShadow_2068_4595"/>
<feBlend mode="normal" in="SourceGraphic" in2="effect1_dropShadow_2068_4595" result="shape"/>
</filter>
</defs>
</svg>
