<svg width="175" height="173" viewBox="0 0 175 173" fill="none" xmlns="http://www.w3.org/2000/svg">
<path d="M121.906 156.891C114.827 150.863 103.875 154.425 101.703 163.458C98.7394 175.802 81.3384 176.311 77.6595 164.157C74.9661 155.266 63.8252 152.349 57.1091 158.778C47.9313 167.564 33.0189 158.596 36.5045 146.387C39.0549 137.455 31.2567 128.985 22.1292 130.767C9.65128 133.202 1.96128 117.609 11.5023 109.221C18.4813 103.081 16.5105 91.7485 7.86597 88.3181C-3.95114 83.6337 -1.97647 66.3622 10.5942 64.456C19.7913 63.0592 24.27 52.4632 18.8522 44.9118C11.4482 34.5898 22.4615 21.1269 34.0661 26.3091C42.556 30.0983 52.0622 23.6003 51.5947 14.324C50.9532 1.64442 67.5079 -3.73458 74.4676 6.88837C79.5569 14.6597 91.0765 14.3279 95.7021 6.27098C102.028 -4.7417 118.869 -0.331226 118.969 12.3638C119.043 21.6517 128.912 27.5863 137.17 23.3071C148.454 17.4573 160.232 30.2604 153.447 40.9914C148.481 48.8438 153.57 59.1658 162.833 60.0224C175.493 61.1954 178.472 78.3203 166.949 83.6877C158.521 87.612 157.214 99.0414 164.541 104.764C174.557 112.585 167.787 128.599 155.189 126.893C145.973 125.643 138.685 134.557 141.749 143.324C145.942 155.309 131.575 165.129 121.902 156.895L121.906 156.891Z" fill="#F45954"/>
<path d="M87.8545 138.257C117.981 138.257 142.403 113.87 142.403 83.7875C142.403 53.705 117.981 29.3184 87.8545 29.3184C57.728 29.3184 33.3057 53.705 33.3057 83.7875C33.3057 113.87 57.728 138.257 87.8545 138.257Z" fill="#FFDBDC"/>
<path d="M109.598 130.369C109.335 131.643 108.887 132.885 108.199 134.062C106.959 136.181 105.042 137.921 102.692 139.271C97.8735 140.572 92.9156 141.224 87.9577 141.224C82.9998 141.224 78.3007 140.614 73.5978 139.395C71.0976 137.994 69.0341 136.154 67.6854 133.865C67.0208 132.743 66.5571 131.554 66.2556 130.335C64.281 122.347 69.3007 112.894 71.0049 109.691C72.0869 107.657 73.5128 104.968 75.3832 102.487C76.1792 101.422 77.0564 100.399 78.0225 99.4846C80.0822 97.5244 82.5399 96.0465 85.4613 95.707C89.4648 95.2362 93.1784 97.0382 96.3896 99.8203C97.4291 100.723 98.4145 101.727 99.3381 102.788C102.685 106.627 105.235 111.238 106.638 114.564C108.071 117.964 110.819 124.481 109.598 130.369Z" fill="#785050"/>
<path d="M108.829 85.497C108.551 88.3871 107.639 91.1306 105.92 93.5076C100.714 100.681 90.6633 100.932 88.3408 100.99C86.0223 101.047 73.7685 101.047 67.8445 92.0452C66.1789 89.5177 65.2979 86.7086 65.0274 83.8223C64.0265 73.1916 71.2992 61.5384 78.2434 59.146C79.3679 58.7602 82.556 57.8997 86.5903 57.9499C86.5903 57.9499 91.015 58.0077 94.6513 59.2734C102.04 61.8394 109.881 74.6657 108.829 85.497Z" fill="#785050"/>
<path d="M108.829 85.4972C108.551 88.3874 107.639 91.1309 105.92 93.5078C100.714 100.681 90.6633 100.932 88.3408 100.99C86.0222 101.048 73.7684 101.048 67.8444 92.0454C66.1789 89.518 65.2978 86.7088 65.0273 83.8225C65.8582 74.4537 72.1763 65.2932 78.2433 63.2056C79.3679 62.8197 82.5559 61.9593 86.5903 62.0094C86.5903 62.0094 91.0149 62.0673 94.6513 63.3291C101.136 65.5864 107.96 75.727 108.829 85.4972Z" fill="#785050"/>
<path d="M91.7644 59.3931C92.2938 56.1711 96.1311 53.7209 99.381 53.4469C110.035 52.5517 120.434 74.6156 117.053 77.9148C113.482 81.3953 90.3308 68.1369 91.7683 59.3931H91.7644Z" fill="#785050"/>
<path d="M80.6352 59.3931C80.1058 56.1711 76.2685 53.7209 73.0186 53.4469C62.3647 52.5517 51.9658 74.6156 55.3471 77.9148C58.9177 81.3953 82.0689 68.1369 80.6313 59.3931H80.6352Z" fill="#785050"/>
<path d="M104.015 80.2824C104.031 76.2163 101.117 72.9084 97.5058 72.8939C93.8947 72.8794 90.9541 76.1639 90.9378 80.23C90.9215 84.2961 93.8355 87.604 97.4466 87.6185C101.058 87.633 103.998 84.3485 104.015 80.2824Z" fill="#471111"/>
<path d="M99.0368 80.1222C100.153 78.2687 99.8252 76.0252 98.3037 75.1112C96.7821 74.1972 94.6434 74.9589 93.5268 76.8124C92.4101 78.6659 92.7383 80.9094 94.2599 81.8234C95.7815 82.7374 97.9202 81.9757 99.0368 80.1222Z" fill="white"/>
<path d="M100.984 84.2584C101.759 82.971 101.853 81.6058 101.193 81.2092C100.532 80.8127 99.3684 81.5348 98.5928 82.8222C97.8172 84.1097 97.7237 85.4748 98.3839 85.8714C99.0441 86.268 100.208 85.5458 100.984 84.2584Z" fill="white"/>
<path d="M82.7812 80.2858C82.7975 76.2197 79.8834 72.9118 76.2724 72.8973C72.6613 72.8828 69.7207 76.1673 69.7044 80.2334C69.6881 84.2995 72.6021 87.6074 76.2132 87.6219C79.8242 87.6364 82.7648 84.3519 82.7812 80.2858Z" fill="#471111"/>
<path d="M77.8073 80.1169C78.924 78.2633 78.5958 76.0198 77.0742 75.1058C75.5526 74.1918 73.4139 74.9535 72.2973 76.807C71.1806 78.6605 71.5089 80.904 73.0304 81.818C74.552 82.732 76.6907 81.9704 77.8073 80.1169Z" fill="white"/>
<path d="M79.7483 84.2564C80.5239 82.969 80.6174 81.6039 79.9572 81.2073C79.297 80.8107 78.1331 81.5329 77.3575 82.8203C76.5819 84.1077 76.4883 85.4729 77.1485 85.8694C77.8087 86.266 78.9727 85.5438 79.7483 84.2564Z" fill="white"/>
<path d="M70.9795 71.3823C72.0847 71.4517 73.8661 71.4208 75.8833 70.7224C77.2861 70.2362 78.3681 69.5841 79.1216 69.04" stroke="#471111" stroke-width="2" stroke-miterlimit="10" stroke-linecap="round"/>
<path d="M102.527 71.3823C101.422 71.4517 99.6402 71.4208 97.6231 70.7224C96.2203 70.2362 95.1383 69.5841 94.3848 69.04" stroke="#471111" stroke-width="2" stroke-miterlimit="10" stroke-linecap="round"/>
<path d="M107.666 76.2981C106.178 75.5264 104.814 74.4961 103.651 73.2536C103.307 72.8832 103.867 72.3584 104.215 72.7249C105.204 74.0215 106.414 75.1598 107.805 76.0704C107.944 76.1592 107.816 76.383 107.669 76.3019L107.666 76.2981Z" fill="#471111"/>
<path d="M65.7386 75.5185C67.1143 74.6156 68.3238 73.4889 69.3015 72.2039C69.429 72.0341 69.6725 71.9994 69.8425 72.1306C70.0241 72.2657 70.0473 72.5396 69.8889 72.7017C68.7257 73.9442 67.3578 74.9783 65.8739 75.7462C65.727 75.8234 65.5995 75.6034 65.7386 75.5147V75.5185Z" fill="#471111"/>
<path d="M87.0656 89.703C88.9458 89.703 90.4701 89.1951 90.4701 88.5685C90.4701 87.942 88.9458 87.4341 87.0656 87.4341C85.1854 87.4341 83.6611 87.942 83.6611 88.5685C83.6611 89.1951 85.1854 89.703 87.0656 89.703Z" fill="#471111"/>
<path d="M108.266 126.797C108.266 126.774 108.277 126.75 108.304 126.743C109.073 126.557 114.406 125.126 116.759 119.731C118.371 116.035 117.656 112.601 117.049 110.81C116.96 110.548 117.3 110.355 117.482 110.563C119.163 112.504 122.409 117.154 121.346 123.146C120.268 129.228 115.206 134.12 108.714 135.224C108.683 135.228 108.652 135.205 108.652 135.174C108.525 132.38 108.393 129.59 108.266 126.797Z" fill="#785050"/>
<path d="M87.3511 105.06H86.8564V107.699H87.3511V105.06Z" fill="#471111"/>
<path d="M87.104 111.497C88.3226 111.497 89.3105 110.51 89.3105 109.294C89.3105 108.077 88.3226 107.09 87.104 107.09C85.8854 107.09 84.8975 108.077 84.8975 109.294C84.8975 110.51 85.8854 111.497 87.104 111.497Z" fill="#FFDBDC"/>
<path d="M99.3387 102.788C94.7131 104.891 89.8634 105.01 88.3409 105.049C86.8067 105.088 80.9098 105.099 75.3838 102.487C76.1798 101.422 77.057 100.399 78.0231 99.4849C82.6719 101.036 87.0502 101.021 88.3409 100.99C89.5388 100.959 92.8003 100.878 96.3903 99.8206C97.4298 100.724 98.4152 101.727 99.3387 102.788Z" fill="#F5A64A"/>
<g opacity="0.96" filter="url(#filter0_d_2068_4609)">
<path d="M121.447 82.9311C123.769 82.9311 125.532 83.4868 126.729 84.5903C127.927 85.6978 128.526 87.1371 128.526 88.9082C128.526 89.9693 128.345 90.9224 127.982 91.7636C127.618 92.6048 127.093 93.3534 126.413 94.0094C125.729 94.6654 124.917 95.275 123.978 95.8422C123.321 96.232 122.711 96.5059 122.143 96.668C121.574 96.8301 121.041 96.9072 120.547 96.9072C119.998 96.9072 119.546 96.7722 119.19 96.4944C118.835 96.2204 118.657 95.8538 118.657 95.3908C118.657 94.9663 118.804 94.5689 119.097 94.1946C119.391 93.8242 119.866 93.4422 120.52 93.0524C121.389 92.5585 122.088 92.1148 122.622 91.725C123.155 91.3353 123.422 90.8916 123.422 90.3977C123.422 90.0619 123.329 89.7957 123.143 89.5989C122.958 89.406 122.641 89.3056 122.201 89.3056C121.845 89.3056 121.424 89.3249 120.937 89.3597C120.45 89.3944 119.975 89.4137 119.515 89.4137C118.576 89.4137 117.845 89.1552 117.331 88.642C116.818 88.1287 116.559 87.411 116.559 86.4888C116.559 85.6746 116.763 85.0032 117.169 84.4823C117.579 83.9614 118.151 83.5716 118.885 83.3131C119.623 83.0546 120.477 82.9272 121.455 82.9272L121.447 82.9311ZM118.147 100.735C118.147 100.149 118.294 99.6778 118.587 99.3151C118.881 98.9524 119.264 98.6822 119.731 98.5047C120.203 98.3272 120.693 98.2385 121.207 98.2385C122.096 98.2385 122.772 98.443 123.244 98.8482C123.715 99.2572 123.951 99.8051 123.951 100.496C123.951 101.345 123.657 101.962 123.074 102.344C122.486 102.726 121.779 102.915 120.945 102.915C120.04 102.915 119.349 102.715 118.869 102.317C118.39 101.92 118.151 101.391 118.151 100.735H118.147Z" fill="#F45954"/>
</g>
<g opacity="0.96" filter="url(#filter1_d_2068_4609)">
<path d="M55.7409 108.228C53.4185 108.221 51.6564 107.657 50.4661 106.546C49.2721 105.435 48.6808 103.991 48.6886 102.22C48.6924 101.159 48.8779 100.206 49.245 99.3649C49.6121 98.5237 50.1377 97.779 50.8255 97.1269C51.5134 96.4748 52.3249 95.8651 53.2678 95.3017C53.9247 94.9159 54.5391 94.6419 55.1072 94.4837C55.6752 94.3255 56.2085 94.2483 56.7032 94.2522C57.2519 94.2522 57.704 94.3949 58.0595 94.6689C58.4151 94.9467 58.589 95.3133 58.589 95.7725C58.589 96.1969 58.4382 96.5944 58.1445 96.9648C57.8509 97.3353 57.3756 97.7134 56.7148 98.1031C55.8414 98.597 55.142 99.0369 54.6048 99.4228C54.0716 99.8087 53.8049 100.252 53.8011 100.75C53.8011 101.086 53.8938 101.352 54.0793 101.549C54.2648 101.746 54.5778 101.842 55.0222 101.846C55.3777 101.846 55.7989 101.831 56.2858 101.8C56.7727 101.765 57.248 101.75 57.7117 101.753C58.6508 101.753 59.3773 102.016 59.8912 102.533C60.4052 103.05 60.6564 103.768 60.6525 104.69C60.6525 105.504 60.4438 106.172 60.0342 106.693C59.6246 107.213 59.0488 107.599 58.3146 107.854C57.5765 108.109 56.7186 108.232 55.7448 108.228H55.7409ZM59.1106 90.4359C59.1106 91.0225 58.9599 91.4932 58.6662 91.8559C58.3725 92.2186 57.99 92.4849 57.5185 92.6624C57.0471 92.836 56.5563 92.9248 56.0424 92.9209C55.1536 92.9209 54.4773 92.7126 54.0097 92.3035C53.5421 91.8945 53.3064 91.3427 53.3103 90.652C53.3103 89.8031 53.6078 89.1857 54.1952 88.8076C54.7826 88.4294 55.4936 88.2403 56.3283 88.2442C57.2326 88.2442 57.9243 88.4487 58.4035 88.85C58.8826 89.2513 59.1184 89.78 59.1145 90.4359H59.1106Z" fill="#F45954"/>
</g>
<g filter="url(#filter2_d_2068_4609)">
<path d="M156.67 148.884L130.141 122.402C150.159 100.168 149.525 65.841 128.109 44.4601C105.97 22.346 69.9469 22.346 47.8082 44.4601C25.6733 66.5626 25.6733 102.541 47.8082 124.647C55.2045 132.033 64.1465 136.949 73.5987 139.395C78.3015 140.615 83.1281 141.224 87.9585 141.224C92.7889 141.224 97.8744 140.572 102.693 139.272C111.075 137.018 119.032 132.808 125.86 126.677L152.388 153.159C152.98 153.749 153.752 154.047 154.529 154.047C155.306 154.047 156.079 153.749 156.67 153.159C157.853 151.978 157.853 150.064 156.67 148.884ZM123.827 120.372C119.576 124.616 114.75 127.95 109.599 130.37C95.919 136.798 79.9323 136.787 66.2564 130.335C61.1285 127.923 56.3251 124.601 52.0898 120.372C32.3161 100.623 32.3161 68.4842 52.0898 48.7355C61.9786 38.8611 74.9705 33.922 87.9585 33.922C100.946 33.922 113.938 38.8611 123.827 48.7355C143.597 68.4842 143.601 100.623 123.827 120.372Z" fill="#471111"/>
</g>
<defs>
<filter id="filter0_d_2068_4609" x="114.559" y="82.9272" width="13.9678" height="21.9878" filterUnits="userSpaceOnUse" color-interpolation-filters="sRGB">
<feFlood flood-opacity="0" result="BackgroundImageFix"/>
<feColorMatrix in="SourceAlpha" type="matrix" values="0 0 0 0 0 0 0 0 0 0 0 0 0 0 0 0 0 0 127 0" result="hardAlpha"/>
<feOffset dx="-1" dy="1"/>
<feGaussianBlur stdDeviation="0.5"/>
<feComposite in2="hardAlpha" operator="out"/>
<feColorMatrix type="matrix" values="0 0 0 0 0.8 0 0 0 0 0.239216 0 0 0 0 0.239216 0 0 0 0.2 0"/>
<feBlend mode="normal" in2="BackgroundImageFix" result="effect1_dropShadow_2068_4609"/>
<feBlend mode="normal" in="SourceGraphic" in2="effect1_dropShadow_2068_4609" result="shape"/>
</filter>
<filter id="filter1_d_2068_4609" x="46.6885" y="88.2441" width="13.9639" height="21.9844" filterUnits="userSpaceOnUse" color-interpolation-filters="sRGB">
<feFlood flood-opacity="0" result="BackgroundImageFix"/>
<feColorMatrix in="SourceAlpha" type="matrix" values="0 0 0 0 0 0 0 0 0 0 0 0 0 0 0 0 0 0 127 0" result="hardAlpha"/>
<feOffset dx="-1" dy="1"/>
<feGaussianBlur stdDeviation="0.5"/>
<feComposite in2="hardAlpha" operator="out"/>
<feColorMatrix type="matrix" values="0 0 0 0 0.8 0 0 0 0 0.239216 0 0 0 0 0.239216 0 0 0 0.25 0"/>
<feBlend mode="normal" in2="BackgroundImageFix" result="effect1_dropShadow_2068_4609"/>
<feBlend mode="normal" in="SourceGraphic" in2="effect1_dropShadow_2068_4609" result="shape"/>
</filter>
<filter id="filter2_d_2068_4609" x="27.207" y="27.8745" width="134.35" height="134.172" filterUnits="userSpaceOnUse" color-interpolation-filters="sRGB">
<feFlood flood-opacity="0" result="BackgroundImageFix"/>
<feColorMatrix in="SourceAlpha" type="matrix" values="0 0 0 0 0 0 0 0 0 0 0 0 0 0 0 0 0 0 127 0" result="hardAlpha"/>
<feOffset dy="4"/>
<feGaussianBlur stdDeviation="2"/>
<feComposite in2="hardAlpha" operator="out"/>
<feColorMatrix type="matrix" values="0 0 0 0 0.8 0 0 0 0 0.239216 0 0 0 0 0.239216 0 0 0 0.25 0"/>
<feBlend mode="normal" in2="BackgroundImageFix" result="effect1_dropShadow_2068_4609"/>
<feBlend mode="normal" in="SourceGraphic" in2="effect1_dropShadow_2068_4609" result="shape"/>
</filter>
</defs>
</svg>
