<svg width="213" height="182" viewBox="0 0 213 182" fill="none" xmlns="http://www.w3.org/2000/svg">
<path d="M128.042 163.117C122.088 156.177 110.897 157.966 107.409 166.418C102.641 177.97 85.6553 175.803 83.939 163.427C82.6832 154.37 72.3024 149.832 64.7954 155.057C54.5343 162.197 41.4177 151.201 46.6711 139.861C50.5152 131.565 44.2363 122.137 35.0959 122.477C22.5996 122.94 17.5151 106.603 28.0709 99.9022C35.7929 94.9994 35.6117 83.6782 27.7393 79.024C16.9747 72.6638 21.5372 56.1698 34.0428 56.2373C43.1924 56.2864 49.1642 46.6618 45.0592 38.4946C39.4466 27.3299 52.2069 15.9197 62.6891 22.7308C70.3589 27.7134 80.5923 22.8474 81.5564 13.7567C82.8767 1.33096 99.782 -1.37509 104.919 10.0198C108.677 18.3557 119.917 19.7885 125.647 12.6614C133.479 2.92022 149.166 9.78045 147.32 22.1387C145.969 31.1803 154.652 38.4578 163.329 35.5585C175.187 31.5945 184.674 45.8396 176.436 55.2402C170.409 62.1188 173.774 72.9307 182.642 75.1796C194.763 78.2539 195.033 95.3615 183.019 98.8192C174.229 101.347 171.208 112.264 177.453 118.946C185.985 128.079 176.958 142.619 164.981 139.036C156.215 136.415 147.772 143.966 149.408 152.959C151.646 165.252 136.184 172.607 128.048 163.12L128.042 163.117Z" fill="#F45954"/>
<g filter="url(#filter0_d_2068_4551)">
<path d="M133.912 0H5.81055V144.399H133.912V0Z" fill="#F4F4F4"/>
</g>
<path d="M121.987 11.6401H17.7363V115.814H121.987V11.6401Z" fill="#FFDBDC"/>
<path d="M51.4204 56.206C52.6731 54.5217 55.2429 51.5334 59.5169 49.3458C63.2044 47.4589 66.5848 46.9742 68.599 46.8423C67.9327 44.5228 67.1989 40.7644 67.8314 36.242C68.7126 29.9678 71.7768 25.4516 73.9659 22.902C74.8778 21.8374 76.4284 21.6042 77.6135 22.3528C80.2141 23.9912 83.4042 26.4273 86.4377 29.9463C91.2029 35.475 93.3552 41.0958 94.35 44.44C97.0611 46.7073 105.173 54.0952 105.486 64.7905C105.652 70.4788 103.349 74.7311 98.7467 83.2389C94.35 91.3632 91.1507 97.2754 84.3898 100.515C80.8497 102.212 77.5859 102.328 71.0583 102.565C59.4862 102.985 48.5956 103.378 42.194 96.4163C39.5842 93.5783 38.2332 90.0746 37.0665 87.0464C35.2396 82.3093 34.6378 78.0907 34.429 75.1883C32.2184 73.2124 28.5616 69.3927 26.2251 63.4774C23.2929 56.0526 24.0021 49.2691 24.8066 45.4524C25.086 44.1331 26.265 43.2035 27.6159 43.2281C31.2697 43.2956 37.3029 44.0595 43.2225 47.956C47.3798 50.6927 49.9619 53.9725 51.4265 56.206H51.4204Z" fill="#785050"/>
<path d="M73.3986 45.7601C72.76 44.0266 71.5503 40.0013 72.5205 35.0003C73.3557 30.6897 75.4067 27.7198 76.5488 26.29C78.7318 27.7382 81.7715 30.1159 84.6085 33.7577C87.7372 37.7739 89.3368 41.6887 90.175 44.2997C89.0267 44.2537 87.8047 44.2506 86.5121 44.2997C84.3966 44.3825 82.4593 44.6003 80.7245 44.8857C81.0715 44.1677 80.9824 43.3363 80.5034 42.7626C80.1319 42.3177 79.5301 42.0293 78.9652 42.1029C78.0257 42.2256 77.1752 43.3486 77.2796 44.812C77.6388 43.232 76.9879 41.7838 75.8887 41.2991C75.3115 41.0444 74.5562 41.0322 73.9851 41.3727C72.9197 42.0078 72.5021 43.8701 73.3986 45.7662V45.7601Z" fill="#FF999B"/>
<path d="M47.2489 58.5042C47.2274 58.5226 45.1273 54.0585 39.9937 50.8861C35.4035 48.0482 30.9085 47.7997 28.9312 47.8119C28.6426 50.6867 28.529 55.568 30.3221 61.2072C31.8419 65.9872 34.1477 69.4664 35.8149 71.6018C36.2294 70.5004 36.9417 68.9909 38.1576 67.4292C39.5546 65.6405 41.0652 64.4962 42.1276 63.815C41.3446 63.6616 40.7336 63.0879 40.5648 62.3608C40.4327 61.7962 40.5648 61.1427 40.967 60.7378C41.6302 60.0628 43.0425 60.0597 44.1448 61.0262C42.6864 60.48 41.8942 59.0564 42.1767 57.7985C42.3763 56.9119 43.1285 56.0313 44.0158 55.9362C45.7107 55.7521 47.2581 58.4889 47.2428 58.5042H47.2489Z" fill="#FF999B"/>
<path d="M81.4707 76.898C81.9988 69.2094 88.3114 64.2207 95.8092 64.3128C96.411 64.3312 96.4387 65.2209 95.8338 65.27C92.745 65.5032 89.5703 66.7028 87.3566 68.875C85.1735 70.9828 84.0314 73.9864 84.0805 76.9901C84.0314 78.7941 81.397 78.7082 81.4738 76.895L81.4707 76.898Z" fill="#471111"/>
<path d="M65.7242 85.2157C63.5013 83.1969 60.4893 82.0647 57.465 82.3102C54.3762 82.5311 51.3765 84.1173 49.1627 86.2772C48.9755 86.4705 48.6654 86.4736 48.4781 86.2834C48.3 86.1054 48.2938 85.8231 48.4535 85.6329C49.5803 84.329 50.8914 83.2337 52.3713 82.347C57.029 79.4385 63.0561 79.822 67.3914 83.203C68.7823 84.3382 67.1089 86.3662 65.7273 85.2126L65.7242 85.2157Z" fill="#471111"/>
<path d="M94.4136 76.2536C97.88 73.4892 102.129 71.7251 106.541 71.1882C108.028 71.0071 109.538 70.955 111.046 71.0378C111.767 71.0746 112.323 71.6913 112.283 72.4123C112.246 73.1824 111.531 73.7561 110.769 73.6303C108.071 73.1947 105.289 73.2407 102.596 73.7838C99.8666 74.3391 97.2353 75.4037 94.8742 76.904C94.4535 77.1678 94.0175 76.5696 94.4105 76.2536H94.4136Z" fill="#CCABAB"/>
<path d="M95.0279 80.0367C99.0746 78.2296 103.631 77.5822 108.037 78.1651C109.523 78.3615 110.997 78.6898 112.437 79.1469C113.128 79.3617 113.511 80.098 113.29 80.7883C113.063 81.5247 112.225 81.9021 111.522 81.5891C109.019 80.4907 106.314 79.8403 103.573 79.693C100.791 79.5458 97.9785 79.9201 95.3165 80.7822C94.8437 80.9325 94.5704 80.2453 95.031 80.0367H95.0279Z" fill="#CCABAB"/>
<path d="M55.7112 93.3215C52.9264 93.6068 50.203 94.4014 47.716 95.6563C46.4848 96.2822 45.315 97.0154 44.225 97.8438C43.1381 98.6753 42.1279 99.5988 41.2099 100.599C40.7217 101.13 39.8958 101.167 39.3646 100.679C38.7935 100.16 38.8028 99.2398 39.3861 98.7336C40.5191 97.7334 41.7349 96.8406 43.0153 96.0582C45.5606 94.515 48.3822 93.4289 51.3022 92.9073C52.7514 92.6434 54.2159 92.5146 55.6743 92.5176C55.8954 92.5176 56.0735 92.6986 56.0735 92.9195C56.0735 93.1251 55.9138 93.2969 55.7142 93.3184L55.7112 93.3215Z" fill="#CCABAB"/>
<path d="M57.7702 96.6351C55.1451 97.6077 52.7072 99.0589 50.6163 100.897C49.5816 101.811 48.6329 102.814 47.7855 103.888C46.9411 104.965 46.195 106.112 45.5564 107.309C45.2187 107.947 44.4265 108.186 43.7879 107.849C43.1032 107.49 42.8852 106.597 43.3212 105.962C44.1686 104.71 45.1204 103.541 46.1643 102.464C48.243 100.335 50.7023 98.5772 53.395 97.3408C54.7306 96.7241 56.1184 96.2332 57.5308 95.8712C57.7457 95.816 57.9637 95.9448 58.0189 96.1596C58.0711 96.359 57.9575 96.5646 57.7702 96.6351Z" fill="#CCABAB"/>
<path d="M72.2842 93.1927C72.4623 93.3032 74.2062 94.3494 76.1283 93.5609C77.6573 92.935 78.6859 91.4071 78.735 89.6737C80.2057 90.6432 82.0878 90.6646 83.494 89.732C85.3332 88.5139 85.3669 86.3202 85.3669 86.1484" stroke="#471111" stroke-width="2" stroke-linecap="round" stroke-linejoin="round"/>
<path d="M75.8477 87.6486C76.8671 87.1515 77.8864 86.6576 78.9058 86.1605C79.2005 86.0163 79.5321 86.2802 79.4584 86.5993C79.2251 87.6118 78.9887 88.6242 78.7553 89.6367L75.86 88.3573C75.556 88.2223 75.5468 87.7958 75.8477 87.6486Z" fill="#471111"/>
<path d="M43.0284 24.2314C44.1705 22.8323 46.6974 21.3566 48.9879 22.2433C50.9683 23.0195 52.2609 25.3635 52.1074 28.0941C54.2321 26.4066 56.9063 26.0937 58.6687 27.2841C60.7166 28.6371 60.9684 31.5549 60.4864 33.2914C59.4517 37.0375 53.7531 39.7068 46.2399 39.3938C41.6498 33.451 40.5414 27.2596 43.0284 24.2314Z" fill="#F45954"/>
<path d="M97.9871 38.8752C97.505 37.8167 97.3699 35.936 98.5397 34.8683C99.5529 33.9448 101.278 33.8681 102.814 34.7364C102.445 33.0275 103.025 31.3953 104.22 30.7172C105.586 29.9226 107.345 30.6098 108.211 31.383C110.081 33.049 109.998 37.1019 107.674 41.3481C102.927 42.3023 99.031 41.1732 97.9901 38.8752H97.9871Z" fill="#F45954"/>
<g filter="url(#filter1_d_2068_4551)">
<path d="M209.379 69.5359L117.296 36.0269L79.4671 139.827L171.551 173.336L209.379 69.5359Z" fill="#F4F4F4"/>
</g>
<path d="M199.094 75.2708L124.156 48.001L96.8663 122.884L171.804 150.153L199.094 75.2708Z" fill="#785050"/>
<path d="M106.797 117.118C106.726 116.232 107.125 114.845 108.243 114.381C109.213 113.983 110.475 114.381 111.347 115.406C111.531 114.081 112.376 113.059 113.41 112.884C114.602 112.669 115.686 113.624 116.106 114.406C117.015 116.093 115.891 118.984 113.11 121.429C109.45 120.874 106.941 119.042 106.797 117.118Z" fill="#F45954"/>
<path d="M164.581 107.77C165.223 107.93 167.05 108.378 168.809 107.605C172.269 106.086 172.871 100.996 173.209 98.1304C173.544 95.2954 174.035 91.1382 171.459 87.0791C171.17 86.6251 168.76 82.9372 164.572 81.5443C160.998 80.357 156.973 81.1209 153.359 82.8206C154.461 79.8783 154.861 76.6814 153.586 73.4753C151.922 69.2904 147.473 65.262 142.545 65.3571C135.487 65.4952 130.896 74.0429 130.138 80.3723C129.631 84.6032 130.682 89.1286 132.527 92.6293C125.658 95.636 120.095 103.763 121.781 110.841C123.346 117.419 130.467 120.122 138.422 123.144C145.594 125.869 151.422 128.081 156.445 125.16C161.959 121.951 164.216 113.885 162.727 107.052C163.286 107.35 163.9 107.602 164.581 107.77Z" fill="#FFDBDC"/>
<path d="M179.618 78.2544C180.426 77.7757 181.921 77.5027 182.882 78.3433C183.711 79.0735 183.926 80.448 183.364 81.752C184.703 81.3071 186.063 81.6262 186.711 82.5221C187.469 83.5468 187.073 85.0133 186.53 85.7773C185.36 87.4218 182.099 87.7133 178.489 86.2252C177.306 82.5098 177.865 79.2883 179.618 78.2513V78.2544Z" fill="#F45954"/>
<path d="M152.198 96.3746C150.915 95.2609 149.37 94.4478 147.731 94.0152C147.077 93.8434 146.404 93.7268 145.732 93.6808C145.431 93.6593 145.13 93.6501 144.826 93.6532C144.442 93.6532 144.059 93.6747 143.678 93.7146C143.632 93.7207 143.607 93.6532 143.65 93.6287L143.666 93.6194C144.433 93.1961 145.293 92.9782 146.171 92.9414C146.936 92.9107 147.712 93.012 148.452 93.239C150.07 93.736 151.516 94.8099 152.263 96.304L152.272 96.3194C152.29 96.3623 152.235 96.4053 152.201 96.3746H152.198Z" fill="#CCABAB"/>
<path d="M151.32 89.1681C150.525 90.6163 149.561 91.9877 148.453 93.2395C148.219 93.5033 147.98 93.7611 147.734 94.0157C147.08 93.8439 146.408 93.7273 145.735 93.6813C145.751 93.4604 145.846 93.2425 146.015 93.0769C146.039 93.0523 146.067 93.0309 146.092 93.0094C146.119 92.9879 146.147 92.9664 146.171 92.9449C147.743 91.6993 149.143 90.2113 150.307 88.5423C151.492 86.8456 152.432 84.9526 153.083 82.9522C153.126 82.8172 153.267 82.7436 153.402 82.7896C153.528 82.8295 153.599 82.9583 153.571 83.0841C153.129 85.1919 152.373 87.2537 151.317 89.1712L151.32 89.1681Z" fill="#CCABAB"/>
<path d="M158.257 94.1161C157.769 96.4049 157.846 98.8624 158.61 101.096C159.378 103.372 160.919 105.358 162.899 106.735C163.034 106.83 163.068 107.017 162.973 107.152C162.884 107.281 162.709 107.318 162.577 107.241C160.336 105.953 158.497 103.94 157.456 101.55C156.39 99.1263 156.077 96.4264 156.406 93.8001C156.614 92.5238 158.484 92.8398 158.257 94.1161Z" fill="#CCABAB"/>
<path d="M158.165 111.49C158.523 108.277 156.501 105.415 153.649 105.098C150.798 104.781 148.196 107.129 147.838 110.342C147.481 113.555 149.502 116.417 152.354 116.734C155.205 117.051 157.807 114.704 158.165 111.49Z" fill="#471111"/>
<path d="M154.25 110.94C155.29 109.569 155.221 107.768 154.096 106.916C152.972 106.065 151.217 106.486 150.178 107.857C149.139 109.228 149.207 111.029 150.332 111.88C151.457 112.732 153.211 112.311 154.25 110.94Z" fill="white"/>
<path d="M155.435 114.373C156.157 113.421 156.347 112.35 155.859 111.981C155.371 111.611 154.39 112.084 153.669 113.036C152.947 113.988 152.757 115.059 153.245 115.429C153.733 115.798 154.713 115.326 155.435 114.373Z" fill="white"/>
<path d="M139.325 107.061C141.024 104.31 140.423 100.859 137.982 99.3532C135.54 97.8471 132.183 98.8563 130.484 101.607C128.784 104.358 129.385 107.809 131.827 109.315C134.268 110.822 137.625 109.812 139.325 107.061Z" fill="#471111"/>
<path d="M136.017 104.893C137.544 104.099 138.253 102.441 137.602 101.191C136.95 99.9405 135.184 99.5709 133.658 100.365C132.131 101.16 131.422 102.817 132.074 104.068C132.725 105.318 134.491 105.688 136.017 104.893Z" fill="white"/>
<path d="M135.616 108.504C136.676 107.952 137.306 107.065 137.024 106.523C136.741 105.98 135.652 105.988 134.592 106.539C133.531 107.091 132.901 107.978 133.184 108.521C133.467 109.063 134.555 109.056 135.616 108.504Z" fill="white"/>
<path d="M139.541 113.967L142.587 117.179" stroke="#471111" stroke-width="1.53" stroke-miterlimit="10" stroke-linecap="round"/>
<path d="M138.865 115.826L143.262 115.32" stroke="#471111" stroke-width="1.53" stroke-miterlimit="10" stroke-linecap="round"/>
<path d="M156.794 117.741C159.312 117.677 161.839 118.336 164.019 119.603C164.752 120.03 165.456 120.524 166.11 121.079C166.423 121.343 166.463 121.812 166.199 122.125C165.919 122.46 165.397 122.475 165.096 122.159C163.497 120.475 161.4 119.211 159.134 118.606C158.369 118.401 157.58 118.263 156.782 118.195C156.502 118.174 156.512 117.747 156.794 117.741Z" fill="#CCABAB"/>
<path d="M155.774 119.664C158.227 120.232 160.509 121.502 162.302 123.276C162.907 123.874 163.459 124.527 163.957 125.227C164.196 125.561 164.116 126.025 163.782 126.264C163.426 126.518 162.916 126.402 162.707 126.018C161.58 123.987 159.867 122.239 157.822 121.088C157.134 120.695 156.407 120.367 155.648 120.103C155.384 120.014 155.498 119.603 155.774 119.667V119.664Z" fill="#CCABAB"/>
<path d="M126.675 107.242C125.379 106.325 123.918 105.644 122.386 105.254C120.866 104.864 119.288 104.766 117.756 104.935C117.347 104.981 116.982 104.686 116.936 104.278C116.884 103.843 117.234 103.453 117.673 103.456C118.529 103.453 119.386 103.524 120.224 103.668C121.888 103.959 123.5 104.551 124.943 105.417C125.662 105.846 126.334 106.337 126.957 106.883C127.053 106.966 127.062 107.11 126.979 107.205C126.902 107.294 126.77 107.307 126.675 107.239V107.242Z" fill="#CCABAB"/>
<path d="M126.315 109.426C124.829 108.862 123.245 108.57 121.664 108.573C120.095 108.576 118.544 108.874 117.101 109.423C116.717 109.567 116.291 109.377 116.143 108.994C115.984 108.586 116.226 108.119 116.65 108.012C117.479 107.794 118.323 107.65 119.174 107.579C120.859 107.447 122.566 107.613 124.181 108.092C124.983 108.328 125.76 108.635 126.496 109.009C126.61 109.064 126.653 109.202 126.598 109.316C126.546 109.42 126.42 109.466 126.312 109.426H126.315Z" fill="#CCABAB"/>
<defs>
<filter id="filter0_d_2068_4551" x="0.810547" y="0" width="136.102" height="152.399" filterUnits="userSpaceOnUse" color-interpolation-filters="sRGB">
<feFlood flood-opacity="0" result="BackgroundImageFix"/>
<feColorMatrix in="SourceAlpha" type="matrix" values="0 0 0 0 0 0 0 0 0 0 0 0 0 0 0 0 0 0 127 0" result="hardAlpha"/>
<feOffset dx="-1" dy="4"/>
<feGaussianBlur stdDeviation="2"/>
<feComposite in2="hardAlpha" operator="out"/>
<feColorMatrix type="matrix" values="0 0 0 0 0.8 0 0 0 0 0.239216 0 0 0 0 0.239216 0 0 0 0.2 0"/>
<feBlend mode="normal" in2="BackgroundImageFix" result="effect1_dropShadow_2068_4551"/>
<feBlend mode="normal" in="SourceGraphic" in2="effect1_dropShadow_2068_4551" result="shape"/>
</filter>
<filter id="filter1_d_2068_4551" x="74.4668" y="36.0269" width="137.912" height="145.31" filterUnits="userSpaceOnUse" color-interpolation-filters="sRGB">
<feFlood flood-opacity="0" result="BackgroundImageFix"/>
<feColorMatrix in="SourceAlpha" type="matrix" values="0 0 0 0 0 0 0 0 0 0 0 0 0 0 0 0 0 0 127 0" result="hardAlpha"/>
<feOffset dx="-1" dy="4"/>
<feGaussianBlur stdDeviation="2"/>
<feComposite in2="hardAlpha" operator="out"/>
<feColorMatrix type="matrix" values="0 0 0 0 0.8 0 0 0 0 0.239216 0 0 0 0 0.239216 0 0 0 0.2 0"/>
<feBlend mode="normal" in2="BackgroundImageFix" result="effect1_dropShadow_2068_4551"/>
<feBlend mode="normal" in="SourceGraphic" in2="effect1_dropShadow_2068_4551" result="shape"/>
</filter>
</defs>
</svg>
