<svg width="43" height="47" viewBox="0 0 43 47" fill="none" xmlns="http://www.w3.org/2000/svg">
<g clip-path="url(#clip0_2068_4945)">
<path d="M21.5012 0L0 11.7403V35.2597L21.5012 47L43 35.2597V11.7403L21.5012 0Z" fill="#2441FF"/>
<path d="M10.7091 10.2153L8.73509 11.2928V18.0201L6.44132 19.271V12.5437L6.02891 12.772L4.00391 13.8769V24.3434H6.44132V21.8574L8.73509 20.6042V24.3434H11.1725V9.96875L10.7091 10.2153Z" fill="white"/>
<path d="M25.6807 17.6347L30.3864 12.1081L30.4026 12.0876L30.8985 11.5078L31.999 10.2134L31.7627 10.0856L31.714 10.0582L29.828 9.02868L29.8072 9.01727L24.6474 6.20033L24.5176 6.12728L24.089 5.89215L22.21 4.86719V24.3392H24.6474V20.0682L28.6742 24.3392H32.0013L25.6784 17.6324L25.6807 17.6347ZM28.2108 10.8914L28.2317 10.9028L28.2155 10.9234L24.6497 15.11V8.94422L28.2131 10.8914H28.2108Z" fill="white"/>
<path d="M38.9897 13.8724L36.6218 12.5804L36.5523 12.5416L35.1181 11.7586L33.3039 10.7679L32.6807 10.4277V24.3435H35.1945L36.5523 24.1449L36.6218 24.1335V24.1449L38.9897 23.7979L39.0592 23.7888V13.9135L38.9897 13.8747V13.8724ZM36.5523 21.8576L35.1181 22.0676V14.4637L36.5523 15.2467L36.6218 15.2855V21.8484L36.5523 21.8599V21.8576Z" fill="white"/>
<path d="M11.5965 25.332H8.87874H6.44132H4.00391V26.8957L6.44132 27.1651V34.454L8.87874 35.7848V27.4345L11.5965 27.7335V25.332Z" fill="white"/>
<path d="M31.9369 36.9782L31.6172 37.1517V36.7773L31.9369 36.9782Z" fill="white"/>
<path d="M36.6241 25.332V29.1146L34.0546 30.5185V25.332H31.6172V34.2166V34.422V37.1522L31.6682 37.1248L31.9369 36.9787L33.3989 36.1798L33.4707 36.141L34.0546 35.8214V34.2166V33.1026L36.6241 31.6987V34.4175L39.0615 33.0866V25.332H36.6241Z" fill="white"/>
<path d="M25.7014 33.1003L28.8478 27.7335L29.2301 27.0806L30.7732 26.7656V25.332H28.6555H27.4391L26.0327 27.7335L23.6393 31.8174L22.4206 33.8993L22.3975 33.9381L22.3998 33.9404H22.3975V39.4464V40.7042V42.1857L23.0416 41.8342L23.0439 41.8365V41.8388L23.257 41.7223L24.8349 40.864L25.1778 40.6745L27.8214 39.2387V39.2273L28.1296 39.0606L30.7732 37.6225V34.8809L29.5939 35.5223L29.3019 35.6798L27.1588 36.8463L26.9317 36.9696L25.859 37.554L25.1129 37.9603L24.8349 38.111V34.5818L25.7014 33.1003Z" fill="white"/>
<path d="M17.224 6.65853L13.6559 8.61487L11.9229 24.3409H14.3742L14.8422 20.1018L14.87 19.8484L17.1452 18.6066L17.4464 20.1018L18.2991 24.3409H20.7851L17.224 6.65625V6.65853ZM15.1712 17.1022L15.7597 11.7423L16.6749 16.2827L15.1712 17.1045V17.1022Z" fill="white"/>
<path d="M20.808 27.7335V25.332H15.8173H14.1167H13.3799V35.7803V38.2434L14.8071 39.0218L15.8173 39.572V39.5742L20.8057 42.2885H20.808V39.5423L19.1421 38.6337L15.8173 36.8281V33.3217L19.8974 35.568V32.5821L15.8173 31.2376V27.124L20.808 27.7335Z" fill="white"/>
</g>
<defs>
<clipPath id="clip0_2068_4945">
<rect width="43" height="47" fill="white"/>
</clipPath>
</defs>
</svg>
