<svg width="50" height="49" viewBox="0 0 50 49" fill="none" xmlns="http://www.w3.org/2000/svg">
<path d="M24.5147 0C14.2834 0 11.2911 0.0105547 10.7095 0.058805C8.60982 0.233335 7.30329 0.563925 5.87991 1.2726C4.78297 1.8173 3.91786 2.4487 3.06406 3.33379C1.50912 4.94791 0.566731 6.93371 0.225587 9.2942C0.0597264 10.4401 0.0114762 10.6739 0.00167536 16.5272C-0.00209419 18.4783 0.00167536 21.0462 0.00167536 24.4904C0.00167536 34.7134 0.012984 37.7027 0.0619881 38.2832C0.231618 40.3263 0.55203 41.6117 1.23055 43.0177C2.52727 45.7092 5.00387 47.7297 7.9215 48.4836C8.93174 48.7437 10.0475 48.8869 11.48 48.9548C12.0869 48.9812 18.2727 49 24.4623 49C30.6519 49 36.8415 48.9925 37.4333 48.9623C39.0919 48.8843 40.055 48.755 41.1199 48.4798C42.5666 48.1088 43.9149 47.4265 45.0705 46.4805C46.2262 45.5344 47.1614 44.3475 47.8109 43.0026C48.4762 41.6305 48.8136 40.2961 48.9662 38.3597C48.9994 37.9375 49.0134 31.2062 49.0134 24.484C49.0134 17.7606 48.9983 11.0418 48.9651 10.6196C48.8106 8.65187 48.4732 7.32876 47.7864 5.93026C47.2228 4.78544 46.5971 3.93051 45.6886 3.05635C44.0677 1.50782 42.0849 0.565432 39.7218 0.224665C38.577 0.0591819 38.3489 0.0101778 32.491 0H24.5147Z" fill="url(#paint0_radial_1580_5853)"/>
<path d="M24.5147 0C14.2834 0 11.2911 0.0105547 10.7095 0.058805C8.60982 0.233335 7.30329 0.563925 5.87991 1.2726C4.78297 1.8173 3.91786 2.4487 3.06406 3.33379C1.50912 4.94791 0.566731 6.93371 0.225587 9.2942C0.0597264 10.4401 0.0114762 10.6739 0.00167536 16.5272C-0.00209419 18.4783 0.00167536 21.0462 0.00167536 24.4904C0.00167536 34.7134 0.012984 37.7027 0.0619881 38.2832C0.231618 40.3263 0.55203 41.6117 1.23055 43.0177C2.52727 45.7092 5.00387 47.7297 7.9215 48.4836C8.93174 48.7437 10.0475 48.8869 11.48 48.9548C12.0869 48.9812 18.2727 49 24.4623 49C30.6519 49 36.8415 48.9925 37.4333 48.9623C39.0919 48.8843 40.055 48.755 41.1199 48.4798C42.5666 48.1088 43.9149 47.4265 45.0705 46.4805C46.2262 45.5344 47.1614 44.3475 47.8109 43.0026C48.4762 41.6305 48.8136 40.2961 48.9662 38.3597C48.9994 37.9375 49.0134 31.2062 49.0134 24.484C49.0134 17.7606 48.9983 11.0418 48.9651 10.6196C48.8106 8.65187 48.4732 7.32876 47.7864 5.93026C47.2228 4.78544 46.5971 3.93051 45.6886 3.05635C44.0677 1.50782 42.0849 0.565432 39.7218 0.224665C38.577 0.0591819 38.3489 0.0101778 32.491 0H24.5147Z" fill="url(#paint1_radial_1580_5853)"/>
<path d="M24.5032 6.4082C19.5892 6.4082 18.9725 6.42969 17.0425 6.51752C15.1162 6.60573 13.8014 6.91068 12.651 7.35813C11.4609 7.82028 10.4514 8.43848 9.44571 9.44458C8.43924 10.4503 7.82103 11.4598 7.35738 12.6494C6.9088 13.8003 6.60347 15.1155 6.51677 17.041C6.43082 18.971 6.4082 19.5881 6.4082 24.502C6.4082 29.416 6.43007 30.0308 6.51752 31.9608C6.6061 33.8871 6.91106 35.2019 7.35813 36.3524C7.82065 37.5424 8.43886 38.5519 9.44495 39.5576C10.4503 40.5641 11.4598 41.1838 12.6491 41.646C13.8003 42.0934 15.1155 42.3984 17.0413 42.4866C18.9714 42.5744 19.5877 42.5959 24.5013 42.5959C29.4156 42.5959 30.0305 42.5744 31.9605 42.4866C33.8867 42.3984 35.203 42.0934 36.3543 41.646C37.5439 41.1838 38.5519 40.5641 39.5572 39.5576C40.5637 38.5519 41.1819 37.5424 41.6456 36.3528C42.0904 35.2019 42.3957 33.8867 42.4862 31.9612C42.5729 30.0312 42.5955 29.416 42.5955 24.502C42.5955 19.5881 42.5729 18.9714 42.4862 17.0413C42.3957 15.1151 42.0904 13.8003 41.6456 12.6498C41.1819 11.4598 40.5637 10.4503 39.5572 9.44458C38.5508 8.43811 37.5443 7.8199 36.3531 7.35813C35.1996 6.91068 33.8841 6.60573 31.9578 6.51752C30.0278 6.42969 29.4134 6.4082 24.4979 6.4082H24.5032ZM22.88 9.66886C23.3617 9.66811 23.8993 9.66886 24.5032 9.66886C29.3342 9.66886 29.9068 9.6862 31.8146 9.7729C33.5787 9.85357 34.5362 10.1484 35.174 10.396C36.0184 10.724 36.6204 11.116 37.2533 11.7493C37.8866 12.3826 38.2786 12.9857 38.6073 13.8301C38.855 14.4671 39.1501 15.4246 39.2304 17.1887C39.3171 19.0961 39.336 19.6691 39.336 24.4979C39.336 29.3267 39.3171 29.8997 39.2304 31.8071C39.1498 33.5712 38.855 34.5287 38.6073 35.1657C38.2794 36.0101 37.8866 36.6113 37.2533 37.2442C36.62 37.8775 36.0188 38.2696 35.174 38.5975C34.537 38.8463 33.5787 39.1403 31.8146 39.221C29.9072 39.3077 29.3342 39.3265 24.5032 39.3265C19.6717 39.3265 19.0991 39.3077 17.1918 39.221C15.4276 39.1396 14.4701 38.8448 13.832 38.5971C12.9876 38.2692 12.3844 37.8772 11.7512 37.2439C11.1179 36.6106 10.7258 36.009 10.3971 35.1642C10.1495 34.5272 9.85433 33.5697 9.77403 31.8055C9.68733 29.8981 9.66999 29.3252 9.66999 24.4934C9.66999 19.6616 9.68733 19.0916 9.77403 17.1842C9.8547 15.4201 10.1495 14.4626 10.3971 13.8248C10.7251 12.9804 11.1179 12.3773 11.7512 11.744C12.3844 11.1107 12.9876 10.7187 13.832 10.39C14.4698 10.1412 15.4276 9.84716 17.1918 9.76612C18.8609 9.69073 19.5078 9.66811 22.88 9.66434V9.66886ZM34.1615 12.6732C33.732 12.6732 33.3122 12.8006 32.9551 13.0392C32.5981 13.2778 32.3198 13.6169 32.1555 14.0137C31.9911 14.4105 31.9482 14.8471 32.032 15.2683C32.1159 15.6895 32.3227 16.0764 32.6265 16.38C32.9302 16.6837 33.3171 16.8904 33.7384 16.9741C34.1596 17.0578 34.5962 17.0147 34.9929 16.8502C35.3897 16.6858 35.7287 16.4074 35.9672 16.0502C36.2057 15.693 36.3329 15.2732 36.3328 14.8437C36.3328 13.645 35.3602 12.6724 34.1615 12.6724V12.6732ZM24.5032 15.2101C19.3717 15.2101 15.2112 19.3706 15.2112 24.502C15.2112 29.6335 19.3717 33.7921 24.5032 33.7921C29.6347 33.7921 33.794 29.6335 33.794 24.502C33.794 19.3706 29.6343 15.2101 24.5028 15.2101H24.5032ZM24.5032 18.4708C27.8339 18.4708 30.5344 21.1709 30.5344 24.502C30.5344 27.8328 27.8339 30.5333 24.5032 30.5333C21.172 30.5333 18.4719 27.8328 18.4719 24.502C18.4719 21.1709 21.172 18.4708 24.5032 18.4708Z" fill="white"/>
<defs>
<radialGradient id="paint0_radial_1580_5853" cx="0" cy="0" r="1" gradientUnits="userSpaceOnUse" gradientTransform="translate(13.0192 52.774) rotate(-90) scale(48.5626 45.1794)">
<stop stop-color="#FFDD55"/>
<stop offset="0.1" stop-color="#FFDD55"/>
<stop offset="0.5" stop-color="#FF543E"/>
<stop offset="1" stop-color="#C837AB"/>
</radialGradient>
<radialGradient id="paint1_radial_1580_5853" cx="0" cy="0" r="1" gradientUnits="userSpaceOnUse" gradientTransform="translate(-8.21 3.52988) rotate(78.6776) scale(21.7079 89.5035)">
<stop stop-color="#3771C8"/>
<stop offset="0.128" stop-color="#3771C8"/>
<stop offset="1" stop-color="#6600FF" stop-opacity="0"/>
</radialGradient>
</defs>
</svg>
