<svg width="156" height="153" viewBox="0 0 156 153" fill="none" xmlns="http://www.w3.org/2000/svg">
<path d="M155.746 76.4917C155.746 118.743 121.489 153 79.2379 153C36.987 153 2.7627 118.743 2.7627 76.4917C2.7627 58.8831 8.70396 42.648 18.733 29.7229C32.7173 11.6508 54.6288 0 79.2379 0C105.965 0 129.499 13.703 143.169 34.456C151.129 46.5206 155.746 60.9683 155.746 76.4752V76.4917Z" fill="url(#paint0_radial_2053_6234)"/>
<path d="M79.2538 34.4724C87.1599 34.4724 93.5691 28.0632 93.5691 20.1571C93.5691 12.251 87.1599 5.8418 79.2538 5.8418C71.3477 5.8418 64.9385 12.251 64.9385 20.1571C64.9385 28.0632 71.3477 34.4724 79.2538 34.4724Z" fill="#A67474"/>
<path d="M140.354 76.6398C140.354 110.384 112.998 137.741 79.2531 137.741C45.5087 137.741 18.1689 110.384 18.1689 76.6398C18.1689 62.5728 22.9186 49.6145 30.9286 39.2876C42.0995 24.8565 59.5923 15.5557 79.2531 15.5557C100.602 15.5557 119.386 26.4949 130.308 43.0775C136.663 52.7093 140.354 64.2443 140.354 76.6398Z" fill="url(#paint1_linear_2053_6234)"/>
<path d="M79.2534 15.556C100.602 15.556 119.386 26.4952 130.309 43.0778C136.664 52.7096 140.354 64.2446 140.354 76.6402C140.354 110.385 112.998 137.741 79.2534 137.741C45.509 137.741 18.1693 110.385 18.1693 76.6402C18.1693 62.5731 22.919 49.6148 30.9289 39.288C42.0998 24.8568 59.5926 15.556 79.2534 15.556ZM79.2534 12.2461C59.1789 12.2461 40.6104 21.3649 28.3141 37.2689C19.5098 48.6219 14.8594 62.2255 14.8594 76.6402C14.8594 112.155 43.7382 141.051 79.2534 141.051C114.769 141.051 143.664 112.155 143.664 76.6402C143.664 63.9963 140.007 51.7497 133.072 41.2573C121.107 23.086 100.983 12.2461 79.2534 12.2461Z" fill="url(#paint2_linear_2053_6234)"/>
<path d="M120.809 76.3594H150.995L148.86 85.0975C146.775 93.6536 139.41 99.628 130.987 99.628H118.724L120.809 76.3594Z" fill="url(#paint3_linear_2053_6234)" stroke="#F4D5B2" stroke-width="2.4" stroke-miterlimit="10"/>
<path d="M78.6763 123.822L102.354 140.687L97.758 142.891C93.2541 145.058 90.0555 145.804 81.8566 140.232L69.9443 132.109L78.6763 123.822Z" fill="url(#paint4_linear_2053_6234)" stroke="#F4D5B2" stroke-width="2.4" stroke-linejoin="round"/>
<path d="M79.327 123.822L56.1533 140.687L60.6513 142.891C65.0593 145.058 68.19 145.804 76.2144 140.232L87.8732 132.109L79.327 123.822Z" fill="url(#paint5_linear_2053_6234)" stroke="#F4D5B2" stroke-width="2.4" stroke-linejoin="round"/>
<path d="M123.54 60.538L154.355 53.3721L154.157 62.3915C153.958 71.2124 147.802 78.7921 139.196 80.7946L126.684 83.7073L123.54 60.5545V60.538Z" fill="url(#paint6_linear_2053_6234)" stroke="#F4D5B2" stroke-width="2.4" stroke-miterlimit="10"/>
<path d="M35.8445 76.3594H5.6582L7.79309 85.0975C9.87832 93.6536 17.2428 99.628 25.6665 99.628H37.9297L35.8445 76.3594Z" fill="url(#paint7_linear_2053_6234)" stroke="#F4D5B2" stroke-width="2.4" stroke-miterlimit="10"/>
<path d="M32.8317 60.538L2 53.3721L2.19859 62.3915C2.39719 71.2124 8.5536 78.7921 17.1593 80.7946L29.6707 83.7073L32.8151 60.5545L32.8317 60.538Z" fill="url(#paint8_linear_2053_6234)" stroke="#F4D5B2" stroke-width="2.4" stroke-miterlimit="10"/>
<path d="M79.2533 126.785C106.948 126.785 129.398 104.334 129.398 76.6401C129.398 48.9458 106.948 26.4951 79.2533 26.4951C51.5591 26.4951 29.1084 48.9458 29.1084 76.6401C29.1084 104.334 51.5591 126.785 79.2533 126.785Z" fill="url(#paint9_linear_2053_6234)"/>
<path d="M79.2533 28.0011C106.08 28.0011 127.892 49.8133 127.892 76.6401C127.892 103.467 106.08 125.279 79.2533 125.279C52.4266 125.279 30.6144 103.467 30.6144 76.6401C30.6144 49.8133 52.4266 28.0011 79.2533 28.0011ZM79.2533 26.4951C51.5661 26.4951 29.1084 48.9528 29.1084 76.6401C29.1084 104.327 51.5661 126.785 79.2533 126.785C106.941 126.785 129.398 104.327 129.398 76.6401C129.398 48.9528 106.941 26.4951 79.2533 26.4951Z" fill="url(#paint10_linear_2053_6234)"/>
<g filter="url(#filter0_d_2053_6234)">
<path d="M78.7576 69.1445C93.7349 76.1946 102.142 87.2331 100.338 95.6072C99.4941 99.4963 96.0353 104.941 90.6567 105.487C85.9897 106.017 81.0911 102.674 78.6748 97.2125C76.1924 102.707 71.2607 105.967 66.6103 105.454C61.2317 104.858 57.8059 99.3804 57.0116 95.4913C55.2408 87.0345 63.7472 76.0622 78.7741 69.1445H78.7576Z" fill="url(#paint11_linear_2053_6234)"/>
<path d="M69.6215 67.0087C74.356 67.0087 78.1941 62.6964 78.1941 57.3769C78.1941 52.0574 74.356 47.7451 69.6215 47.7451C64.8869 47.7451 61.0488 52.0574 61.0488 57.3769C61.0488 62.6964 64.8869 67.0087 69.6215 67.0087Z" fill="url(#paint12_linear_2053_6234)"/>
<path d="M103.878 81.9863C108.613 81.9863 112.451 77.674 112.451 72.3545C112.451 67.035 108.613 62.7227 103.878 62.7227C99.1438 62.7227 95.3057 67.035 95.3057 72.3545C95.3057 77.674 99.1438 81.9863 103.878 81.9863Z" fill="url(#paint13_linear_2053_6234)"/>
<path d="M54.6273 81.9863C59.3619 81.9863 63.2 77.674 63.2 72.3545C63.2 67.035 59.3619 62.7227 54.6273 62.7227C49.8928 62.7227 46.0547 67.035 46.0547 72.3545C46.0547 77.674 49.8928 81.9863 54.6273 81.9863Z" fill="url(#paint14_linear_2053_6234)"/>
<path d="M88.8851 67.0087C93.6197 67.0087 97.4578 62.6964 97.4578 57.3769C97.4578 52.0574 93.6197 47.7451 88.8851 47.7451C84.1506 47.7451 80.3125 52.0574 80.3125 57.3769C80.3125 62.6964 84.1506 67.0087 88.8851 67.0087Z" fill="url(#paint15_linear_2053_6234)"/>
</g>
<path d="M130.623 52.4951C130.623 77.4517 107.619 97.6917 79.2534 97.6917C50.8876 97.6917 27.8838 77.4517 27.8838 52.4951C27.8838 47.8943 28.6616 43.4591 30.118 39.2886C41.2889 24.8575 58.7817 15.5566 78.4425 15.5566C99.7913 15.5566 118.575 26.4959 129.498 43.0784C130.242 46.107 130.623 49.2679 130.623 52.4951Z" fill="url(#paint16_linear_2053_6234)"/>
<path d="M54.4953 73.3148C57.7126 73.3148 60.3208 71.255 60.3208 68.714C60.3208 66.1731 57.7126 64.1133 54.4953 64.1133C51.2781 64.1133 48.6699 66.1731 48.6699 68.714C48.6699 71.255 51.2781 73.3148 54.4953 73.3148Z" fill="url(#paint17_linear_2053_6234)"/>
<path d="M69.4895 58.5687C72.7068 58.5687 75.3149 56.5089 75.3149 53.9679C75.3149 51.427 72.7068 49.3672 69.4895 49.3672C66.2722 49.3672 63.6641 51.427 63.6641 53.9679C63.6641 56.5089 66.2722 58.5687 69.4895 58.5687Z" fill="url(#paint18_linear_2053_6234)"/>
<path d="M88.7698 58.5687C91.987 58.5687 94.5952 56.5089 94.5952 53.9679C94.5952 51.427 91.987 49.3672 88.7698 49.3672C85.5525 49.3672 82.9443 51.427 82.9443 53.9679C82.9443 56.5089 85.5525 58.5687 88.7698 58.5687Z" fill="url(#paint19_linear_2053_6234)"/>
<path d="M103.747 73.3148C106.965 73.3148 109.573 71.255 109.573 68.714C109.573 66.1731 106.965 64.1133 103.747 64.1133C100.53 64.1133 97.9219 66.1731 97.9219 68.714C97.9219 71.255 100.53 73.3148 103.747 73.3148Z" fill="url(#paint20_linear_2053_6234)"/>
<path d="M93.1222 83.7069C92.9236 87.3975 85.4598 90.6908 79.0551 90.6908C72.0051 90.6908 64.1771 86.7189 64.2268 83.1112C64.2268 82.1513 64.806 81.4231 65.3356 80.8273C69.2082 76.3424 74.5371 73.2146 78.6414 71.2617C83.0105 73.1153 88.3063 76.1438 91.9472 80.9101C92.6423 81.8203 93.1884 82.6643 93.1222 83.7069Z" fill="url(#paint21_linear_2053_6234)"/>
<path d="M79.2039 142.422C70.4794 138.28 65.5763 131.795 66.6398 126.89C67.1265 124.601 69.1454 121.422 72.2819 121.095C75.0039 120.786 77.852 122.748 79.258 125.964C80.7001 122.748 83.5662 120.823 86.2881 121.132C89.4246 121.477 91.4075 124.692 91.8762 126.981C92.9036 131.94 87.9465 138.389 79.2039 142.44V142.422Z" fill="#471111"/>
<path d="M89.9061 128.197C90.1563 130.4 89.0306 132.948 87.4939 133.385C86.8149 133.585 85.7964 133.421 84.6171 133.239C83.9917 133.148 83.545 133.021 83.3485 132.984C82.187 132.766 78.6134 132.165 74.4501 132.984C74.2178 133.021 73.7711 133.166 73.1635 133.239C72.7704 133.294 71.2874 133.457 70.2868 133.039C68.6965 132.402 67.7316 130.127 67.8924 128.197C68.1068 125.322 70.7871 123.229 72.8598 123.138C75.272 123.029 77.5234 124.703 78.2024 127.196C78.3096 127.524 78.5598 127.779 78.8814 127.833C79.2924 127.906 79.7569 127.633 79.9178 127.16C80.5431 124.758 82.6516 123.101 84.9566 123.138C86.8864 123.174 89.6023 125.304 89.924 128.197H89.9061Z" fill="url(#paint22_linear_2053_6234)"/>
<defs>
<filter id="filter0_d_2053_6234" x="43.6547" y="47.7451" width="71.1965" height="62.5969" filterUnits="userSpaceOnUse" color-interpolation-filters="sRGB">
<feFlood flood-opacity="0" result="BackgroundImageFix"/>
<feColorMatrix in="SourceAlpha" type="matrix" values="0 0 0 0 0 0 0 0 0 0 0 0 0 0 0 0 0 0 127 0" result="hardAlpha"/>
<feOffset dy="2.4"/>
<feGaussianBlur stdDeviation="1.2"/>
<feColorMatrix type="matrix" values="0 0 0 0 0.956863 0 0 0 0 0.662745 0 0 0 0 0.329412 0 0 0 0.59 0"/>
<feBlend mode="normal" in2="BackgroundImageFix" result="effect1_dropShadow_2053_6234"/>
<feBlend mode="normal" in="SourceGraphic" in2="effect1_dropShadow_2053_6234" result="shape"/>
</filter>
<radialGradient id="paint0_radial_2053_6234" cx="0" cy="0" r="1" gradientUnits="userSpaceOnUse" gradientTransform="translate(79.2544 76.4917) scale(76.4917 76.4917)">
<stop stop-color="#F4A954"/>
<stop offset="0.36" stop-color="#F4A954" stop-opacity="0.59"/>
<stop offset="0.67" stop-color="#F4A954" stop-opacity="0.27"/>
<stop offset="0.89" stop-color="#F4A954" stop-opacity="0.08"/>
<stop offset="1" stop-color="#F4A954" stop-opacity="0"/>
</radialGradient>
<linearGradient id="paint1_linear_2053_6234" x1="79.2531" y1="15.5557" x2="79.2531" y2="137.741" gradientUnits="userSpaceOnUse">
<stop stop-color="#F4A6A3"/>
<stop offset="0.14" stop-color="#F4A68C"/>
<stop offset="0.33" stop-color="#F4A773"/>
<stop offset="0.53" stop-color="#F4A861"/>
<stop offset="0.75" stop-color="#F4A857"/>
<stop offset="0.99" stop-color="#F4A954"/>
</linearGradient>
<linearGradient id="paint2_linear_2053_6234" x1="79.2534" y1="12.2461" x2="79.2534" y2="141.051" gradientUnits="userSpaceOnUse">
<stop stop-color="#A67474"/>
<stop offset="0.08" stop-color="#925F5F"/>
<stop offset="0.23" stop-color="#774343"/>
<stop offset="0.38" stop-color="#612D2D"/>
<stop offset="0.55" stop-color="#521D1D"/>
<stop offset="0.74" stop-color="#491313"/>
<stop offset="1" stop-color="#471111"/>
</linearGradient>
<linearGradient id="paint3_linear_2053_6234" x1="134.859" y1="76.3594" x2="134.859" y2="99.628" gradientUnits="userSpaceOnUse">
<stop stop-color="white"/>
<stop offset="0.22" stop-color="#FEFCFA"/>
<stop offset="0.46" stop-color="#FCF5ED"/>
<stop offset="0.7" stop-color="#F9E9D8"/>
<stop offset="0.94" stop-color="#F5D9BA"/>
<stop offset="1" stop-color="#F4D5B2"/>
</linearGradient>
<linearGradient id="paint4_linear_2053_6234" x1="89.2206" y1="131.018" x2="82.5947" y2="140.738" gradientUnits="userSpaceOnUse">
<stop stop-color="white"/>
<stop offset="0.22" stop-color="#FEFCFA"/>
<stop offset="0.46" stop-color="#FCF5ED"/>
<stop offset="0.7" stop-color="#F9E9D8"/>
<stop offset="0.94" stop-color="#F5D9BA"/>
<stop offset="1" stop-color="#F4D5B2"/>
</linearGradient>
<linearGradient id="paint5_linear_2053_6234" x1="67.4197" y1="132.067" x2="74.0965" y2="141.653" gradientUnits="userSpaceOnUse">
<stop stop-color="white"/>
<stop offset="0.22" stop-color="#FEFCFA"/>
<stop offset="0.46" stop-color="#FCF5ED"/>
<stop offset="0.7" stop-color="#F9E9D8"/>
<stop offset="0.94" stop-color="#F5D9BA"/>
<stop offset="1" stop-color="#F4D5B2"/>
</linearGradient>
<linearGradient id="paint6_linear_2053_6234" x1="137.895" y1="57.1868" x2="143.169" y2="79.8668" gradientUnits="userSpaceOnUse">
<stop stop-color="white"/>
<stop offset="0.22" stop-color="#FEFCFA"/>
<stop offset="0.46" stop-color="#FCF5ED"/>
<stop offset="0.7" stop-color="#F9E9D8"/>
<stop offset="0.94" stop-color="#F5D9BA"/>
<stop offset="1" stop-color="#F4D5B2"/>
</linearGradient>
<linearGradient id="paint7_linear_2053_6234" x1="21.794" y1="76.3594" x2="21.794" y2="99.628" gradientUnits="userSpaceOnUse">
<stop stop-color="white"/>
<stop offset="0.21" stop-color="#FEFCFA"/>
<stop offset="0.44" stop-color="#FCF5ED"/>
<stop offset="0.67" stop-color="#F9E9D8"/>
<stop offset="0.9" stop-color="#F5D9BA"/>
<stop offset="0.96" stop-color="#F4D5B2"/>
<stop offset="1" stop-color="#F4A6A3"/>
</linearGradient>
<linearGradient id="paint8_linear_2053_6234" x1="18.4852" y1="57.2253" x2="13.2153" y2="79.8892" gradientUnits="userSpaceOnUse">
<stop stop-color="white"/>
<stop offset="0.22" stop-color="#FEFCFA"/>
<stop offset="0.46" stop-color="#FCF5ED"/>
<stop offset="0.7" stop-color="#F9E9D8"/>
<stop offset="0.94" stop-color="#F5D9BA"/>
<stop offset="1" stop-color="#F4D5B2"/>
</linearGradient>
<linearGradient id="paint9_linear_2053_6234" x1="79.2533" y1="26.4951" x2="79.2533" y2="126.785" gradientUnits="userSpaceOnUse">
<stop stop-color="white"/>
<stop offset="1" stop-color="#EED3CC"/>
</linearGradient>
<linearGradient id="paint10_linear_2053_6234" x1="79.2533" y1="26.4951" x2="79.2533" y2="126.785" gradientUnits="userSpaceOnUse">
<stop stop-color="#A67474"/>
<stop offset="0.06" stop-color="#996666"/>
<stop offset="0.22" stop-color="#7B4747"/>
<stop offset="0.39" stop-color="#642F2F"/>
<stop offset="0.57" stop-color="#531E1E"/>
<stop offset="0.76" stop-color="#4A1414"/>
<stop offset="1" stop-color="#471111"/>
</linearGradient>
<linearGradient id="paint11_linear_2053_6234" x1="78.6748" y1="46.3724" x2="78.6748" y2="99.7611" gradientUnits="userSpaceOnUse">
<stop stop-color="#F4A6A3"/>
<stop offset="0.02" stop-color="#F4A69D"/>
<stop offset="0.16" stop-color="#F4A783"/>
<stop offset="0.31" stop-color="#F4A86E"/>
<stop offset="0.49" stop-color="#F4A85F"/>
<stop offset="0.69" stop-color="#F4A856"/>
<stop offset="1" stop-color="#F4A954"/>
</linearGradient>
<linearGradient id="paint12_linear_2053_6234" x1="69.6215" y1="46.3715" x2="69.6215" y2="99.7602" gradientUnits="userSpaceOnUse">
<stop stop-color="#F4A6A3"/>
<stop offset="0.02" stop-color="#F4A69D"/>
<stop offset="0.16" stop-color="#F4A783"/>
<stop offset="0.31" stop-color="#F4A86E"/>
<stop offset="0.49" stop-color="#F4A85F"/>
<stop offset="0.69" stop-color="#F4A856"/>
<stop offset="1" stop-color="#F4A954"/>
</linearGradient>
<linearGradient id="paint13_linear_2053_6234" x1="103.878" y1="46.3718" x2="103.878" y2="99.7604" gradientUnits="userSpaceOnUse">
<stop stop-color="#F4A6A3"/>
<stop offset="0.02" stop-color="#F4A69D"/>
<stop offset="0.16" stop-color="#F4A783"/>
<stop offset="0.31" stop-color="#F4A86E"/>
<stop offset="0.49" stop-color="#F4A85F"/>
<stop offset="0.69" stop-color="#F4A856"/>
<stop offset="1" stop-color="#F4A954"/>
</linearGradient>
<linearGradient id="paint14_linear_2053_6234" x1="54.6273" y1="46.3718" x2="54.6273" y2="99.7604" gradientUnits="userSpaceOnUse">
<stop stop-color="#F4A6A3"/>
<stop offset="0.02" stop-color="#F4A69D"/>
<stop offset="0.16" stop-color="#F4A783"/>
<stop offset="0.31" stop-color="#F4A86E"/>
<stop offset="0.49" stop-color="#F4A85F"/>
<stop offset="0.69" stop-color="#F4A856"/>
<stop offset="1" stop-color="#F4A954"/>
</linearGradient>
<linearGradient id="paint15_linear_2053_6234" x1="88.8851" y1="46.3715" x2="88.8851" y2="99.7602" gradientUnits="userSpaceOnUse">
<stop stop-color="#F4A6A3"/>
<stop offset="0.02" stop-color="#F4A69D"/>
<stop offset="0.16" stop-color="#F4A783"/>
<stop offset="0.31" stop-color="#F4A86E"/>
<stop offset="0.49" stop-color="#F4A85F"/>
<stop offset="0.69" stop-color="#F4A856"/>
<stop offset="1" stop-color="#F4A954"/>
</linearGradient>
<linearGradient id="paint16_linear_2053_6234" x1="79.2534" y1="15.5566" x2="79.2534" y2="97.6917" gradientUnits="userSpaceOnUse">
<stop stop-color="white" stop-opacity="0.6"/>
<stop offset="0.33" stop-color="white" stop-opacity="0.41"/>
<stop offset="1" stop-color="white" stop-opacity="0"/>
</linearGradient>
<linearGradient id="paint17_linear_2053_6234" x1="54.4953" y1="64.1133" x2="54.4953" y2="73.2982" gradientUnits="userSpaceOnUse">
<stop stop-color="white" stop-opacity="0.5"/>
<stop offset="0.39" stop-color="white" stop-opacity="0.31"/>
<stop offset="1" stop-color="white" stop-opacity="0"/>
</linearGradient>
<linearGradient id="paint18_linear_2053_6234" x1="69.4895" y1="49.3672" x2="69.4895" y2="58.5522" gradientUnits="userSpaceOnUse">
<stop stop-color="white" stop-opacity="0.5"/>
<stop offset="0.39" stop-color="white" stop-opacity="0.31"/>
<stop offset="1" stop-color="white" stop-opacity="0"/>
</linearGradient>
<linearGradient id="paint19_linear_2053_6234" x1="88.7698" y1="49.3672" x2="88.7698" y2="58.5522" gradientUnits="userSpaceOnUse">
<stop stop-color="white" stop-opacity="0.5"/>
<stop offset="0.39" stop-color="white" stop-opacity="0.31"/>
<stop offset="1" stop-color="white" stop-opacity="0"/>
</linearGradient>
<linearGradient id="paint20_linear_2053_6234" x1="103.747" y1="0.000590426" x2="103.747" y2="0.000590426" gradientUnits="userSpaceOnUse">
<stop stop-color="white" stop-opacity="0.5"/>
<stop offset="0.39" stop-color="white" stop-opacity="0.31"/>
<stop offset="1" stop-color="white" stop-opacity="0"/>
</linearGradient>
<linearGradient id="paint21_linear_2053_6234" x1="78.6745" y1="71.2617" x2="78.6745" y2="90.7074" gradientUnits="userSpaceOnUse">
<stop stop-color="white" stop-opacity="0.5"/>
<stop offset="0.39" stop-color="white" stop-opacity="0.31"/>
<stop offset="1" stop-color="white" stop-opacity="0"/>
</linearGradient>
<linearGradient id="paint22_linear_2053_6234" x1="78.8993" y1="123.138" x2="78.8993" y2="133.476" gradientUnits="userSpaceOnUse">
<stop stop-color="white" stop-opacity="0.3"/>
<stop offset="0.28" stop-color="white" stop-opacity="0.17"/>
<stop offset="0.55" stop-color="white" stop-opacity="0.08"/>
<stop offset="0.79" stop-color="white" stop-opacity="0.02"/>
<stop offset="1" stop-color="white" stop-opacity="0"/>
</linearGradient>
</defs>
</svg>
