<svg width="147" height="106" viewBox="0 0 147 106" fill="none" xmlns="http://www.w3.org/2000/svg">
<path d="M53.4922 15.8594C47.3724 19.1146 42.4896 21.9792 38.8438 24.4531C35.1979 26.9271 32.138 30.0521 29.6641 33.8281C27.3203 37.6042 26.1484 42.1615 26.1484 47.5C28.1016 50.3646 30.3802 52.6432 32.9844 54.3359C35.7188 56.0286 39.0391 57.2005 42.9453 57.8516C56.6172 60.3255 63.4531 67.6823 63.4531 79.9219C63.4531 87.2135 60.9141 93.2682 55.8359 98.0859C50.7578 102.904 44.1823 105.312 36.1094 105.312C29.2083 105.312 23.0885 103.62 17.75 100.234C12.4115 96.849 8.24479 92.0964 5.25 85.9766C2.38542 79.8568 0.953125 72.8906 0.953125 65.0781C0.953125 55.5729 3.03646 46.263 7.20312 37.1484C11.5 27.9036 17.6849 20.026 25.7578 13.5156C33.8307 7.00521 43.2708 2.77344 54.0781 0.820312C57.724 3.8151 60.0677 7.46094 61.1094 11.7578L53.4922 15.8594ZM136.5 15.8594C130.38 19.1146 125.497 21.9792 121.852 24.4531C118.206 26.9271 115.146 30.0521 112.672 33.8281C110.328 37.6042 109.156 42.1615 109.156 47.5C112.802 53.099 118.401 56.5495 125.953 57.8516C139.495 60.3255 146.266 67.6823 146.266 79.9219C146.266 87.2135 143.727 93.2682 138.648 98.0859C133.701 102.904 127.19 105.312 119.117 105.312C112.216 105.312 106.096 103.62 100.758 100.234C95.4193 96.849 91.2526 92.0964 88.2578 85.9766C85.3932 79.8568 83.9609 72.8906 83.9609 65.0781C83.9609 55.5729 86.0443 46.263 90.2109 37.1484C94.5078 27.9036 100.693 20.026 108.766 13.5156C116.839 7.00521 126.279 2.77344 137.086 0.820312C140.732 3.8151 143.076 7.46094 144.117 11.7578L136.5 15.8594Z" fill="#F45954" fill-opacity="0.25"/>
</svg>
